<?xml version="1.0" encoding="UTF-8"?>
<svg id="Layer_1" data-name="Layer 1" xmlns="http://www.w3.org/2000/svg" xmlns:xlink="http://www.w3.org/1999/xlink" viewBox="0 0 288.6 173.4">
  <defs>
    <style>
      .cls-1 {
        clip-path: url(#clippath-21);
      }

      .cls-2 {
        clip-path: url(#clippath-6);
      }

      .cls-3 {
        clip-path: url(#clippath-7);
      }

      .cls-4 {
        clip-path: url(#clippath-17);
      }

      .cls-5 {
        font-size: 11.1px;
      }

      .cls-5, .cls-6 {
        font-family: Calibri, Calibri;
      }

      .cls-5, .cls-6, .cls-7 {
        fill: #595959;
      }

      .cls-8 {
        clip-path: url(#clippath-15);
      }

      .cls-9 {
        clip-path: url(#clippath-18);
      }

      .cls-10 {
        clip-path: url(#clippath-4);
      }

      .cls-11 {
        clip-path: url(#clippath-22);
      }

      .cls-12 {
        clip-path: url(#clippath-23);
      }

      .cls-13 {
        stroke: #4472c4;
        stroke-linecap: round;
        stroke-width: 1.8px;
      }

      .cls-13, .cls-14, .cls-15, .cls-16 {
        fill: none;
      }

      .cls-13, .cls-15 {
        stroke-linejoin: round;
      }

      .cls-17 {
        clip-path: url(#clippath-9);
      }

      .cls-18 {
        clip-path: url(#clippath-10);
      }

      .cls-19 {
        letter-spacing: 0em;
      }

      .cls-20 {
        clip-path: url(#clippath-25);
      }

      .cls-21 {
        fill: #fff;
        fill-rule: evenodd;
      }

      .cls-22 {
        clip-path: url(#clippath-11);
      }

      .cls-23 {
        letter-spacing: 0em;
      }

      .cls-15 {
        stroke: #d9d9d9;
        stroke-width: .6px;
      }

      .cls-24 {
        clip-path: url(#clippath-1);
      }

      .cls-25 {
        letter-spacing: -.01em;
      }

      .cls-26 {
        clip-path: url(#clippath-5);
      }

      .cls-27 {
        clip-path: url(#clippath-20);
      }

      .cls-6 {
        font-size: 7.2px;
      }

      .cls-28 {
        clip-path: url(#clippath-8);
      }

      .cls-29 {
        clip-path: url(#clippath-3);
      }

      .cls-30 {
        clip-path: url(#clippath-26);
      }

      .cls-31 {
        clip-path: url(#clippath-12);
      }

      .cls-32 {
        letter-spacing: .01em;
      }

      .cls-33 {
        clip-path: url(#clippath-14);
      }

      .cls-16 {
        clip-rule: evenodd;
      }

      .cls-34 {
        clip-path: url(#clippath-19);
      }

      .cls-35 {
        letter-spacing: 0em;
      }

      .cls-36 {
        letter-spacing: .01em;
      }

      .cls-37 {
        clip-path: url(#clippath-16);
      }

      .cls-38 {
        clip-path: url(#clippath-2);
      }

      .cls-39 {
        clip-path: url(#clippath-13);
      }

      .cls-40 {
        clip-path: url(#clippath-24);
      }

      .cls-41 {
        clip-path: url(#clippath);
      }

      .cls-42 {
        letter-spacing: 0em;
      }

      .cls-43 {
        letter-spacing: 0em;
      }
    </style>
    <clipPath id="clippath">
      <polygon class="cls-16" points=".3 173.1 288.3 173.1 288.3 .3 .3 .3 .3 173.1 .3 173.1"/>
    </clipPath>
    <clipPath id="clippath-1">
      <polygon class="cls-16" points=".3 173.1 288.3 173.1 288.3 .3 .3 .3 .3 173.1 .3 173.1"/>
    </clipPath>
    <clipPath id="clippath-2">
      <polygon class="cls-16" points=".3 173.1 288.3 173.1 288.3 .3 .3 .3 .3 173.1 .3 173.1"/>
    </clipPath>
    <clipPath id="clippath-3">
      <polygon class="cls-16" points="30.6 133.2 274.5 133.2 274.5 30 30.6 30 30.6 133.2 30.6 133.2"/>
    </clipPath>
    <clipPath id="clippath-4">
      <polygon class="cls-16" points=".3 173.1 288.3 173.1 288.3 .3 .3 .3 .3 173.1 .3 173.1"/>
    </clipPath>
    <clipPath id="clippath-5">
      <rect class="cls-14" x=".3" y=".3" width="288" height="172.8"/>
    </clipPath>
    <clipPath id="clippath-6">
      <polygon class="cls-16" points=".3 173.1 288.3 173.1 288.3 .3 .3 .3 .3 173.1 .3 173.1"/>
    </clipPath>
    <clipPath id="clippath-7">
      <rect class="cls-14" x=".3" y=".3" width="288" height="172.8"/>
    </clipPath>
    <clipPath id="clippath-8">
      <polygon class="cls-16" points=".3 173.1 288.3 173.1 288.3 .3 .3 .3 .3 173.1 .3 173.1"/>
    </clipPath>
    <clipPath id="clippath-9">
      <rect class="cls-14" x=".3" y=".3" width="288" height="172.8"/>
    </clipPath>
    <clipPath id="clippath-10">
      <polygon class="cls-16" points=".3 173.1 288.3 173.1 288.3 .3 .3 .3 .3 173.1 .3 173.1"/>
    </clipPath>
    <clipPath id="clippath-11">
      <rect class="cls-14" x=".3" y=".3" width="288" height="172.8"/>
    </clipPath>
    <clipPath id="clippath-12">
      <polygon class="cls-16" points=".3 173.1 288.3 173.1 288.3 .3 .3 .3 .3 173.1 .3 173.1"/>
    </clipPath>
    <clipPath id="clippath-13">
      <rect class="cls-14" x=".3" y=".3" width="288" height="172.8"/>
    </clipPath>
    <clipPath id="clippath-14">
      <polygon class="cls-16" points=".3 173.1 288.3 173.1 288.3 .3 .3 .3 .3 173.1 .3 173.1"/>
    </clipPath>
    <clipPath id="clippath-15">
      <rect class="cls-14" x=".3" y=".3" width="288" height="172.8"/>
    </clipPath>
    <clipPath id="clippath-16">
      <polygon class="cls-16" points=".3 173.1 288.3 173.1 288.3 .3 .3 .3 .3 173.1 .3 173.1"/>
    </clipPath>
    <clipPath id="clippath-17">
      <polygon class="cls-16" points=".3 173.1 288.3 173.1 288.3 .3 .3 .3 .3 173.1 .3 173.1"/>
    </clipPath>
    <clipPath id="clippath-18">
      <polygon class="cls-16" points=".3 173.1 288.3 173.1 288.3 .3 .3 .3 .3 173.1 .3 173.1"/>
    </clipPath>
    <clipPath id="clippath-19">
      <polygon class="cls-16" points=".3 173.1 288.3 173.1 288.3 .3 .3 .3 .3 173.1 .3 173.1"/>
    </clipPath>
    <clipPath id="clippath-20">
      <polygon class="cls-16" points=".3 173.1 288.3 173.1 288.3 .3 .3 .3 .3 173.1 .3 173.1"/>
    </clipPath>
    <clipPath id="clippath-21">
      <polygon class="cls-16" points=".3 173.1 288.3 173.1 288.3 .3 .3 .3 .3 173.1 .3 173.1"/>
    </clipPath>
    <clipPath id="clippath-22">
      <polygon class="cls-16" points=".3 173.1 288.3 173.1 288.3 .3 .3 .3 .3 173.1 .3 173.1"/>
    </clipPath>
    <clipPath id="clippath-23">
      <polygon class="cls-16" points=".3 173.1 288.3 173.1 288.3 .3 .3 .3 .3 173.1 .3 173.1"/>
    </clipPath>
    <clipPath id="clippath-24">
      <polygon class="cls-16" points=".3 173.1 288.3 173.1 288.3 .3 .3 .3 .3 173.1 .3 173.1"/>
    </clipPath>
    <clipPath id="clippath-25">
      <rect class="cls-14" x=".3" y=".3" width="288" height="172.8"/>
    </clipPath>
    <clipPath id="clippath-26">
      <polygon class="cls-16" points="0 173.4 288.6 173.4 288.6 0 0 0 0 173.4 0 173.4"/>
    </clipPath>
  </defs>
  <polygon class="cls-21" points=".3 .3 288.3 .3 288.3 173.1 .3 173.1 .3 .3 .3 .3"/>
  <g class="cls-41">
    <path class="cls-15" d="M30.6,112.22h243.3M30.6,91.52h243.3M30.6,71.12h243.3M30.6,50.71h243.3M30.6,30h243.3"/>
  </g>
  <g class="cls-24">
    <line class="cls-15" x1="30.6" y1="132.6" x2="273.9" y2="132.6"/>
  </g>
  <g class="cls-38">
    <path class="cls-15" d="M30.6,132.6v2.4M62.14,132.6v2.4M92.74,132.6v2.4M124.24,132.6v2.4M154.84,132.6v2.4M186.35,132.6v2.4M218.15,132.6v2.4M246.6,132.6v2.4"/>
  </g>
  <g class="cls-29">
    <polyline class="cls-13" points="31.2 132.6 38.43 132.6 45.33 132.6 52.53 132.6 59.73 132.6 66.94 132.6 73.84 132.6 81.04 132.6 88.24 132.6 95.44 132.6 102.34 132.6 109.54 132.6 116.74 132.6 123.94 132.6 130.84 132.6 138.04 132.6 145.24 50.7 152.44 132.6 159.35 132.6 166.55 132.6 173.75 132.6 180.95 132.6 187.85 132.6 195.05 132.6 202.25 132.6 209.45 132.6 216.35 132.6 223.55 132.6 230.75 132.6 237.95 132.6 244.85 132.6 252.06 132.6 259.26 132.6 266.46 132.6 273.6 132.6"/>
  </g>
  <g class="cls-10">
    <g class="cls-26">
      <text class="cls-6" transform="translate(20.32 134.81)"><tspan x="0" y="0">0</tspan></text>
    </g>
  </g>
  <g class="cls-2">
    <g class="cls-3">
      <text class="cls-6" transform="translate(14.85 114.29)"><tspan class="cls-42" x="0" y="0">0</tspan><tspan class="cls-43" x="3.61" y="0">.</tspan><tspan x="5.41" y="0">5</tspan></text>
    </g>
  </g>
  <g class="cls-28">
    <g class="cls-17">
      <text class="cls-6" transform="translate(20.32 93.78)"><tspan x="0" y="0">1</tspan></text>
    </g>
  </g>
  <g class="cls-18">
    <g class="cls-22">
      <text class="cls-6" transform="translate(14.85 73.26)"><tspan class="cls-42" x="0" y="0">1</tspan><tspan class="cls-43" x="3.61" y="0">.</tspan><tspan x="5.41" y="0">5</tspan></text>
    </g>
  </g>
  <g class="cls-31">
    <g class="cls-39">
      <text class="cls-6" transform="translate(20.32 52.74)"><tspan x="0" y="0">2</tspan></text>
    </g>
  </g>
  <g class="cls-33">
    <g class="cls-8">
      <text class="cls-6" transform="translate(14.85 32.23)"><tspan class="cls-42" x="0" y="0">2</tspan><tspan class="cls-43" x="3.61" y="0">.</tspan><tspan x="5.41" y="0">5</tspan></text>
    </g>
  </g>
  <g class="cls-37">
    <path class="cls-7" d="M12.49,160.94c.14.14.24.29.3.45s.08.32.06.49c-.02.17-.08.34-.18.52s-.24.35-.42.53c-.17.17-.33.3-.5.39-.17.1-.33.16-.49.18-.16.02-.31,0-.46-.04-.15-.05-.29-.14-.41-.27-.1-.1-.18-.21-.23-.33-.05-.12-.08-.24-.09-.38,0-.13,0-.28.03-.43.03-.15.07-.32.13-.49-.15.05-.29.08-.43.1-.13.02-.26.02-.38,0-.12-.01-.23-.05-.34-.09-.1-.05-.2-.12-.29-.21-.11-.11-.2-.24-.26-.38-.06-.14-.08-.29-.07-.44,0-.15.06-.32.14-.49s.21-.34.38-.51c.16-.16.32-.28.48-.36.16-.08.31-.12.45-.13s.28.01.41.07c.13.05.24.13.35.24.08.08.15.18.2.28.05.11.08.22.1.34s.02.25,0,.39-.05.28-.09.44c.18-.06.34-.1.49-.14.15-.03.3-.04.43-.03s.25.04.37.08c.11.05.21.12.31.21h0ZM10.3,159.82c-.07-.07-.14-.12-.22-.15-.08-.03-.16-.05-.25-.04-.09,0-.17.03-.26.08-.09.05-.18.12-.27.2-.18.18-.27.36-.28.53s.05.33.2.47c.06.06.14.11.21.15.08.03.17.05.26.05.1,0,.21,0,.32-.03.12-.02.25-.06.41-.11.08-.25.11-.48.1-.67-.01-.19-.09-.35-.21-.48h0ZM12.1,161.42c-.08-.08-.16-.13-.25-.17s-.19-.05-.3-.05c-.11,0-.23.02-.37.06-.14.03-.29.08-.45.14-.05.16-.09.3-.12.43-.03.13-.04.25-.03.35,0,.11.02.2.06.29.03.09.09.17.16.24.16.16.34.23.54.21.2-.02.41-.14.63-.36.21-.21.33-.42.35-.61.02-.2-.05-.37-.2-.52h0ZM14.51,161.77s.02.05.02.08,0,.05-.01.07c0,.02-.03.05-.05.08s-.05.06-.08.09c-.04.04-.08.07-.11.09s-.06.03-.09.04c-.03,0-.05,0-.07-.01-.02-.01-.03-.03-.05-.07l-2.62-5.63s-.02-.05-.02-.08c0-.02,0-.05,0-.07,0-.02.02-.05.05-.08.02-.03.05-.06.09-.09.04-.04.08-.07.11-.09.03-.02.06-.03.09-.04.02,0,.05,0,.07.01.02.01.04.03.05.06l2.62,5.63ZM17.51,157.2s.05.06.07.09c.02.03.03.05.04.08,0,.02,0,.04,0,.06,0,.02-.01.04-.03.05l-1.78,1.78s-.05.04-.07.05c-.02.01-.05.02-.07.02s-.05-.01-.08-.03c-.03-.02-.06-.05-.1-.08-.03-.03-.06-.06-.08-.09-.02-.03-.04-.05-.05-.08-.01-.03-.02-.06-.03-.09,0-.03,0-.07-.01-.11l-.02-1.3c0-.3-.02-.56-.05-.77s-.07-.39-.12-.54-.11-.27-.17-.37c-.07-.1-.13-.18-.21-.25-.07-.07-.15-.13-.24-.17-.09-.04-.18-.06-.27-.06-.09,0-.19.02-.28.06-.1.04-.19.1-.28.19-.1.1-.18.21-.24.32s-.1.21-.13.31c-.03.1-.05.18-.06.25-.01.07-.03.12-.05.14-.01.01-.03.02-.04.02s-.03,0-.06,0c-.02,0-.05-.02-.07-.05-.03-.02-.06-.05-.09-.08-.02-.02-.05-.05-.06-.07s-.03-.04-.04-.06-.02-.04-.02-.05c0-.02,0-.05,0-.08,0-.04.01-.1.03-.17.02-.08.05-.17.1-.27.04-.1.1-.21.17-.32s.15-.21.25-.31c.16-.16.31-.27.47-.34.16-.07.32-.11.47-.11s.3.03.44.09.27.15.38.27c.1.1.2.21.28.33.08.12.16.27.22.45.06.18.11.39.14.65.03.26.05.57.06.94l.02,1.04,1.4-1.4s.03-.02.05-.03c.02,0,.04,0,.07,0s.05.02.08.04.05.04.08.07h0ZM19.41,153.61c.17.17.3.35.37.55.08.19.11.39.09.59-.01.2-.07.39-.17.59s-.24.38-.42.56c-.1.1-.2.19-.3.26-.1.08-.2.14-.29.19s-.17.09-.23.11c-.06.02-.11.04-.13.04s-.04,0-.06,0c-.01,0-.03-.01-.05-.02-.02,0-.04-.02-.06-.04-.02-.02-.05-.04-.08-.07-.03-.03-.05-.05-.07-.08-.02-.02-.03-.05-.04-.07,0-.02,0-.04,0-.05,0-.02,0-.03.02-.04.02-.02.05-.03.11-.05.06-.01.12-.04.21-.07.08-.03.18-.08.29-.15.11-.07.22-.16.34-.28.11-.11.2-.23.27-.35.07-.12.1-.24.12-.36s0-.25-.05-.37c-.05-.12-.13-.25-.25-.37-.1-.1-.21-.18-.32-.22-.11-.05-.23-.06-.35-.05-.12.01-.24.06-.37.14-.13.08-.26.19-.41.33-.1.1-.18.19-.25.28s-.13.16-.19.22c-.05.05-.09.07-.13.07-.04,0-.09-.03-.15-.09l-1.31-1.31c-.05-.05-.08-.11-.08-.16,0-.05.02-.1.07-.15l1.42-1.42s.03-.02.05-.03c.02,0,.04,0,.06,0,.02,0,.05.02.08.04.03.02.06.04.09.08.06.06.1.11.12.16.02.05.01.09-.02.12l-1.15,1.15.9.9c.05-.06.1-.13.16-.19.06-.06.12-.13.2-.2.18-.18.35-.31.53-.4.18-.09.35-.14.52-.15s.33.02.49.09c.16.07.31.17.45.31h0ZM21.72,154.56s.02.05.02.08,0,.05-.01.07c0,.02-.03.05-.05.08-.02.03-.05.06-.08.09-.04.04-.08.07-.11.09s-.06.03-.09.04-.05,0-.07-.01-.03-.03-.05-.07l-2.62-5.63s-.02-.05-.02-.08c0-.02,0-.05,0-.07,0-.02.02-.05.05-.08s.05-.06.09-.09c.04-.04.08-.07.11-.09s.06-.03.09-.04.05,0,.07.01c.02.01.04.03.05.06l2.62,5.63ZM24.73,149.99s.05.06.07.09c.02.03.03.05.04.08s0,.04,0,.06-.01.04-.03.05l-1.78,1.78s-.05.04-.07.05-.05.02-.07.02-.05-.01-.08-.03c-.03-.02-.06-.05-.1-.08-.03-.03-.06-.06-.08-.09-.02-.03-.04-.05-.05-.08-.01-.03-.02-.06-.03-.09,0-.03,0-.07-.01-.11l-.02-1.3c0-.3-.02-.56-.05-.77-.03-.21-.07-.39-.12-.54s-.11-.27-.17-.37c-.07-.1-.13-.18-.21-.25s-.15-.13-.24-.17c-.09-.04-.18-.06-.27-.06-.09,0-.19.02-.28.06-.1.04-.19.1-.28.19-.1.1-.18.21-.24.32-.05.11-.1.21-.13.31-.03.1-.05.18-.06.25-.01.07-.03.12-.05.14-.01.01-.03.02-.04.02-.02,0-.03,0-.06,0-.02,0-.05-.02-.07-.05-.03-.02-.06-.05-.09-.08-.02-.02-.05-.05-.06-.07-.02-.02-.03-.04-.04-.06,0-.02-.02-.04-.02-.05,0-.02,0-.05,0-.08,0-.04.01-.1.03-.17.02-.08.05-.17.1-.27.04-.1.1-.21.17-.32s.15-.21.25-.31c.16-.16.31-.27.47-.34.16-.07.32-.11.47-.11.15,0,.3.03.44.09.14.06.27.15.38.27.1.1.2.21.28.33.08.12.16.27.22.45.06.18.11.39.14.65.03.26.05.57.06.94l.02,1.04,1.4-1.4s.03-.02.05-.03.04,0,.07,0c.02,0,.05.02.08.04.03.02.05.04.08.07h0ZM25.95,145.9c.25.25.45.49.62.73.16.24.28.48.33.72s.05.47-.01.69c-.07.23-.21.45-.42.66-.2.2-.41.34-.62.4-.21.07-.43.07-.65.02s-.46-.17-.7-.34c-.24-.17-.49-.39-.76-.65-.25-.25-.45-.49-.62-.73-.16-.24-.28-.48-.33-.72-.06-.24-.05-.47.01-.69.07-.23.2-.45.42-.66.2-.2.41-.34.62-.41.21-.07.43-.07.65-.02.22.06.46.17.7.34.24.17.49.39.76.65h0ZM25.54,146.37c-.16-.16-.31-.3-.45-.42-.14-.12-.27-.21-.39-.29-.12-.08-.23-.13-.34-.17-.11-.03-.21-.05-.3-.05s-.19.03-.27.07-.17.1-.25.18c-.14.14-.22.29-.24.44-.02.15,0,.31.07.48.07.17.17.34.3.51s.3.35.47.53c.24.24.46.43.65.58.19.14.37.24.53.29.16.05.31.06.44.02.13-.04.26-.11.38-.23.09-.09.16-.19.2-.29.04-.1.06-.2.05-.31,0-.11-.03-.21-.07-.33-.04-.11-.1-.22-.18-.34s-.16-.23-.27-.35c-.1-.12-.21-.24-.33-.36h0ZM29.82,144.9s.05.06.07.09.03.05.04.08c0,.02,0,.04,0,.06,0,.02-.01.04-.03.05l-1.78,1.78s-.05.04-.07.05c-.02.01-.05.02-.07.02-.03,0-.05-.01-.08-.03-.03-.02-.06-.05-.1-.08-.03-.03-.06-.06-.08-.09-.02-.03-.04-.05-.05-.08-.01-.03-.02-.06-.03-.09,0-.03,0-.07-.01-.11l-.02-1.3c0-.3-.02-.56-.05-.77s-.07-.39-.12-.54c-.05-.15-.11-.27-.17-.37-.07-.1-.13-.18-.21-.25-.07-.07-.15-.13-.24-.17-.09-.04-.18-.06-.27-.06-.09,0-.19.02-.28.06s-.19.1-.28.19c-.1.1-.18.21-.24.32-.05.11-.1.21-.13.31-.03.1-.05.18-.06.25-.01.07-.03.12-.05.14-.01.01-.03.02-.04.02-.02,0-.03,0-.06,0-.02,0-.05-.02-.07-.05-.03-.02-.06-.05-.09-.08-.02-.02-.05-.05-.06-.07-.02-.02-.03-.04-.04-.06,0-.02-.02-.04-.02-.05,0-.02,0-.05,0-.08s.01-.1.03-.17c.02-.08.05-.17.1-.27s.1-.21.17-.32c.07-.11.15-.21.25-.31.16-.16.31-.27.47-.34.16-.07.32-.11.47-.11.15,0,.3.03.44.09.14.06.27.15.38.27.1.1.2.21.28.33s.16.27.22.45c.06.18.11.39.14.65.03.26.05.57.06.94l.02,1.04,1.4-1.4s.03-.02.05-.03c.02,0,.04,0,.07,0,.02,0,.05.02.08.04.03.02.05.04.08.07h0ZM31.77,141.48c.05.05.09.11.1.15.01.05,0,.09-.02.12l-.36.36.68.68s.02.03.02.04c0,.02,0,.04-.01.06-.01.02-.03.05-.05.08-.02.03-.06.07-.1.11-.04.04-.08.07-.11.1-.03.02-.06.04-.08.05-.02,0-.04.01-.06,0s-.03-.01-.04-.02l-.68-.68-1.32,1.32s-.04.03-.06.04c-.02,0-.04.01-.06,0-.02,0-.05-.01-.08-.04-.03-.02-.06-.05-.1-.09-.03-.03-.06-.06-.08-.09-.02-.03-.04-.05-.06-.08-.02-.03-.03-.05-.04-.08s-.02-.06-.03-.09l-.81-3.1s0-.05,0-.07c0-.03.02-.05.04-.09s.05-.07.08-.11c.03-.04.08-.08.13-.14.06-.06.11-.1.15-.14.05-.04.08-.07.12-.08s.06-.03.08-.03.04,0,.06.02l2.05,2.05.36-.36s.07-.04.11-.02c.05.01.1.05.16.11h0ZM28.94,140.43h0s.73,2.8.73,2.8l1.04-1.04-1.77-1.77h0Z"/>
  </g>
  <g class="cls-4">
    <path class="cls-7" d="M43.1,160.08c.14.14.27.29.4.45s.23.32.33.5.16.35.21.53c.05.18.06.37.05.56-.02.19-.07.38-.16.57-.09.19-.23.38-.42.56-.07.07-.15.14-.22.19-.08.06-.15.11-.22.15-.07.04-.13.07-.18.09-.05.02-.09.03-.12.03-.03,0-.06,0-.1-.02s-.07-.05-.11-.09c-.04-.04-.06-.07-.08-.09-.02-.02-.03-.04-.04-.06s0-.03,0-.04c0-.01.01-.03.03-.04.02-.02.05-.04.1-.06s.1-.05.17-.08c.07-.04.14-.08.22-.14.08-.06.16-.13.25-.21.16-.16.27-.33.32-.51.05-.18.06-.35.03-.53-.03-.18-.1-.35-.2-.53-.1-.17-.23-.34-.38-.49-.04.14-.1.29-.18.45-.08.16-.2.32-.36.48-.18.18-.35.3-.52.38-.17.07-.34.1-.49.09-.16-.01-.31-.06-.46-.14-.15-.08-.29-.19-.43-.33-.14-.14-.26-.3-.34-.47-.09-.17-.14-.35-.15-.53s.02-.38.1-.57c.08-.19.21-.39.4-.57.13-.13.27-.24.41-.31.14-.07.28-.11.42-.12.14-.01.28,0,.43.04.14.04.29.1.44.18.15.08.29.18.44.3s.29.25.44.4h0ZM42.62,160.47c-.21-.21-.4-.38-.58-.49-.17-.12-.33-.19-.48-.23s-.28-.03-.4,0c-.12.04-.23.11-.34.22-.11.11-.18.22-.22.33-.04.12-.05.23-.03.34.02.11.05.22.11.33.06.11.13.2.22.29.1.1.2.18.3.24.1.06.2.1.31.11.1,0,.21,0,.31-.05.11-.04.21-.12.32-.23.12-.12.23-.26.3-.42.08-.15.13-.3.15-.45h0ZM46.07,161.77s.02.05.02.08c0,.02,0,.05-.01.07s-.03.05-.05.08-.05.06-.08.09c-.04.04-.08.07-.11.09s-.06.03-.09.04-.05,0-.07-.01c-.02-.01-.03-.03-.05-.07l-2.62-5.63s-.02-.05-.02-.08c0-.02,0-.05,0-.07,0-.02.02-.05.05-.08s.05-.06.09-.09c.04-.04.08-.07.11-.09.03-.02.06-.03.09-.04.02,0,.05,0,.07.01.02.01.04.03.05.06l2.62,5.63ZM49.08,157.2s.05.06.07.09c.02.03.03.05.04.08s0,.04,0,.06c0,.02-.01.04-.03.05l-1.78,1.78s-.05.04-.07.05c-.02.01-.05.02-.07.02s-.05-.01-.08-.03c-.03-.02-.06-.05-.1-.08-.03-.03-.06-.06-.08-.09-.02-.03-.04-.05-.05-.08-.01-.03-.02-.06-.03-.09,0-.03,0-.07-.01-.11l-.02-1.3c0-.3-.02-.56-.05-.77-.03-.21-.07-.39-.12-.54-.05-.15-.11-.27-.17-.37-.07-.1-.13-.18-.21-.25s-.15-.13-.24-.17c-.09-.04-.18-.06-.27-.06s-.19.02-.28.06c-.1.04-.19.1-.28.19-.1.1-.18.21-.24.32s-.1.21-.13.31c-.03.1-.05.18-.06.25-.01.07-.03.12-.05.14-.01.01-.03.02-.04.02s-.03,0-.06,0-.05-.02-.07-.05c-.03-.02-.06-.05-.09-.08-.02-.02-.05-.05-.06-.07s-.03-.04-.04-.06-.02-.04-.02-.05c0-.02,0-.05,0-.08,0-.04.01-.1.03-.17.02-.08.05-.17.1-.27s.1-.21.17-.32c.07-.11.15-.21.25-.31.16-.16.31-.27.47-.34.16-.07.32-.11.47-.11s.3.03.44.09c.14.06.27.15.38.27.1.1.2.21.28.33.08.12.16.27.22.45s.11.39.14.65c.03.26.05.57.06.94l.02,1.04,1.4-1.4s.03-.02.05-.03.04,0,.07,0c.02,0,.05.02.08.04.03.02.05.04.08.07h0ZM50.97,153.61c.17.17.3.35.37.55.08.19.11.39.09.59-.01.2-.07.39-.17.59-.1.19-.24.38-.42.56-.1.1-.2.19-.3.26s-.2.14-.29.19-.17.09-.23.11c-.06.02-.11.04-.13.04-.02,0-.04,0-.06,0-.01,0-.03-.01-.05-.02-.02,0-.04-.02-.06-.04s-.05-.04-.08-.07c-.03-.03-.05-.05-.07-.08-.02-.02-.03-.05-.04-.07,0-.02,0-.04,0-.05,0-.02,0-.03.02-.04.02-.02.05-.03.11-.05.06-.01.12-.04.21-.07.08-.03.18-.08.29-.15.11-.07.22-.16.34-.28.11-.11.2-.23.27-.35s.1-.24.12-.36c.01-.12,0-.25-.05-.37-.05-.12-.13-.25-.25-.37-.1-.1-.21-.18-.32-.22-.11-.05-.23-.06-.35-.05s-.24.06-.37.14c-.13.08-.26.19-.41.33-.1.1-.18.19-.25.28-.06.08-.13.16-.19.22-.05.05-.09.07-.13.07s-.09-.03-.15-.09l-1.31-1.31c-.05-.05-.08-.11-.08-.16,0-.05.02-.1.07-.15l1.42-1.42s.03-.02.05-.03c.02,0,.04,0,.06,0,.02,0,.05.02.08.04.03.02.06.04.09.08.06.06.1.11.12.16.02.05.01.09-.02.12l-1.15,1.15.9.9c.05-.06.1-.13.16-.19.06-.06.12-.13.2-.2.18-.18.35-.31.53-.4s.35-.14.52-.15.33.02.49.09c.16.07.31.17.45.31h0ZM53.29,154.56s.02.05.02.08,0,.05-.01.07c0,.02-.03.05-.05.08-.02.03-.05.06-.08.09-.04.04-.08.07-.11.09-.03.02-.06.03-.09.04-.03,0-.05,0-.07-.01s-.03-.03-.05-.07l-2.62-5.63s-.02-.05-.02-.08c0-.02,0-.05,0-.07,0-.02.02-.05.05-.08s.05-.06.09-.09c.04-.04.08-.07.11-.09.03-.02.06-.03.09-.04s.05,0,.07.01c.02.01.04.03.05.06l2.62,5.63ZM56.29,149.99s.05.06.07.09.03.05.04.08c0,.02,0,.04,0,.06,0,.02-.01.04-.03.05l-1.78,1.78s-.05.04-.07.05c-.02.01-.05.02-.07.02-.03,0-.05-.01-.08-.03-.03-.02-.06-.05-.1-.08-.03-.03-.06-.06-.08-.09-.02-.03-.04-.05-.05-.08-.01-.03-.02-.06-.03-.09,0-.03,0-.07-.01-.11l-.02-1.3c0-.3-.02-.56-.05-.77-.03-.21-.07-.39-.12-.54s-.11-.27-.17-.37c-.07-.1-.13-.18-.21-.25-.07-.07-.15-.13-.24-.17-.09-.04-.18-.06-.27-.06-.09,0-.19.02-.28.06-.1.04-.19.1-.28.19-.1.1-.18.21-.24.32s-.1.21-.13.31c-.03.1-.05.18-.06.25-.01.07-.03.12-.05.14-.01.01-.03.02-.04.02-.02,0-.03,0-.06,0s-.05-.02-.07-.05-.06-.05-.09-.08c-.02-.02-.05-.05-.06-.07-.02-.02-.03-.04-.04-.06,0-.02-.02-.04-.02-.05,0-.02,0-.05,0-.08,0-.04.01-.1.03-.17.02-.08.05-.17.1-.27s.1-.21.17-.32c.07-.11.15-.21.25-.31.16-.16.31-.27.47-.34.16-.07.32-.11.47-.11.15,0,.3.03.44.09.14.06.27.15.38.27.1.1.2.21.28.33.08.12.16.27.22.45.06.18.11.39.14.65.03.26.05.57.06.94l.02,1.04,1.4-1.4s.03-.02.05-.03.04,0,.07,0c.02,0,.05.02.08.04s.05.04.08.07h0ZM57.51,145.9c.25.25.45.49.62.73.16.24.28.48.33.72.06.24.05.47-.01.69-.07.23-.21.45-.42.66-.2.2-.41.34-.62.4-.21.07-.43.07-.65.02-.22-.06-.46-.17-.7-.34-.24-.17-.49-.39-.76-.65-.25-.25-.45-.49-.62-.73s-.28-.48-.33-.72c-.06-.24-.05-.47.01-.69.07-.23.2-.45.42-.66.2-.2.41-.34.62-.41.21-.07.43-.07.65-.02.22.06.46.17.7.34.24.17.49.39.76.65h0ZM57.11,146.37c-.16-.16-.31-.3-.45-.42-.14-.12-.27-.21-.39-.29s-.23-.13-.34-.17c-.11-.03-.21-.05-.3-.05-.1,0-.19.03-.27.07-.08.04-.17.1-.25.18-.14.14-.22.29-.24.44s0,.31.07.48c.07.17.17.34.3.51.14.17.3.35.47.53.24.24.46.43.65.58.19.14.37.24.53.29.16.05.31.06.44.02.13-.04.26-.11.38-.23.09-.09.16-.19.2-.29.04-.1.06-.2.05-.31,0-.11-.03-.21-.07-.33-.04-.11-.1-.22-.18-.34s-.16-.23-.27-.35c-.1-.12-.21-.24-.33-.36h0ZM61.38,144.9s.05.06.07.09.03.05.04.08c0,.02,0,.04,0,.06,0,.02-.01.04-.03.05l-1.78,1.78s-.05.04-.07.05c-.02.01-.05.02-.07.02-.03,0-.05-.01-.08-.03-.03-.02-.06-.05-.1-.08-.03-.03-.06-.06-.08-.09s-.04-.05-.05-.08c-.01-.03-.02-.06-.03-.09,0-.03,0-.07-.01-.11l-.02-1.3c0-.3-.02-.56-.05-.77-.03-.21-.07-.39-.12-.54-.05-.15-.11-.27-.17-.37-.07-.1-.13-.18-.21-.25-.07-.07-.15-.13-.24-.17-.09-.04-.18-.06-.27-.06s-.19.02-.28.06c-.1.04-.19.1-.28.19-.1.1-.18.21-.24.32s-.1.21-.13.31c-.03.1-.05.18-.06.25s-.03.12-.05.14c-.01.01-.03.02-.04.02s-.03,0-.06,0c-.02,0-.05-.02-.07-.05-.03-.02-.06-.05-.09-.08-.02-.02-.05-.05-.06-.07-.02-.02-.03-.04-.04-.06,0-.02-.02-.04-.02-.05,0-.02,0-.05,0-.08s.01-.1.03-.17c.02-.08.05-.17.1-.27s.1-.21.17-.32c.07-.11.15-.21.25-.31.16-.16.31-.27.47-.34.16-.07.32-.11.47-.11s.3.03.44.09c.14.06.27.15.38.27.1.1.2.21.28.33s.16.27.22.45c.06.18.11.39.14.65.03.26.05.57.06.94l.02,1.04,1.4-1.4s.03-.02.05-.03c.02,0,.04,0,.07,0,.02,0,.05.02.08.04.03.02.05.04.08.07h0ZM63.34,141.48c.05.05.09.11.1.15.01.05,0,.09-.02.12l-.36.36.68.68s.02.03.02.04c0,.02,0,.04-.01.06-.01.02-.03.05-.05.08s-.06.07-.1.11c-.04.04-.08.07-.11.1-.03.02-.06.04-.08.05-.02,0-.04.01-.06,0s-.03-.01-.04-.02l-.68-.68-1.32,1.32s-.04.03-.06.04c-.02,0-.04.01-.06,0-.02,0-.05-.01-.08-.04-.03-.02-.06-.05-.1-.09-.03-.03-.06-.06-.08-.09-.02-.03-.04-.05-.06-.08s-.03-.05-.04-.08c-.01-.03-.02-.06-.03-.09l-.81-3.1s0-.05,0-.07c0-.03.02-.05.04-.09s.05-.07.08-.11c.03-.04.08-.08.13-.14.06-.06.11-.1.15-.14.05-.04.08-.07.12-.08s.06-.03.08-.03.04,0,.06.02l2.05,2.05.36-.36s.07-.04.11-.02c.05.01.1.05.16.11h0ZM60.51,140.43h0s.73,2.8.73,2.8l1.04-1.04-1.77-1.77h0Z"/>
  </g>
  <g class="cls-9">
    <path class="cls-7" d="M72.62,164.24s.06.06.07.09c.02.03.03.05.03.07,0,.02,0,.04,0,.06,0,.02-.01.03-.02.04l-1.68,1.68s-.03.02-.04.02c-.02,0-.03,0-.06,0s-.05-.01-.07-.03c-.03-.02-.06-.04-.09-.07-.03-.03-.05-.06-.07-.08-.02-.03-.03-.05-.03-.07,0-.02,0-.04,0-.06,0-.02.01-.03.02-.05l.67-.67-2.45-2.45-.25.99s-.03.08-.05.11-.03.03-.06.03c-.02,0-.05,0-.08-.03-.03-.02-.06-.05-.1-.09-.03-.03-.05-.05-.07-.08-.02-.02-.03-.04-.04-.06,0-.02-.01-.04-.01-.06,0-.02,0-.04,0-.07l.27-1.22s0-.02.01-.04c0-.01.02-.03.03-.05.01-.02.03-.04.05-.06s.04-.05.07-.08c.04-.04.07-.07.1-.09s.06-.04.08-.05c.02,0,.04-.01.05,0,.01,0,.03.01.04.02l2.83,2.83.58-.58s.03-.02.05-.03c.02,0,.04,0,.06,0s.05.02.07.04.05.04.08.07h0ZM73.81,160.15c.25.25.45.49.62.73.16.24.28.48.33.72.06.24.05.47-.01.69-.07.23-.21.45-.42.66-.2.2-.41.34-.62.4-.21.07-.43.07-.65.02-.22-.06-.46-.17-.7-.34s-.49-.39-.76-.65c-.25-.25-.45-.49-.62-.73-.16-.24-.28-.48-.33-.72-.06-.24-.05-.47.01-.69.07-.23.2-.45.42-.66.2-.2.41-.34.62-.41.21-.07.43-.07.65-.02.22.06.46.17.7.34.24.17.49.39.76.65h0ZM73.41,160.62c-.16-.16-.31-.3-.45-.42-.14-.12-.27-.21-.39-.29-.12-.08-.23-.13-.34-.17-.11-.03-.21-.05-.3-.05s-.19.03-.27.07c-.08.04-.17.1-.25.18-.14.14-.22.29-.24.44-.02.15,0,.31.07.48s.17.34.3.51c.14.17.3.35.47.53.24.24.46.43.65.58.19.14.37.24.53.29.16.05.31.06.44.02s.26-.11.38-.23c.09-.09.16-.19.2-.29.04-.1.06-.2.05-.31,0-.11-.03-.21-.07-.33-.04-.11-.1-.22-.18-.34s-.16-.23-.27-.35c-.1-.12-.21-.24-.33-.36h0ZM76.59,161.81s.02.05.02.08c0,.02,0,.05-.01.07,0,.02-.03.05-.05.08-.02.03-.05.06-.08.09-.04.04-.08.07-.11.09-.03.02-.06.03-.09.04-.03,0-.05,0-.07-.01s-.03-.03-.05-.07l-2.62-5.63s-.02-.05-.02-.08c0-.02,0-.05,0-.07s.02-.05.05-.08c.02-.03.05-.06.09-.09.04-.04.08-.07.11-.09s.06-.03.09-.04.05,0,.07.01c.02.01.04.03.05.06l2.62,5.63ZM79.81,157.02s.05.06.07.09.03.05.04.08c0,.02,0,.04,0,.06s-.01.04-.03.05l-1.78,1.78s-.05.04-.07.05-.05.02-.07.02-.05-.01-.08-.03c-.03-.02-.06-.05-.1-.08-.03-.03-.06-.06-.08-.09-.02-.03-.04-.05-.05-.08-.01-.03-.02-.06-.03-.09,0-.03,0-.07-.01-.11l-.02-1.3c0-.3-.02-.56-.05-.77-.03-.21-.07-.39-.12-.54s-.11-.27-.17-.37c-.07-.1-.13-.18-.21-.25-.07-.07-.15-.13-.24-.17-.09-.04-.18-.06-.27-.06s-.19.02-.28.06c-.1.04-.19.1-.28.19-.1.1-.18.21-.24.32-.05.11-.1.21-.13.31-.03.1-.05.18-.06.25-.01.07-.03.12-.05.14-.01.01-.03.02-.04.02s-.03,0-.06,0c-.02,0-.05-.02-.07-.05-.03-.02-.06-.05-.09-.08-.02-.02-.05-.05-.06-.07-.02-.02-.03-.04-.04-.06,0-.02-.02-.04-.02-.05,0-.02,0-.05,0-.08,0-.04.01-.1.03-.17.02-.08.05-.17.1-.27s.1-.21.17-.32.15-.21.25-.31c.16-.16.31-.27.47-.34.16-.07.32-.11.47-.11.15,0,.3.03.44.09.14.06.27.15.38.27.1.1.2.21.28.33.08.12.16.27.22.45.06.18.11.39.14.65.03.26.05.57.06.94l.02,1.04,1.4-1.4s.03-.02.05-.03.04,0,.07,0c.02,0,.05.02.08.04.03.02.05.04.08.07h0ZM81.49,153.64c.17.17.3.35.37.55.08.19.11.39.09.59-.01.2-.07.39-.17.59-.1.19-.24.38-.42.56-.1.1-.2.19-.3.26-.1.08-.2.14-.29.19-.09.05-.17.09-.23.11-.06.02-.11.04-.13.04-.02,0-.04,0-.06,0s-.03-.01-.05-.02c-.02,0-.04-.02-.06-.04-.02-.02-.05-.04-.08-.07-.03-.03-.05-.05-.07-.08-.02-.02-.03-.05-.04-.07,0-.02,0-.04,0-.05,0-.02,0-.03.02-.04.02-.02.05-.03.11-.05.06-.01.12-.04.21-.07.08-.03.18-.08.29-.15s.22-.16.34-.28c.11-.11.2-.23.27-.35s.1-.24.12-.36c.01-.12,0-.25-.05-.37s-.13-.25-.25-.37c-.1-.1-.21-.18-.32-.22s-.23-.06-.35-.05c-.12.01-.24.06-.37.14-.13.08-.26.19-.41.33-.1.1-.18.19-.25.28-.06.08-.13.16-.19.22-.05.05-.09.07-.13.07-.04,0-.09-.03-.15-.09l-1.31-1.31c-.05-.05-.08-.11-.08-.16,0-.05.02-.1.07-.15l1.42-1.42s.03-.02.05-.03c.02,0,.04,0,.06,0,.02,0,.05.02.08.04.03.02.06.04.09.08.06.06.1.11.12.16.02.05.01.09-.02.12l-1.15,1.15.9.9c.05-.06.1-.13.16-.19s.12-.13.2-.2c.18-.18.35-.31.53-.4.18-.09.35-.14.52-.15s.33.02.49.09c.16.07.31.17.45.31h0ZM83.8,154.59s.02.05.02.08c0,.02,0,.05-.01.07,0,.02-.03.05-.05.08s-.05.06-.08.09c-.04.04-.08.07-.11.09-.03.02-.06.03-.09.04-.03,0-.05,0-.07-.01-.02-.01-.03-.03-.05-.07l-2.62-5.63s-.02-.05-.02-.08,0-.05,0-.07.02-.05.05-.08c.02-.03.05-.06.09-.09.04-.04.08-.07.11-.09s.06-.03.09-.04c.02,0,.05,0,.07.01.02.01.04.03.05.06l2.62,5.63ZM86.81,150.02s.05.06.07.09.03.05.04.08c0,.02,0,.04,0,.06,0,.02-.01.04-.03.05l-1.78,1.78s-.05.04-.07.05c-.02.01-.05.02-.07.02-.03,0-.05-.01-.08-.03-.03-.02-.06-.05-.1-.08-.03-.03-.06-.06-.08-.09-.02-.03-.04-.05-.05-.08-.01-.03-.02-.06-.03-.09,0-.03,0-.07-.01-.11l-.02-1.3c0-.3-.02-.56-.05-.77-.03-.21-.07-.39-.12-.54s-.11-.27-.17-.37c-.07-.1-.13-.18-.21-.25s-.15-.13-.24-.17-.18-.06-.27-.06c-.09,0-.19.02-.28.06-.1.04-.19.1-.28.19-.1.1-.18.21-.24.32-.05.11-.1.21-.13.31-.03.1-.05.18-.06.25s-.03.12-.05.14c-.01.01-.03.02-.04.02-.02,0-.03,0-.06,0-.02,0-.05-.02-.07-.05-.03-.02-.06-.05-.09-.08-.02-.02-.05-.05-.06-.07-.02-.02-.03-.04-.04-.06,0-.02-.02-.04-.02-.05,0-.02,0-.05,0-.08,0-.04.01-.1.03-.17.02-.08.05-.17.1-.27.04-.1.1-.21.17-.32.07-.11.15-.21.25-.31.16-.16.31-.27.47-.34.16-.07.32-.11.47-.11s.3.03.44.09c.14.06.27.15.38.27.1.1.2.21.28.33s.16.27.22.45c.06.18.11.39.14.65.03.26.05.57.06.94l.02,1.04,1.4-1.4s.03-.02.05-.03c.02,0,.04,0,.07,0,.02,0,.05.02.08.04.03.02.05.04.08.07h0ZM88.03,145.94c.25.25.45.49.62.73.16.24.28.48.33.72.06.24.05.47-.01.69-.07.23-.21.45-.42.66-.2.2-.41.34-.62.4-.21.07-.43.07-.65.02s-.46-.17-.7-.34c-.24-.17-.49-.39-.76-.65-.25-.25-.45-.49-.62-.73-.16-.24-.28-.48-.33-.72-.06-.24-.05-.47.01-.69.07-.23.2-.45.42-.66.2-.2.41-.34.62-.41.21-.07.43-.07.65-.02.22.06.46.17.7.34s.49.39.76.65h0ZM87.62,146.4c-.16-.16-.31-.3-.45-.42-.14-.12-.27-.21-.39-.29-.12-.08-.23-.13-.34-.17-.11-.03-.21-.05-.3-.05-.1,0-.19.03-.27.07-.08.04-.17.1-.25.18-.14.14-.22.29-.24.44-.02.15,0,.31.07.48.07.17.17.34.3.51s.3.35.47.53c.24.24.46.43.65.58.19.14.37.24.53.29s.31.06.44.02c.13-.04.26-.11.38-.23.09-.09.16-.19.2-.29.04-.1.06-.2.05-.31,0-.11-.03-.21-.07-.33-.04-.11-.1-.22-.18-.34s-.16-.23-.27-.35-.21-.24-.33-.36h0ZM91.9,144.93s.05.06.07.09c.02.03.03.05.04.08s0,.04,0,.06c0,.02-.01.04-.03.05l-1.78,1.78s-.05.04-.07.05-.05.02-.07.02-.05-.01-.08-.03c-.03-.02-.06-.05-.1-.08-.03-.03-.06-.06-.08-.09-.02-.03-.04-.05-.05-.08s-.02-.06-.03-.09c0-.03,0-.07-.01-.11l-.02-1.3c0-.3-.02-.56-.05-.77-.03-.21-.07-.39-.12-.54s-.11-.27-.17-.37c-.07-.1-.13-.18-.21-.25s-.15-.13-.24-.17c-.09-.04-.18-.06-.27-.06-.09,0-.19.02-.28.06-.1.04-.19.1-.28.19-.1.1-.18.21-.24.32-.05.11-.1.21-.13.31-.03.1-.05.18-.06.25-.01.07-.03.12-.05.14-.01.01-.03.02-.04.02-.02,0-.03,0-.06,0s-.05-.02-.07-.05c-.03-.02-.06-.05-.09-.08-.02-.02-.05-.05-.06-.07s-.03-.04-.04-.06c0-.02-.02-.04-.02-.05,0-.02,0-.05,0-.08s.01-.1.03-.17c.02-.08.05-.17.1-.27.04-.1.1-.21.17-.32s.15-.21.25-.31c.16-.16.31-.27.47-.34.16-.07.32-.11.47-.11s.3.03.44.09c.14.06.27.15.38.27.1.1.2.21.28.33.08.12.16.27.22.45s.11.39.14.65c.03.26.05.57.06.94l.02,1.04,1.4-1.4s.03-.02.05-.03c.02,0,.04,0,.07,0,.02,0,.05.02.08.04.03.02.05.04.08.07h0ZM94.06,141.3c.05.05.09.11.1.15.01.05,0,.09-.02.12l-.36.36.68.68s.02.03.02.04c0,.02,0,.04-.01.06-.01.02-.03.05-.05.08-.02.03-.06.07-.1.11-.04.04-.08.07-.11.1-.03.02-.06.04-.08.05-.02,0-.04.01-.06,0s-.03-.01-.04-.02l-.68-.68-1.32,1.32s-.04.03-.06.04-.04.01-.06,0-.05-.01-.08-.04c-.03-.02-.06-.05-.1-.09-.03-.03-.06-.06-.08-.09-.02-.03-.04-.05-.06-.08s-.03-.05-.04-.08c-.01-.03-.02-.06-.03-.09l-.81-3.1s0-.05,0-.07.02-.05.04-.09.05-.07.08-.11c.03-.04.08-.08.13-.14.06-.06.11-.1.15-.14s.08-.07.12-.08.06-.03.08-.03c.02,0,.04,0,.06.02l2.05,2.05.36-.36s.07-.04.11-.02c.05.01.1.05.16.11h0ZM91.24,140.25h0s.73,2.8.73,2.8l1.04-1.04-1.77-1.77h0Z"/>
  </g>
  <g class="cls-34">
    <path class="cls-7" d="M104.18,164.24s.06.06.07.09c.02.03.03.05.03.07,0,.02,0,.04,0,.06,0,.02-.01.03-.02.04l-1.68,1.68s-.03.02-.04.02c-.02,0-.03,0-.06,0s-.05-.01-.07-.03c-.03-.02-.06-.04-.09-.07-.03-.03-.05-.06-.07-.08-.02-.03-.03-.05-.03-.07,0-.02,0-.04,0-.06,0-.02.01-.03.02-.05l.67-.67-2.45-2.45-.25.99s-.03.08-.05.11-.03.03-.06.03c-.02,0-.05,0-.08-.03-.03-.02-.06-.05-.1-.09-.03-.03-.05-.05-.07-.08-.02-.02-.03-.04-.04-.06,0-.02-.01-.04-.01-.06,0-.02,0-.04,0-.07l.27-1.22s0-.02.01-.04c0-.01.02-.03.03-.05.01-.02.03-.04.05-.06s.04-.05.07-.08c.04-.04.07-.07.1-.09s.06-.04.08-.05c.02,0,.04-.01.05,0,.01,0,.03.01.04.02l2.83,2.83.58-.58s.03-.02.05-.03c.02,0,.04,0,.06,0s.05.02.07.04.05.04.08.07h0ZM106.73,161.7s.06.06.07.09.03.05.03.07,0,.04,0,.06-.01.03-.02.04l-1.68,1.68s-.03.02-.04.02c-.02,0-.03,0-.06,0-.02,0-.05-.01-.07-.03-.03-.02-.06-.04-.09-.07-.03-.03-.05-.06-.07-.08-.02-.03-.03-.05-.03-.07,0-.02,0-.04,0-.06,0-.02.01-.03.02-.05l.67-.67-2.45-2.45-.25.99s-.03.08-.05.11c-.02.02-.03.03-.06.03-.02,0-.05,0-.08-.03-.03-.02-.06-.05-.1-.09-.03-.03-.05-.05-.07-.08s-.03-.04-.04-.06c0-.02-.01-.04-.01-.06,0-.02,0-.04,0-.07l.27-1.22s0-.02.01-.04c0-.01.02-.03.03-.05.01-.02.03-.04.05-.06.02-.02.04-.05.07-.08.04-.04.07-.07.1-.09.03-.02.06-.04.08-.05s.04-.01.05,0c.01,0,.03.01.04.02l2.83,2.83.58-.58s.03-.02.05-.03.04,0,.06,0,.05.02.07.04c.03.02.05.04.08.07h0ZM108.16,161.81s.02.05.02.08c0,.02,0,.05-.01.07,0,.02-.03.05-.05.08-.02.03-.05.06-.08.09-.04.04-.08.07-.11.09-.03.02-.06.03-.09.04-.03,0-.05,0-.07-.01s-.03-.03-.05-.07l-2.62-5.63s-.02-.05-.02-.08c0-.02,0-.05,0-.07s.02-.05.05-.08c.02-.03.05-.06.09-.09.04-.04.08-.07.11-.09s.06-.03.09-.04.05,0,.07.01c.02.01.04.03.05.06l2.62,5.63ZM111.37,157.02s.05.06.07.09.03.05.04.08c0,.02,0,.04,0,.06s-.01.04-.03.05l-1.78,1.78s-.05.04-.07.05-.05.02-.07.02-.05-.01-.08-.03c-.03-.02-.06-.05-.1-.08-.03-.03-.06-.06-.08-.09-.02-.03-.04-.05-.05-.08-.01-.03-.02-.06-.03-.09,0-.03,0-.07-.01-.11l-.02-1.3c0-.3-.02-.56-.05-.77-.03-.21-.07-.39-.12-.54s-.11-.27-.17-.37c-.07-.1-.13-.18-.21-.25-.07-.07-.15-.13-.24-.17-.09-.04-.18-.06-.27-.06s-.19.02-.28.06c-.1.04-.19.1-.28.19-.1.1-.18.21-.24.32-.05.11-.1.21-.13.31-.03.1-.05.18-.06.25-.01.07-.03.12-.05.14-.01.01-.03.02-.04.02s-.03,0-.06,0c-.02,0-.05-.02-.07-.05-.03-.02-.06-.05-.09-.08-.02-.02-.05-.05-.06-.07-.02-.02-.03-.04-.04-.06,0-.02-.02-.04-.02-.05,0-.02,0-.05,0-.08,0-.04.01-.1.03-.17.02-.08.05-.17.1-.27s.1-.21.17-.32.15-.21.25-.31c.16-.16.31-.27.47-.34.16-.07.32-.11.47-.11.15,0,.3.03.44.09.14.06.27.15.38.27.1.1.2.21.28.33.08.12.16.27.22.45.06.18.11.39.14.65.03.26.05.57.06.94l.02,1.04,1.4-1.4s.03-.02.05-.03.04,0,.07,0c.02,0,.05.02.08.04.03.02.05.04.08.07h0ZM113.05,153.64c.17.17.3.35.37.55.08.19.11.39.09.59-.01.2-.07.39-.17.59-.1.19-.24.38-.42.56-.1.1-.2.19-.3.26-.1.08-.2.14-.29.19-.09.05-.17.09-.23.11-.06.02-.11.04-.13.04-.02,0-.04,0-.06,0s-.03-.01-.05-.02c-.02,0-.04-.02-.06-.04-.02-.02-.05-.04-.08-.07-.03-.03-.05-.05-.07-.08-.02-.02-.03-.05-.04-.07,0-.02,0-.04,0-.05,0-.02,0-.03.02-.04.02-.02.05-.03.11-.05.06-.01.12-.04.21-.07.08-.03.18-.08.29-.15s.22-.16.34-.28c.11-.11.2-.23.27-.35s.1-.24.12-.36c.01-.12,0-.25-.05-.37s-.13-.25-.25-.37c-.1-.1-.21-.18-.32-.22s-.23-.06-.35-.05c-.12.01-.24.06-.37.14-.13.08-.26.19-.41.33-.1.1-.18.19-.25.28-.06.08-.13.16-.19.22-.05.05-.09.07-.13.07-.04,0-.09-.03-.15-.09l-1.31-1.31c-.05-.05-.08-.11-.08-.16,0-.05.02-.1.07-.15l1.42-1.42s.03-.02.05-.03c.02,0,.04,0,.06,0,.02,0,.05.02.08.04.03.02.06.04.09.08.06.06.1.11.12.16.02.05.01.09-.02.12l-1.15,1.15.9.9c.05-.06.1-.13.16-.19s.12-.13.2-.2c.18-.18.35-.31.53-.4.18-.09.35-.14.52-.15s.33.02.49.09c.16.07.31.17.45.31h0ZM115.37,154.59s.02.05.02.08c0,.02,0,.05-.01.07,0,.02-.03.05-.05.08s-.05.06-.08.09c-.04.04-.08.07-.11.09-.03.02-.06.03-.09.04-.03,0-.05,0-.07-.01-.02-.01-.03-.03-.05-.07l-2.62-5.63s-.02-.05-.02-.08,0-.05,0-.07.02-.05.05-.08c.02-.03.05-.06.09-.09.04-.04.08-.07.11-.09s.06-.03.09-.04c.02,0,.05,0,.07.01.02.01.04.03.05.06l2.62,5.63ZM118.37,150.02s.05.06.07.09.03.05.04.08c0,.02,0,.04,0,.06,0,.02-.01.04-.03.05l-1.78,1.78s-.05.04-.07.05c-.02.01-.05.02-.07.02-.03,0-.05-.01-.08-.03-.03-.02-.06-.05-.1-.08-.03-.03-.06-.06-.08-.09-.02-.03-.04-.05-.05-.08-.01-.03-.02-.06-.03-.09,0-.03,0-.07-.01-.11l-.02-1.3c0-.3-.02-.56-.05-.77-.03-.21-.07-.39-.12-.54s-.11-.27-.17-.37c-.07-.1-.13-.18-.21-.25s-.15-.13-.24-.17-.18-.06-.27-.06c-.09,0-.19.02-.28.06-.1.04-.19.1-.28.19-.1.1-.18.21-.24.32-.05.11-.1.21-.13.31-.03.1-.05.18-.06.25s-.03.12-.05.14c-.01.01-.03.02-.04.02-.02,0-.03,0-.06,0-.02,0-.05-.02-.07-.05-.03-.02-.06-.05-.09-.08-.02-.02-.05-.05-.06-.07-.02-.02-.03-.04-.04-.06,0-.02-.02-.04-.02-.05,0-.02,0-.05,0-.08,0-.04.01-.1.03-.17.02-.08.05-.17.1-.27.04-.1.1-.21.17-.32.07-.11.15-.21.25-.31.16-.16.31-.27.47-.34.16-.07.32-.11.47-.11s.3.03.44.09c.14.06.27.15.38.27.1.1.2.21.28.33s.16.27.22.45c.06.18.11.39.14.65.03.26.05.57.06.94l.02,1.04,1.4-1.4s.03-.02.05-.03c.02,0,.04,0,.07,0,.02,0,.05.02.08.04.03.02.05.04.08.07h0ZM119.59,145.94c.25.25.45.49.62.73.16.24.28.48.33.72.06.24.05.47-.01.69-.07.23-.21.45-.42.66-.2.2-.41.34-.62.4-.21.07-.43.07-.65.02s-.46-.17-.7-.34c-.24-.17-.49-.39-.76-.65-.25-.25-.45-.49-.62-.73-.16-.24-.28-.48-.33-.72-.06-.24-.05-.47.01-.69.07-.23.2-.45.42-.66.2-.2.41-.34.62-.41.21-.07.43-.07.65-.02.22.06.46.17.7.34s.49.39.76.65h0ZM119.19,146.4c-.16-.16-.31-.3-.45-.42-.14-.12-.27-.21-.39-.29-.12-.08-.23-.13-.34-.17-.11-.03-.21-.05-.3-.05-.1,0-.19.03-.27.07-.08.04-.17.1-.25.18-.14.14-.22.29-.24.44-.02.15,0,.31.07.48.07.17.17.34.3.51s.3.35.47.53c.24.24.46.43.65.58.19.14.37.24.53.29s.31.06.44.02c.13-.04.26-.11.38-.23.09-.09.16-.19.2-.29.04-.1.06-.2.05-.31,0-.11-.03-.21-.07-.33-.04-.11-.1-.22-.18-.34s-.16-.23-.27-.35-.21-.24-.33-.36h0ZM123.46,144.93s.05.06.07.09c.02.03.03.05.04.08s0,.04,0,.06c0,.02-.01.04-.03.05l-1.78,1.78s-.05.04-.07.05-.05.02-.07.02-.05-.01-.08-.03c-.03-.02-.06-.05-.1-.08-.03-.03-.06-.06-.08-.09-.02-.03-.04-.05-.05-.08s-.02-.06-.03-.09c0-.03,0-.07-.01-.11l-.02-1.3c0-.3-.02-.56-.05-.77-.03-.21-.07-.39-.12-.54s-.11-.27-.17-.37c-.07-.1-.13-.18-.21-.25s-.15-.13-.24-.17c-.09-.04-.18-.06-.27-.06-.09,0-.19.02-.28.06-.1.04-.19.1-.28.19-.1.1-.18.21-.24.32-.05.11-.1.21-.13.31-.03.1-.05.18-.06.25-.01.07-.03.12-.05.14-.01.01-.03.02-.04.02-.02,0-.03,0-.06,0s-.05-.02-.07-.05c-.03-.02-.06-.05-.09-.08-.02-.02-.05-.05-.06-.07s-.03-.04-.04-.06c0-.02-.02-.04-.02-.05,0-.02,0-.05,0-.08s.01-.1.03-.17c.02-.08.05-.17.1-.27.04-.1.1-.21.17-.32s.15-.21.25-.31c.16-.16.31-.27.47-.34.16-.07.32-.11.47-.11s.3.03.44.09c.14.06.27.15.38.27.1.1.2.21.28.33.08.12.16.27.22.45s.11.39.14.65c.03.26.05.57.06.94l.02,1.04,1.4-1.4s.03-.02.05-.03c.02,0,.04,0,.07,0,.02,0,.05.02.08.04.03.02.05.04.08.07h0ZM125.63,141.3c.05.05.09.11.1.15.01.05,0,.09-.02.12l-.36.36.68.68s.02.03.02.04c0,.02,0,.04-.01.06-.01.02-.03.05-.05.08-.02.03-.06.07-.1.11-.04.04-.08.07-.11.1-.03.02-.06.04-.08.05-.02,0-.04.01-.06,0s-.03-.01-.04-.02l-.68-.68-1.32,1.32s-.04.03-.06.04-.04.01-.06,0-.05-.01-.08-.04c-.03-.02-.06-.05-.1-.09-.03-.03-.06-.06-.08-.09-.02-.03-.04-.05-.06-.08s-.03-.05-.04-.08c-.01-.03-.02-.06-.03-.09l-.81-3.1s0-.05,0-.07.02-.05.04-.09.05-.07.08-.11c.03-.04.08-.08.13-.14.06-.06.11-.1.15-.14s.08-.07.12-.08.06-.03.08-.03c.02,0,.04,0,.06.02l2.05,2.05.36-.36s.07-.04.11-.02c.05.01.1.05.16.11h0ZM122.8,140.25h0s.73,2.8.73,2.8l1.04-1.04-1.77-1.77h0Z"/>
  </g>
  <g class="cls-27">
    <path class="cls-7" d="M134.73,164.24s.06.06.07.09.03.05.03.07c0,.02,0,.04,0,.06,0,.02-.01.03-.02.04l-1.68,1.68s-.03.02-.04.02-.03,0-.06,0-.05-.01-.07-.03-.06-.04-.09-.07c-.03-.03-.05-.06-.07-.08s-.03-.05-.03-.07c0-.02,0-.04,0-.06,0-.02.01-.03.02-.05l.67-.67-2.45-2.45-.25.99s-.03.08-.05.11-.03.03-.06.03-.05,0-.08-.03c-.03-.02-.06-.05-.1-.09-.03-.03-.05-.05-.07-.08-.02-.02-.03-.04-.04-.06,0-.02-.01-.04-.01-.06,0-.02,0-.04,0-.07l.27-1.22s0-.02.01-.04.02-.03.03-.05c.01-.02.03-.04.05-.06s.04-.05.07-.08c.04-.04.07-.07.1-.09.03-.02.06-.04.08-.05.02,0,.04-.01.05,0,.01,0,.03.01.04.02l2.83,2.83.58-.58s.03-.02.05-.03c.02,0,.04,0,.06,0s.05.02.07.04c.03.02.05.04.08.07h0ZM137.25,161.69s.05.06.07.09.03.05.04.08c0,.02,0,.04,0,.06,0,.02-.01.04-.03.05l-1.78,1.78s-.05.04-.07.05c-.02.01-.05.02-.07.02-.03,0-.05-.01-.08-.03-.03-.02-.06-.05-.1-.08-.03-.03-.06-.06-.08-.09-.02-.03-.04-.05-.05-.08-.01-.03-.02-.06-.03-.09,0-.03,0-.07-.01-.11l-.02-1.3c0-.3-.02-.56-.05-.77-.03-.21-.07-.39-.12-.54s-.11-.27-.17-.37c-.07-.1-.13-.18-.21-.25s-.15-.13-.24-.17c-.09-.04-.18-.06-.27-.06-.09,0-.19.02-.28.06-.1.04-.19.1-.28.19-.1.1-.18.21-.24.32-.05.11-.1.21-.13.31-.03.1-.05.18-.06.25-.01.07-.03.12-.05.14-.01.01-.03.02-.04.02-.02,0-.03,0-.06,0-.02,0-.05-.02-.07-.05-.03-.02-.06-.05-.09-.08-.02-.02-.05-.05-.06-.07-.02-.02-.03-.04-.04-.06,0-.02-.02-.04-.02-.05,0-.02,0-.05,0-.08s.01-.1.03-.17c.02-.08.05-.17.1-.27.04-.1.1-.21.17-.32.07-.11.15-.21.25-.31.16-.16.31-.27.47-.34.16-.07.32-.11.47-.11.15,0,.3.03.44.09.14.06.27.15.38.27.1.1.2.21.28.33.08.12.16.27.22.45.06.18.11.39.14.65.03.26.05.57.06.94l.02,1.04,1.4-1.4s.03-.02.05-.03c.02,0,.04,0,.07,0s.05.02.08.04c.03.02.05.04.08.07h0ZM138.7,161.81s.02.05.02.08c0,.02,0,.05-.01.07,0,.02-.03.05-.05.08-.02.03-.05.06-.08.09-.04.04-.08.07-.11.09-.03.02-.06.03-.09.04-.03,0-.05,0-.07-.01s-.03-.03-.05-.07l-2.62-5.63s-.02-.05-.02-.08c0-.02,0-.05,0-.07s.02-.05.05-.08.05-.06.09-.09c.04-.04.08-.07.11-.09s.06-.03.09-.04.05,0,.07.01c.02.01.04.03.05.06l2.62,5.63ZM141.92,157.02s.05.06.07.09c.02.03.03.05.04.08s0,.04,0,.06c0,.02-.01.04-.03.05l-1.78,1.78s-.05.04-.07.05c-.02.01-.05.02-.07.02-.03,0-.05-.01-.08-.03-.03-.02-.06-.05-.1-.08-.03-.03-.06-.06-.08-.09-.02-.03-.04-.05-.05-.08s-.02-.06-.03-.09c0-.03,0-.07-.01-.11l-.02-1.3c0-.3-.02-.56-.05-.77-.03-.21-.07-.39-.12-.54-.05-.15-.11-.27-.17-.37-.07-.1-.13-.18-.21-.25-.07-.07-.15-.13-.24-.17-.09-.04-.18-.06-.27-.06-.09,0-.19.02-.28.06-.1.04-.19.1-.28.19-.1.1-.18.21-.24.32s-.1.21-.13.31c-.03.1-.05.18-.06.25-.01.07-.03.12-.05.14-.01.01-.03.02-.04.02s-.03,0-.06,0c-.02,0-.05-.02-.07-.05s-.06-.05-.09-.08c-.02-.02-.05-.05-.06-.07s-.03-.04-.04-.06c0-.02-.02-.04-.02-.05,0-.02,0-.05,0-.08s.01-.1.03-.17c.02-.08.05-.17.1-.27.04-.1.1-.21.17-.32.07-.11.15-.21.25-.31.16-.16.31-.27.47-.34.16-.07.32-.11.47-.11.15,0,.3.03.44.09.14.06.27.15.38.27.1.1.2.21.28.33.08.12.16.27.22.45.06.18.11.39.14.65.03.26.05.57.06.94l.02,1.04,1.4-1.4s.03-.02.05-.03.04,0,.07,0,.05.02.08.04.05.04.08.07h0ZM143.6,153.64c.17.17.3.35.37.55.08.19.11.39.09.59s-.07.39-.17.59c-.1.19-.24.38-.42.56-.1.1-.2.19-.3.26-.1.08-.2.14-.29.19s-.17.09-.23.11c-.06.02-.11.04-.13.04-.02,0-.04,0-.06,0-.01,0-.03-.01-.05-.02-.02,0-.04-.02-.06-.04-.02-.02-.05-.04-.08-.07-.03-.03-.05-.05-.07-.08-.02-.02-.03-.05-.04-.07s0-.04,0-.05,0-.03.02-.04c.02-.02.05-.03.11-.05.06-.01.12-.04.21-.07.08-.03.18-.08.29-.15s.22-.16.34-.28c.11-.11.2-.23.27-.35.07-.12.1-.24.12-.36.01-.12,0-.25-.05-.37-.05-.12-.13-.25-.25-.37-.1-.1-.21-.18-.32-.22s-.23-.06-.35-.05c-.12.01-.24.06-.37.14-.13.08-.26.19-.41.33-.1.1-.18.19-.25.28-.06.08-.13.16-.19.22-.05.05-.09.07-.13.07-.04,0-.09-.03-.15-.09l-1.31-1.31c-.05-.05-.08-.11-.08-.16s.02-.1.07-.15l1.42-1.42s.03-.02.05-.03c.02,0,.04,0,.06,0,.02,0,.05.02.08.04.03.02.06.04.09.08.06.06.1.11.12.16.02.05.01.09-.02.12l-1.15,1.15.9.9c.05-.06.1-.13.16-.19.06-.06.12-.13.2-.2.18-.18.35-.31.53-.4.18-.09.35-.14.52-.15s.33.02.49.09c.16.07.31.17.45.31h0ZM145.92,154.59s.02.05.02.08c0,.02,0,.05-.01.07,0,.02-.03.05-.05.08-.02.03-.05.06-.08.09-.04.04-.08.07-.11.09-.03.02-.06.03-.09.04-.03,0-.05,0-.07-.01-.02-.01-.03-.03-.05-.07l-2.62-5.63s-.02-.05-.02-.08,0-.05,0-.07.02-.05.05-.08c.02-.03.05-.06.09-.09.04-.04.08-.07.11-.09s.06-.03.09-.04c.02,0,.05,0,.07.01.02.01.04.03.05.06l2.62,5.63ZM148.92,150.02s.05.06.07.09.03.05.04.08c0,.02,0,.04,0,.06,0,.02-.01.04-.03.05l-1.78,1.78s-.05.04-.07.05c-.02.01-.05.02-.07.02-.03,0-.05-.01-.08-.03-.03-.02-.06-.05-.1-.08-.03-.03-.06-.06-.08-.09-.02-.03-.04-.05-.05-.08s-.02-.06-.03-.09c0-.03,0-.07-.01-.11l-.02-1.3c0-.3-.02-.56-.05-.77-.03-.21-.07-.39-.12-.54s-.11-.27-.17-.37c-.07-.1-.13-.18-.21-.25-.07-.07-.15-.13-.24-.17-.09-.04-.18-.06-.27-.06-.09,0-.19.02-.28.06s-.19.1-.28.19c-.1.1-.18.21-.24.32-.05.11-.1.21-.13.31-.03.1-.05.18-.06.25s-.03.12-.05.14c-.01.01-.03.02-.04.02-.02,0-.03,0-.06,0-.02,0-.05-.02-.07-.05-.03-.02-.06-.05-.09-.08-.02-.02-.05-.05-.06-.07-.02-.02-.03-.04-.04-.06,0-.02-.02-.04-.02-.05,0-.02,0-.05,0-.08,0-.04.01-.1.03-.17.02-.08.05-.17.1-.27.04-.1.1-.21.17-.32.07-.11.15-.21.25-.31.16-.16.31-.27.47-.34.16-.07.32-.11.47-.11s.3.03.44.09c.14.06.27.15.38.27.1.1.2.21.28.33s.16.27.22.45c.06.18.11.39.14.65.03.26.05.57.06.94l.02,1.04,1.4-1.4s.03-.02.05-.03c.02,0,.04,0,.07,0s.05.02.08.04c.03.02.05.04.08.07h0ZM150.14,145.94c.25.25.45.49.62.73.16.24.28.48.33.72.06.24.05.47-.01.69s-.21.45-.42.66c-.2.2-.41.34-.62.4-.21.07-.43.07-.65.02s-.46-.17-.7-.34c-.24-.17-.49-.39-.76-.65-.25-.25-.45-.49-.62-.73-.16-.24-.28-.48-.33-.72-.06-.24-.05-.47.01-.69.07-.23.2-.45.42-.66.2-.2.41-.34.62-.41.21-.07.43-.07.65-.02s.46.17.7.34c.24.17.49.39.76.65h0ZM149.73,146.4c-.16-.16-.31-.3-.45-.42-.14-.12-.27-.21-.39-.29-.12-.08-.23-.13-.34-.17-.11-.03-.21-.05-.3-.05-.1,0-.19.03-.27.07s-.17.1-.25.18c-.14.14-.22.29-.24.44-.02.15,0,.31.07.48.07.17.17.34.3.51s.3.35.47.53c.24.24.46.43.65.58.19.14.37.24.53.29.16.05.31.06.44.02.13-.04.26-.11.38-.23.09-.09.16-.19.2-.29.04-.1.06-.2.05-.31,0-.11-.03-.21-.07-.33-.04-.11-.1-.22-.18-.34s-.16-.23-.27-.35-.21-.24-.33-.36h0ZM154.01,144.93s.05.06.07.09c.02.03.03.05.04.08s0,.04,0,.06-.01.04-.03.05l-1.78,1.78s-.05.04-.07.05-.05.02-.07.02-.05-.01-.08-.03c-.03-.02-.06-.05-.1-.08-.03-.03-.06-.06-.08-.09-.02-.03-.04-.05-.05-.08s-.02-.06-.03-.09c0-.03,0-.07-.01-.11l-.02-1.3c0-.3-.02-.56-.05-.77-.03-.21-.07-.39-.12-.54s-.11-.27-.17-.37c-.07-.1-.13-.18-.21-.25-.07-.07-.15-.13-.24-.17-.09-.04-.18-.06-.27-.06-.09,0-.19.02-.28.06-.1.04-.19.1-.28.19-.1.1-.18.21-.24.32s-.1.21-.13.31c-.03.1-.05.18-.06.25-.01.07-.03.12-.05.14-.01.01-.03.02-.04.02-.02,0-.03,0-.06,0s-.05-.02-.07-.05c-.03-.02-.06-.05-.09-.08-.02-.02-.05-.05-.06-.07s-.03-.04-.04-.06c0-.02-.02-.04-.02-.05,0-.02,0-.05,0-.08s.01-.1.03-.17c.02-.08.05-.17.1-.27.04-.1.1-.21.17-.32.07-.11.15-.21.25-.31.16-.16.31-.27.47-.34.16-.07.32-.11.47-.11.15,0,.3.03.44.09s.27.15.38.27c.1.1.2.21.28.33s.16.27.22.45.11.39.14.65c.03.26.05.57.06.94l.02,1.04,1.4-1.4s.03-.02.05-.03c.02,0,.04,0,.07,0,.02,0,.05.02.08.04.03.02.05.04.08.07h0ZM156.18,141.3c.05.05.09.11.1.15.01.05,0,.09-.02.12l-.36.36.68.68s.02.03.02.04c0,.02,0,.04-.01.06s-.03.05-.05.08c-.02.03-.06.07-.1.11-.04.04-.08.07-.11.1-.03.02-.06.04-.08.05-.02,0-.04.01-.06,0-.02,0-.03-.01-.04-.02l-.68-.68-1.32,1.32s-.04.03-.06.04-.04.01-.06,0c-.02,0-.05-.01-.08-.04-.03-.02-.06-.05-.1-.09-.03-.03-.06-.06-.08-.09-.02-.03-.04-.05-.06-.08s-.03-.05-.04-.08-.02-.06-.03-.09l-.81-3.1s0-.05,0-.07c0-.03.02-.05.04-.09s.05-.07.08-.11c.03-.04.08-.08.13-.14.06-.06.11-.1.15-.14s.08-.07.12-.08.06-.03.08-.03c.02,0,.04,0,.06.02l2.05,2.05.36-.36s.07-.04.11-.02c.05.01.1.05.16.11h0ZM153.35,140.25h0s.73,2.8.73,2.8l1.04-1.04-1.76-1.77h0Z"/>
  </g>
  <g class="cls-1">
    <path class="cls-7" d="M168.88,161.66s.06.06.07.09.03.05.03.07c0,.02,0,.04,0,.06,0,.02-.01.03-.02.04l-1.68,1.68s-.03.02-.04.02-.03,0-.06,0-.05-.01-.07-.03-.06-.04-.09-.07c-.03-.03-.05-.06-.07-.08s-.03-.05-.03-.07c0-.02,0-.04,0-.06,0-.02.01-.03.02-.05l.67-.67-2.45-2.45-.25.99s-.03.08-.05.11-.03.03-.06.03-.05,0-.08-.03c-.03-.02-.06-.05-.1-.09-.03-.03-.05-.05-.07-.08-.02-.02-.03-.04-.04-.06,0-.02-.01-.04-.01-.06,0-.02,0-.04,0-.07l.27-1.22s0-.02.01-.04.02-.03.03-.05c.01-.02.03-.04.05-.06s.04-.05.07-.08c.04-.04.07-.07.1-.09.03-.02.06-.04.08-.05.02,0,.04-.01.05,0,.01,0,.03.01.04.02l2.83,2.83.58-.58s.03-.02.05-.03c.02,0,.04,0,.06,0s.05.02.07.04c.03.02.05.04.08.07h0ZM170.3,161.77s.02.05.02.08c0,.02,0,.05-.01.07,0,.02-.03.05-.05.08-.02.03-.05.06-.08.09-.04.04-.08.07-.11.09s-.06.03-.09.04c-.03,0-.05,0-.07-.01-.02-.01-.03-.03-.05-.07l-2.62-5.63s-.02-.05-.02-.08c0-.02,0-.05,0-.07,0-.02.02-.05.05-.08.02-.03.05-.06.09-.09.04-.04.08-.07.11-.09.03-.02.06-.03.09-.04.02,0,.05,0,.07.01.02.01.04.03.05.06l2.62,5.63ZM173.31,157.2s.05.06.07.09c.02.03.03.05.04.08s0,.04,0,.06-.01.04-.03.05l-1.78,1.78s-.05.04-.07.05c-.02.01-.05.02-.07.02-.03,0-.05-.01-.08-.03-.03-.02-.06-.05-.1-.08-.03-.03-.06-.06-.08-.09-.02-.03-.04-.05-.05-.08s-.02-.06-.03-.09c0-.03,0-.07-.01-.11l-.02-1.3c0-.3-.02-.56-.05-.77-.03-.21-.07-.39-.12-.54s-.11-.27-.17-.37c-.07-.1-.13-.18-.21-.25-.07-.07-.15-.13-.24-.17-.09-.04-.18-.06-.27-.06-.09,0-.19.02-.28.06-.1.04-.19.1-.28.19-.1.1-.18.21-.24.32-.05.11-.1.21-.13.31-.03.1-.05.18-.06.25-.01.07-.03.12-.05.14-.01.01-.03.02-.04.02-.02,0-.03,0-.06,0-.02,0-.05-.02-.07-.05-.03-.02-.06-.05-.09-.08-.02-.02-.05-.05-.06-.07s-.03-.04-.04-.06c0-.02-.02-.04-.02-.05,0-.02,0-.05,0-.08s.01-.1.03-.17c.02-.08.05-.17.1-.27.04-.1.1-.21.17-.32.07-.11.15-.21.25-.31.16-.16.31-.27.47-.34.16-.07.32-.11.47-.11s.3.03.44.09.27.15.38.27c.1.1.2.21.28.33.08.12.16.27.22.45s.11.39.14.65c.03.26.05.57.06.94l.02,1.04,1.4-1.4s.03-.02.05-.03c.02,0,.04,0,.07,0,.02,0,.05.02.08.04.03.02.05.04.08.07h0ZM175.2,153.61c.17.17.3.35.37.55.08.19.11.39.09.59-.01.2-.07.39-.17.59-.1.19-.24.38-.42.56-.1.1-.2.19-.3.26s-.2.14-.29.19c-.09.05-.17.09-.23.11-.06.02-.11.04-.13.04s-.04,0-.06,0c-.01,0-.03-.01-.05-.02-.02,0-.04-.02-.06-.04-.02-.02-.05-.04-.08-.07-.03-.03-.05-.05-.07-.08-.02-.02-.03-.05-.04-.07,0-.02,0-.04,0-.05,0-.02,0-.03.02-.04.02-.02.05-.03.11-.05.06-.01.12-.04.21-.07.08-.03.18-.08.29-.15s.22-.16.34-.28c.11-.11.2-.23.27-.35.07-.12.1-.24.12-.36s0-.25-.05-.37c-.05-.12-.13-.25-.25-.37-.1-.1-.21-.18-.32-.22-.11-.05-.23-.06-.35-.05s-.24.06-.37.14c-.13.08-.26.19-.41.33-.1.1-.18.19-.25.28s-.13.16-.19.22c-.05.05-.09.07-.13.07-.04,0-.09-.03-.15-.09l-1.31-1.31c-.05-.05-.08-.11-.08-.16,0-.05.02-.1.07-.15l1.42-1.42s.03-.02.05-.03.04,0,.06,0c.02,0,.05.02.08.04.03.02.06.04.09.08.06.06.1.11.12.16s.01.09-.02.12l-1.15,1.15.9.9c.05-.06.1-.13.16-.19.06-.06.12-.13.2-.2.18-.18.35-.31.53-.4s.35-.14.52-.15.33.02.49.09c.16.07.31.17.45.31h0ZM177.52,154.56s.02.05.02.08c0,.02,0,.05-.01.07s-.03.05-.05.08c-.02.03-.05.06-.08.09-.04.04-.08.07-.11.09s-.06.03-.09.04c-.03,0-.05,0-.07-.01s-.03-.03-.05-.07l-2.62-5.63s-.02-.05-.02-.08c0-.02,0-.05,0-.07,0-.02.02-.05.05-.08s.05-.06.09-.09c.04-.04.08-.07.11-.09s.06-.03.09-.04.05,0,.07.01c.02.01.04.03.05.06l2.62,5.63ZM180.52,149.99s.05.06.07.09c.02.03.03.05.04.08s0,.04,0,.06c0,.02-.01.04-.03.05l-1.78,1.78s-.05.04-.07.05c-.02.01-.05.02-.07.02-.03,0-.05-.01-.08-.03-.03-.02-.06-.05-.1-.08-.03-.03-.06-.06-.08-.09-.02-.03-.04-.05-.05-.08s-.02-.06-.03-.09c0-.03,0-.07-.01-.11l-.02-1.3c0-.3-.02-.56-.05-.77-.03-.21-.07-.39-.12-.54-.05-.15-.11-.27-.17-.37-.07-.1-.13-.18-.21-.25s-.15-.13-.24-.17c-.09-.04-.18-.06-.27-.06-.09,0-.19.02-.28.06-.1.04-.19.1-.28.19-.1.1-.18.21-.24.32s-.1.21-.13.31c-.03.1-.05.18-.06.25-.01.07-.03.12-.05.14-.01.01-.03.02-.04.02-.02,0-.03,0-.06,0-.02,0-.05-.02-.07-.05s-.06-.05-.09-.08c-.02-.02-.05-.05-.06-.07s-.03-.04-.04-.06c0-.02-.02-.04-.02-.05,0-.02,0-.05,0-.08s.01-.1.03-.17c.02-.08.05-.17.1-.27.04-.1.1-.21.17-.32.07-.11.15-.21.25-.31.16-.16.31-.27.47-.34.16-.07.32-.11.47-.11.15,0,.3.03.44.09.14.06.27.15.38.27.1.1.2.21.28.33.08.12.16.27.22.45.06.18.11.39.14.65.03.26.05.57.06.94l.02,1.04,1.4-1.4s.03-.02.05-.03.04,0,.07,0,.05.02.08.04.05.04.08.07h0ZM181.74,145.9c.25.25.45.49.62.73s.28.48.33.72c.06.24.05.47-.01.69s-.21.45-.42.66c-.2.2-.41.34-.62.4-.21.07-.43.07-.65.02-.22-.06-.46-.17-.7-.34-.24-.17-.49-.39-.76-.65-.25-.25-.45-.49-.62-.73s-.28-.48-.33-.72-.05-.47.01-.69.2-.45.42-.66c.2-.2.41-.34.62-.41.21-.07.43-.07.65-.02s.46.17.7.34c.24.17.49.39.76.65h0ZM181.34,146.37c-.16-.16-.31-.3-.45-.42-.14-.12-.27-.21-.39-.29-.12-.08-.23-.13-.34-.17-.11-.03-.21-.05-.3-.05s-.19.03-.27.07c-.08.04-.17.1-.25.18-.14.14-.22.29-.24.44s0,.31.07.48c.07.17.17.34.3.51.14.17.3.35.47.53.24.24.46.43.65.58.19.14.37.24.53.29.16.05.31.06.44.02.13-.04.26-.11.38-.23.09-.09.16-.19.2-.29.04-.1.06-.2.05-.31,0-.11-.03-.21-.07-.33-.04-.11-.1-.22-.18-.34-.07-.11-.16-.23-.27-.35-.1-.12-.21-.24-.33-.36h0ZM185.61,144.9s.05.06.07.09.03.05.04.08c0,.02,0,.04,0,.06,0,.02-.01.04-.03.05l-1.78,1.78s-.05.04-.07.05c-.02.01-.05.02-.07.02-.03,0-.05-.01-.08-.03-.03-.02-.06-.05-.1-.08-.03-.03-.06-.06-.08-.09s-.04-.05-.05-.08-.02-.06-.03-.09c0-.03,0-.07-.01-.11l-.02-1.3c0-.3-.02-.56-.05-.77-.03-.21-.07-.39-.12-.54-.05-.15-.11-.27-.17-.37-.07-.1-.13-.18-.21-.25-.07-.07-.15-.13-.24-.17-.09-.04-.18-.06-.27-.06-.09,0-.19.02-.28.06s-.19.1-.28.19c-.1.1-.18.21-.24.32-.05.11-.1.21-.13.31-.03.1-.05.18-.06.25-.01.07-.03.12-.05.14-.01.01-.03.02-.04.02s-.03,0-.06,0c-.02,0-.05-.02-.07-.05-.03-.02-.06-.05-.09-.08-.02-.02-.05-.05-.06-.07-.02-.02-.03-.04-.04-.06,0-.02-.02-.04-.02-.05,0-.02,0-.05,0-.08s.01-.1.03-.17c.02-.08.05-.17.1-.27.04-.1.1-.21.17-.32.07-.11.15-.21.25-.31.16-.16.31-.27.47-.34.16-.07.32-.11.47-.11.15,0,.3.03.44.09.14.06.27.15.38.27.1.1.2.21.28.33s.16.27.22.45.11.39.14.65c.03.26.05.57.06.94l.02,1.04,1.4-1.4s.03-.02.05-.03.04,0,.07,0c.02,0,.05.02.08.04.03.02.05.04.08.07h0ZM187.29,141.52c.17.17.3.35.37.55s.11.39.09.59c-.01.2-.07.39-.17.59-.1.19-.24.38-.42.56-.1.1-.2.19-.3.26s-.2.14-.29.19c-.09.05-.17.09-.23.11-.06.02-.11.04-.13.04s-.04,0-.06,0c-.01,0-.03-.01-.05-.02s-.04-.02-.06-.04-.05-.04-.08-.07c-.03-.03-.05-.05-.07-.08-.02-.02-.03-.05-.04-.07,0-.02,0-.04,0-.05s0-.03.02-.04c.02-.02.05-.03.11-.05.06-.01.12-.04.21-.07.08-.03.18-.08.29-.15s.22-.16.34-.28c.11-.11.2-.23.27-.35.07-.12.1-.24.12-.36.01-.12,0-.25-.05-.37-.05-.12-.13-.25-.25-.37-.1-.1-.21-.18-.32-.22-.11-.05-.23-.06-.35-.05s-.24.06-.37.14c-.13.08-.26.19-.41.33-.1.1-.18.19-.25.28-.06.08-.13.16-.19.22-.05.05-.09.07-.13.07s-.09-.03-.15-.09l-1.31-1.31c-.05-.05-.08-.11-.08-.16,0-.05.02-.1.07-.15l1.42-1.42s.03-.02.05-.03c.02,0,.04,0,.06,0s.05.02.08.04c.03.02.06.04.09.08.06.06.1.11.12.16s.01.09-.02.12l-1.15,1.15.9.9c.05-.06.1-.13.16-.19s.12-.13.2-.2c.18-.18.35-.31.53-.4s.35-.14.52-.15c.17,0,.33.02.49.09.16.07.31.17.45.31h0Z"/>
  </g>
  <g class="cls-11">
    <path class="cls-7" d="M200.42,161.65s.05.06.07.09c.02.03.03.05.04.08s0,.04,0,.06-.01.04-.03.05l-1.78,1.78s-.05.04-.07.05c-.02.01-.05.02-.07.02-.03,0-.05-.01-.08-.03-.03-.02-.06-.05-.1-.08-.03-.03-.06-.06-.08-.09-.02-.03-.04-.05-.05-.08s-.02-.06-.03-.09c0-.03,0-.07-.01-.11l-.02-1.3c0-.3-.02-.56-.05-.77-.03-.21-.07-.39-.12-.54s-.11-.27-.17-.37c-.07-.1-.13-.18-.21-.25-.07-.07-.15-.13-.24-.17-.09-.04-.18-.06-.27-.06-.09,0-.19.02-.28.06-.1.04-.19.1-.28.19-.1.1-.18.21-.24.32-.05.11-.1.21-.13.31-.03.1-.05.18-.06.25-.01.07-.03.12-.05.14-.01.01-.03.02-.04.02-.02,0-.03,0-.06,0-.02,0-.05-.02-.07-.05-.03-.02-.06-.05-.09-.08-.02-.02-.05-.05-.06-.07s-.03-.04-.04-.06c0-.02-.02-.04-.02-.05,0-.02,0-.05,0-.08s.01-.1.03-.17c.02-.08.05-.17.1-.27.04-.1.1-.21.17-.32.07-.11.15-.21.25-.31.16-.16.31-.27.47-.34.16-.07.32-.11.47-.11s.3.03.44.09.27.15.38.27c.1.1.2.21.28.33.08.12.16.27.22.45s.11.39.14.65c.03.26.05.57.06.94l.02,1.04,1.4-1.4s.03-.02.05-.03c.02,0,.04,0,.07,0,.02,0,.05.02.08.04.03.02.05.04.08.07h0ZM201.87,161.77s.02.05.02.08c0,.02,0,.05-.01.07,0,.02-.03.05-.05.08-.02.03-.05.06-.08.09-.04.04-.08.07-.11.09s-.06.03-.09.04c-.03,0-.05,0-.07-.01-.02-.01-.03-.03-.05-.07l-2.62-5.63s-.02-.05-.02-.08c0-.02,0-.05,0-.07,0-.02.02-.05.05-.08.02-.03.05-.06.09-.09.04-.04.08-.07.11-.09.03-.02.06-.03.09-.04.02,0,.05,0,.07.01.02.01.04.03.05.06l2.62,5.63ZM204.88,157.2s.05.06.07.09c.02.03.03.05.04.08s0,.04,0,.06-.01.04-.03.05l-1.78,1.78s-.05.04-.07.05c-.02.01-.05.02-.07.02-.03,0-.05-.01-.08-.03-.03-.02-.06-.05-.1-.08-.03-.03-.06-.06-.08-.09-.02-.03-.04-.05-.05-.08s-.02-.06-.03-.09c0-.03,0-.07-.01-.11l-.02-1.3c0-.3-.02-.56-.05-.77-.03-.21-.07-.39-.12-.54s-.11-.27-.17-.37c-.07-.1-.13-.18-.21-.25-.07-.07-.15-.13-.24-.17-.09-.04-.18-.06-.27-.06-.09,0-.19.02-.28.06-.1.04-.19.1-.28.19-.1.1-.18.21-.24.32-.05.11-.1.21-.13.31-.03.1-.05.18-.06.25-.01.07-.03.12-.05.14-.01.01-.03.02-.04.02-.02,0-.03,0-.06,0-.02,0-.05-.02-.07-.05-.03-.02-.06-.05-.09-.08-.02-.02-.05-.05-.06-.07s-.03-.04-.04-.06c0-.02-.02-.04-.02-.05,0-.02,0-.05,0-.08s.01-.1.03-.17c.02-.08.05-.17.1-.27.04-.1.1-.21.17-.32.07-.11.15-.21.25-.31.16-.16.31-.27.47-.34.16-.07.32-.11.47-.11s.3.03.44.09.27.15.38.27c.1.1.2.21.28.33.08.12.16.27.22.45s.11.39.14.65c.03.26.05.57.06.94l.02,1.04,1.4-1.4s.03-.02.05-.03c.02,0,.04,0,.07,0,.02,0,.05.02.08.04.03.02.05.04.08.07h0ZM206.77,153.61c.17.17.3.35.37.55.08.19.11.39.09.59-.01.2-.07.39-.17.59-.1.19-.24.38-.42.56-.1.1-.2.19-.3.26s-.2.14-.29.19c-.09.05-.17.09-.23.11-.06.02-.11.04-.13.04s-.04,0-.06,0c-.01,0-.03-.01-.05-.02-.02,0-.04-.02-.06-.04-.02-.02-.05-.04-.08-.07-.03-.03-.05-.05-.07-.08-.02-.02-.03-.05-.04-.07,0-.02,0-.04,0-.05,0-.02,0-.03.02-.04.02-.02.05-.03.11-.05.06-.01.12-.04.21-.07.08-.03.18-.08.29-.15s.22-.16.34-.28c.11-.11.2-.23.27-.35.07-.12.1-.24.12-.36s0-.25-.05-.37c-.05-.12-.13-.25-.25-.37-.1-.1-.21-.18-.32-.22-.11-.05-.23-.06-.35-.05s-.24.06-.37.14c-.13.08-.26.19-.41.33-.1.1-.18.19-.25.28s-.13.16-.19.22c-.05.05-.09.07-.13.07-.04,0-.09-.03-.15-.09l-1.31-1.31c-.05-.05-.08-.11-.08-.16,0-.05.02-.1.07-.15l1.42-1.42s.03-.02.05-.03.04,0,.06,0c.02,0,.05.02.08.04.03.02.06.04.09.08.06.06.1.11.12.16s.01.09-.02.12l-1.15,1.15.9.9c.05-.06.1-.13.16-.19.06-.06.12-.13.2-.2.18-.18.35-.31.53-.4s.35-.14.52-.15.33.02.49.09c.16.07.31.17.45.31h0ZM209.08,154.56s.02.05.02.08c0,.02,0,.05-.01.07s-.03.05-.05.08c-.02.03-.05.06-.08.09-.04.04-.08.07-.11.09s-.06.03-.09.04c-.03,0-.05,0-.07-.01s-.03-.03-.05-.07l-2.62-5.63s-.02-.05-.02-.08c0-.02,0-.05,0-.07,0-.02.02-.05.05-.08s.05-.06.09-.09c.04-.04.08-.07.11-.09s.06-.03.09-.04.05,0,.07.01c.02.01.04.03.05.06l2.62,5.63ZM212.09,149.99s.05.06.07.09c.02.03.03.05.04.08s0,.04,0,.06c0,.02-.01.04-.03.05l-1.78,1.78s-.05.04-.07.05c-.02.01-.05.02-.07.02-.03,0-.05-.01-.08-.03-.03-.02-.06-.05-.1-.08-.03-.03-.06-.06-.08-.09-.02-.03-.04-.05-.05-.08s-.02-.06-.03-.09c0-.03,0-.07-.01-.11l-.02-1.3c0-.3-.02-.56-.05-.77-.03-.21-.07-.39-.12-.54-.05-.15-.11-.27-.17-.37-.07-.1-.13-.18-.21-.25s-.15-.13-.24-.17c-.09-.04-.18-.06-.27-.06-.09,0-.19.02-.28.06-.1.04-.19.1-.28.19-.1.1-.18.21-.24.32s-.1.21-.13.31c-.03.1-.05.18-.06.25-.01.07-.03.12-.05.14-.01.01-.03.02-.04.02-.02,0-.03,0-.06,0-.02,0-.05-.02-.07-.05s-.06-.05-.09-.08c-.02-.02-.05-.05-.06-.07s-.03-.04-.04-.06c0-.02-.02-.04-.02-.05,0-.02,0-.05,0-.08s.01-.1.03-.17c.02-.08.05-.17.1-.27.04-.1.1-.21.17-.32.07-.11.15-.21.25-.31.16-.16.31-.27.47-.34.16-.07.32-.11.47-.11.15,0,.3.03.44.09.14.06.27.15.38.27.1.1.2.21.28.33.08.12.16.27.22.45.06.18.11.39.14.65.03.26.05.57.06.94l.02,1.04,1.4-1.4s.03-.02.05-.03.04,0,.07,0,.05.02.08.04.05.04.08.07h0ZM213.31,145.9c.25.25.45.49.62.73s.28.48.33.72c.06.24.05.47-.01.69s-.21.45-.42.66c-.2.2-.41.34-.62.4-.21.07-.43.07-.65.02-.22-.06-.46-.17-.7-.34-.24-.17-.49-.39-.76-.65-.25-.25-.45-.49-.62-.73s-.28-.48-.33-.72-.05-.47.01-.69.2-.45.42-.66c.2-.2.41-.34.62-.41.21-.07.43-.07.65-.02s.46.17.7.34c.24.17.49.39.76.65h0ZM212.9,146.37c-.16-.16-.31-.3-.45-.42-.14-.12-.27-.21-.39-.29-.12-.08-.23-.13-.34-.17-.11-.03-.21-.05-.3-.05s-.19.03-.27.07c-.08.04-.17.1-.25.18-.14.14-.22.29-.24.44s0,.31.07.48c.07.17.17.34.3.51.14.17.3.35.47.53.24.24.46.43.65.58.19.14.37.24.53.29.16.05.31.06.44.02.13-.04.26-.11.38-.23.09-.09.16-.19.2-.29.04-.1.06-.2.05-.31,0-.11-.03-.21-.07-.33-.04-.11-.1-.22-.18-.34-.07-.11-.16-.23-.27-.35-.1-.12-.21-.24-.33-.36h0ZM217.18,144.9s.05.06.07.09.03.05.04.08c0,.02,0,.04,0,.06,0,.02-.01.04-.03.05l-1.78,1.78s-.05.04-.07.05c-.02.01-.05.02-.07.02-.03,0-.05-.01-.08-.03-.03-.02-.06-.05-.1-.08-.03-.03-.06-.06-.08-.09s-.04-.05-.05-.08-.02-.06-.03-.09c0-.03,0-.07-.01-.11l-.02-1.3c0-.3-.02-.56-.05-.77-.03-.21-.07-.39-.12-.54-.05-.15-.11-.27-.17-.37-.07-.1-.13-.18-.21-.25-.07-.07-.15-.13-.24-.17-.09-.04-.18-.06-.27-.06-.09,0-.19.02-.28.06s-.19.1-.28.19c-.1.1-.18.21-.24.32-.05.11-.1.21-.13.31-.03.1-.05.18-.06.25-.01.07-.03.12-.05.14-.01.01-.03.02-.04.02s-.03,0-.06,0c-.02,0-.05-.02-.07-.05-.03-.02-.06-.05-.09-.08-.02-.02-.05-.05-.06-.07-.02-.02-.03-.04-.04-.06,0-.02-.02-.04-.02-.05,0-.02,0-.05,0-.08s.01-.1.03-.17c.02-.08.05-.17.1-.27.04-.1.1-.21.17-.32.07-.11.15-.21.25-.31.16-.16.31-.27.47-.34.16-.07.32-.11.47-.11.15,0,.3.03.44.09.14.06.27.15.38.27.1.1.2.21.28.33s.16.27.22.45.11.39.14.65c.03.26.05.57.06.94l.02,1.04,1.4-1.4s.03-.02.05-.03.04,0,.07,0c.02,0,.05.02.08.04.03.02.05.04.08.07h0ZM218.86,141.52c.17.17.3.35.37.55s.11.39.09.59c-.01.2-.07.39-.17.59-.1.19-.24.38-.42.56-.1.1-.2.19-.3.26s-.2.14-.29.19c-.09.05-.17.09-.23.11-.06.02-.11.04-.13.04s-.04,0-.06,0c-.01,0-.03-.01-.05-.02s-.04-.02-.06-.04-.05-.04-.08-.07c-.03-.03-.05-.05-.07-.08-.02-.02-.03-.05-.04-.07,0-.02,0-.04,0-.05s0-.03.02-.04c.02-.02.05-.03.11-.05.06-.01.12-.04.21-.07.08-.03.18-.08.29-.15s.22-.16.34-.28c.11-.11.2-.23.27-.35.07-.12.1-.24.12-.36.01-.12,0-.25-.05-.37-.05-.12-.13-.25-.25-.37-.1-.1-.21-.18-.32-.22-.11-.05-.23-.06-.35-.05s-.24.06-.37.14c-.13.08-.26.19-.41.33-.1.1-.18.19-.25.28-.06.08-.13.16-.19.22-.05.05-.09.07-.13.07s-.09-.03-.15-.09l-1.31-1.31c-.05-.05-.08-.11-.08-.16,0-.05.02-.1.07-.15l1.42-1.42s.03-.02.05-.03c.02,0,.04,0,.06,0s.05.02.08.04c.03.02.06.04.09.08.06.06.1.11.12.16s.01.09-.02.12l-1.15,1.15.9.9c.05-.06.1-.13.16-.19s.12-.13.2-.2c.18-.18.35-.31.53-.4s.35-.14.52-.15c.17,0,.33.02.49.09.16.07.31.17.45.31h0Z"/>
  </g>
  <g class="cls-12">
    <path class="cls-7" d="M228.17,160.94c.15.15.25.31.32.48.07.17.09.35.08.53-.01.18-.07.36-.16.55-.1.19-.23.37-.41.55-.11.11-.22.2-.33.28s-.22.14-.31.19c-.1.05-.18.08-.26.11s-.12.03-.15.03c-.02,0-.05,0-.06,0-.02,0-.04-.01-.06-.02s-.05-.03-.07-.05c-.03-.02-.06-.05-.09-.08-.06-.06-.1-.11-.11-.14-.01-.04,0-.06.02-.09.02-.02.06-.03.13-.05.07-.02.16-.05.26-.09.1-.04.21-.09.33-.16s.24-.16.35-.28c.11-.11.2-.22.25-.34.06-.11.09-.22.09-.33,0-.11-.01-.21-.05-.31-.04-.1-.1-.19-.19-.27-.09-.09-.19-.15-.3-.19-.11-.04-.23-.05-.35-.03-.12.02-.25.06-.38.14s-.26.18-.4.31l-.32.32s-.03.02-.05.03c-.02,0-.04,0-.06,0s-.05-.01-.08-.03c-.03-.02-.06-.04-.09-.08-.03-.03-.06-.06-.07-.09-.02-.03-.03-.05-.03-.07s0-.04,0-.06c0-.02.02-.03.03-.05l.28-.28c.11-.11.19-.22.25-.34.06-.12.09-.23.1-.34s0-.22-.05-.33c-.04-.11-.11-.2-.2-.3-.07-.07-.14-.12-.22-.16s-.17-.06-.25-.06c-.09,0-.18.02-.27.06s-.18.11-.27.19c-.1.1-.17.2-.22.31-.05.11-.09.21-.12.31-.03.1-.05.18-.06.25-.01.07-.03.11-.04.13-.01.01-.02.02-.04.02s-.03,0-.05,0c-.02,0-.04-.02-.06-.04-.02-.02-.06-.05-.09-.08-.02-.02-.05-.05-.06-.07-.02-.02-.03-.04-.04-.06,0-.02-.02-.04-.02-.06s0-.04,0-.07,0-.09.03-.16c.02-.08.05-.17.09-.27.04-.1.1-.21.17-.32.07-.11.16-.22.27-.33.15-.15.3-.26.45-.34s.3-.11.44-.12c.15,0,.28.02.42.08.13.06.26.15.38.27.1.1.18.21.24.32s.1.23.11.35,0,.24-.02.36c-.03.12-.08.24-.16.36h0c.12-.09.25-.17.39-.22.14-.05.27-.07.4-.07s.26.03.39.08c.13.05.24.13.34.23h0ZM230.38,161.77s.02.05.02.08c0,.02,0,.05-.01.07,0,.02-.03.05-.05.08-.02.03-.05.06-.08.09-.04.04-.08.07-.11.09s-.06.03-.09.04c-.03,0-.05,0-.07-.01-.02-.01-.03-.03-.05-.07l-2.62-5.63s-.02-.05-.02-.08c0-.02,0-.05,0-.07,0-.02.02-.05.05-.08.02-.03.05-.06.09-.09.04-.04.08-.07.11-.09.03-.02.06-.03.09-.04.02,0,.05,0,.07.01.02.01.04.03.05.06l2.62,5.63ZM233.39,157.2s.05.06.07.09c.02.03.03.05.04.08s0,.04,0,.06-.01.04-.03.05l-1.78,1.78s-.05.04-.07.05c-.02.01-.05.02-.07.02-.03,0-.05-.01-.08-.03-.03-.02-.06-.05-.1-.08-.03-.03-.06-.06-.08-.09-.02-.03-.04-.05-.05-.08s-.02-.06-.03-.09c0-.03,0-.07-.01-.11l-.02-1.3c0-.3-.02-.56-.05-.77-.03-.21-.07-.39-.12-.54s-.11-.27-.17-.37c-.07-.1-.13-.18-.21-.25-.07-.07-.15-.13-.24-.17-.09-.04-.18-.06-.27-.06-.09,0-.19.02-.28.06-.1.04-.19.1-.28.19-.1.1-.18.21-.24.32-.05.11-.1.21-.13.31-.03.1-.05.18-.06.25-.01.07-.03.12-.05.14-.01.01-.03.02-.04.02-.02,0-.03,0-.06,0s-.05-.02-.07-.05c-.03-.02-.06-.05-.09-.08-.02-.02-.05-.05-.06-.07s-.03-.04-.04-.06c0-.02-.02-.04-.02-.05,0-.02,0-.05,0-.08,0-.04.01-.1.03-.17.02-.08.05-.17.1-.27.04-.1.1-.21.17-.32.07-.11.15-.21.25-.31.16-.16.31-.27.47-.34.16-.07.32-.11.47-.11s.3.03.44.09c.14.06.27.15.38.27.1.1.2.21.28.33.08.12.16.27.22.45s.11.39.14.65c.03.26.05.57.06.94l.02,1.04,1.4-1.4s.03-.02.05-.03c.02,0,.04,0,.07,0,.02,0,.05.02.08.04.03.02.05.04.08.07h0ZM235.28,153.61c.17.17.3.35.37.55.08.19.11.39.09.59-.01.2-.07.39-.17.59s-.24.38-.42.56c-.1.1-.2.19-.3.26s-.2.14-.29.19c-.09.05-.17.09-.23.11-.06.02-.11.04-.13.04-.02,0-.04,0-.06,0-.01,0-.03-.01-.05-.02-.02,0-.04-.02-.06-.04-.02-.02-.05-.04-.08-.07-.03-.03-.05-.05-.07-.08-.02-.02-.03-.05-.04-.07,0-.02,0-.04,0-.05,0-.02,0-.03.02-.04.02-.02.05-.03.11-.05.06-.01.12-.04.21-.07.08-.03.18-.08.29-.15s.22-.16.34-.28c.11-.11.2-.23.27-.35.07-.12.1-.24.12-.36s0-.25-.05-.37c-.05-.12-.13-.25-.25-.37-.1-.1-.21-.18-.32-.22-.11-.05-.23-.06-.35-.05s-.24.06-.37.14-.26.19-.41.33c-.1.1-.18.19-.25.28s-.13.16-.19.22c-.05.05-.09.07-.13.07-.04,0-.09-.03-.15-.09l-1.31-1.31c-.05-.05-.08-.11-.08-.16,0-.05.02-.1.07-.15l1.42-1.42s.03-.02.05-.03c.02,0,.04,0,.06,0,.02,0,.05.02.08.04.03.02.06.04.09.08.06.06.1.11.12.16s.01.09-.02.12l-1.15,1.15.9.9c.05-.06.1-.13.16-.19.06-.06.12-.13.2-.2.18-.18.35-.31.53-.4s.35-.14.52-.15.33.02.49.09c.16.07.31.17.45.31h0ZM237.6,154.56s.02.05.02.08c0,.02,0,.05-.01.07s-.03.05-.05.08c-.02.03-.05.06-.08.09-.04.04-.08.07-.11.09s-.06.03-.09.04c-.03,0-.05,0-.07-.01s-.03-.03-.05-.07l-2.62-5.63s-.02-.05-.02-.08c0-.02,0-.05,0-.07,0-.02.02-.05.05-.08s.05-.06.09-.09c.04-.04.08-.07.11-.09s.06-.03.09-.04.05,0,.07.01c.02.01.04.03.05.06l2.62,5.63ZM240.6,149.99s.05.06.07.09.03.05.04.08,0,.04,0,.06c0,.02-.01.04-.03.05l-1.78,1.78s-.05.04-.07.05c-.02.01-.05.02-.07.02-.03,0-.05-.01-.08-.03-.03-.02-.06-.05-.1-.08-.03-.03-.06-.06-.08-.09-.02-.03-.04-.05-.05-.08s-.02-.06-.03-.09c0-.03,0-.07-.01-.11l-.02-1.3c0-.3-.02-.56-.05-.77-.03-.21-.07-.39-.12-.54-.05-.15-.11-.27-.17-.37-.07-.1-.13-.18-.21-.25s-.15-.13-.24-.17c-.09-.04-.18-.06-.27-.06s-.19.02-.28.06c-.1.04-.19.1-.28.19-.1.1-.18.21-.24.32s-.1.21-.13.31c-.03.1-.05.18-.06.25-.01.07-.03.12-.05.14-.01.01-.03.02-.04.02-.02,0-.03,0-.06,0-.02,0-.05-.02-.07-.05-.03-.02-.06-.05-.09-.08-.02-.02-.05-.05-.06-.07s-.03-.04-.04-.06c0-.02-.02-.04-.02-.05s0-.05,0-.08.01-.1.03-.17c.02-.08.05-.17.1-.27.04-.1.1-.21.17-.32.07-.11.15-.21.25-.31.16-.16.31-.27.47-.34.16-.07.32-.11.47-.11.15,0,.3.03.44.09.14.06.27.15.38.27.1.1.2.21.28.33.08.12.16.27.22.45.06.18.11.39.14.65.03.26.05.57.06.94l.02,1.04,1.4-1.4s.03-.02.05-.03.04,0,.07,0,.05.02.08.04c.03.02.05.04.08.07h0ZM241.82,145.9c.25.25.45.49.62.73s.28.48.33.72c.06.24.05.47-.01.69-.07.23-.21.45-.42.66-.2.2-.41.34-.62.4-.21.07-.43.07-.65.02-.22-.06-.46-.17-.7-.34s-.49-.39-.76-.65c-.25-.25-.45-.49-.62-.73s-.28-.48-.33-.72-.05-.47.01-.69.2-.45.42-.66c.2-.2.41-.34.62-.41.21-.07.43-.07.65-.02s.46.17.7.34c.24.17.49.39.76.65h0ZM241.41,146.37c-.16-.16-.31-.3-.45-.42-.14-.12-.27-.21-.39-.29s-.23-.13-.34-.17c-.11-.03-.21-.05-.3-.05s-.19.03-.27.07c-.08.04-.17.1-.25.18-.14.14-.22.29-.24.44s0,.31.07.48c.07.17.17.34.3.51.14.17.3.35.47.53.24.24.46.43.65.58.19.14.37.24.53.29.16.05.31.06.44.02.13-.04.26-.11.38-.23.09-.09.16-.19.2-.29.04-.1.06-.2.05-.31,0-.11-.03-.21-.07-.33-.04-.11-.1-.22-.18-.34-.07-.11-.16-.23-.27-.35-.1-.12-.21-.24-.33-.36h0ZM245.69,144.9s.05.06.07.09.03.05.04.08c0,.02,0,.04,0,.06,0,.02-.01.04-.03.05l-1.78,1.78s-.05.04-.07.05c-.02.01-.05.02-.07.02-.03,0-.05-.01-.08-.03-.03-.02-.06-.05-.1-.08-.03-.03-.06-.06-.08-.09s-.04-.05-.05-.08c-.01-.03-.02-.06-.03-.09,0-.03,0-.07-.01-.11l-.02-1.3c0-.3-.02-.56-.05-.77s-.07-.39-.12-.54c-.05-.15-.11-.27-.17-.37-.07-.1-.13-.18-.21-.25-.07-.07-.15-.13-.24-.17-.09-.04-.18-.06-.27-.06-.09,0-.19.02-.28.06-.1.04-.19.1-.28.19-.1.1-.18.21-.24.32s-.1.21-.13.31c-.03.1-.05.18-.06.25-.01.07-.03.12-.05.14-.01.01-.03.02-.04.02-.02,0-.03,0-.06,0-.02,0-.05-.02-.07-.05-.03-.02-.06-.05-.09-.08-.02-.02-.05-.05-.06-.07-.02-.02-.03-.04-.04-.06,0-.02-.02-.04-.02-.05,0-.02,0-.05,0-.08s.01-.1.03-.17c.02-.08.05-.17.1-.27.04-.1.1-.21.17-.32.07-.11.15-.21.25-.31.16-.16.31-.27.47-.34.16-.07.32-.11.47-.11.15,0,.3.03.44.09.14.06.27.15.38.27.1.1.2.21.28.33s.16.27.22.45.11.39.14.65c.03.26.05.57.06.94l.02,1.04,1.4-1.4s.03-.02.05-.03c.02,0,.04,0,.07,0,.02,0,.05.02.08.04.03.02.05.04.08.07h0ZM247.37,141.52c.17.17.3.35.37.55s.11.39.09.59c-.01.2-.07.39-.17.59s-.24.38-.42.56c-.1.1-.2.19-.3.26s-.2.14-.29.19c-.09.05-.17.09-.23.11-.06.02-.11.04-.13.04s-.04,0-.06,0c-.01,0-.03-.01-.05-.02s-.04-.02-.06-.04-.05-.04-.08-.07c-.03-.03-.05-.05-.07-.08-.02-.02-.03-.05-.04-.07,0-.02,0-.04,0-.05s0-.03.02-.04c.02-.02.05-.03.11-.05.06-.01.12-.04.21-.07.08-.03.18-.08.29-.15.11-.07.22-.16.34-.28.11-.11.2-.23.27-.35.07-.12.1-.24.12-.36s0-.25-.05-.37c-.05-.12-.13-.25-.25-.37-.1-.1-.21-.18-.32-.22-.11-.05-.23-.06-.35-.05s-.24.06-.37.14c-.13.08-.26.19-.41.33-.1.1-.18.19-.25.28-.06.08-.13.16-.19.22-.05.05-.09.07-.13.07s-.09-.03-.15-.09l-1.31-1.31c-.05-.05-.08-.11-.08-.16,0-.05.02-.1.07-.15l1.42-1.42s.03-.02.05-.03c.02,0,.04,0,.06,0,.02,0,.05.02.08.04.03.02.06.04.09.08.06.06.1.11.12.16.02.05.01.09-.02.12l-1.15,1.15.9.9c.05-.06.1-.13.16-.19.06-.06.12-.13.2-.2.18-.18.35-.31.53-.4s.35-.14.52-.15c.17,0,.33.02.49.09.16.07.31.17.45.31h0Z"/>
  </g>
  <g class="cls-40">
    <g class="cls-20">
      <text class="cls-5" transform="translate(124.35 17.25)"><tspan class="cls-35" x="0" y="0">C</tspan><tspan class="cls-32" x="6" y="0">o</tspan><tspan class="cls-36" x="11.99" y="0">mm</tspan><tspan class="cls-25" x="29.97" y="0">i</tspan><tspan class="cls-19" x="32.38" y="0">t</tspan><tspan class="cls-23" x="35.98" y="0">s</tspan></text>
    </g>
  </g>
  <g class="cls-30">
    <polygon class="cls-15" points=".3 .3 288.3 .3 288.3 173.1 .3 173.1 .3 .3 .3 .3"/>
  </g>
</svg>