<?xml version="1.0" encoding="UTF-8"?>
<svg id="Layer_1" data-name="Layer 1" xmlns="http://www.w3.org/2000/svg" xmlns:xlink="http://www.w3.org/1999/xlink" viewBox="0 0 800.85 438.78">
  <defs>
    <style>
      .cls-1 {
        letter-spacing: 0em;
      }

      .cls-2 {
        clip-path: url(#clippath-34);
      }

      .cls-3 {
        clip-path: url(#clippath-21);
      }

      .cls-4 {
        clip-path: url(#clippath-6);
      }

      .cls-5 {
        clip-path: url(#clippath-7);
      }

      .cls-6 {
        clip-path: url(#clippath-17);
      }

      .cls-7 {
        clip-path: url(#clippath-31);
      }

      .cls-8 {
        clip-path: url(#clippath-15);
      }

      .cls-9 {
        clip-path: url(#clippath-33);
      }

      .cls-10 {
        clip-path: url(#clippath-18);
      }

      .cls-11 {
        clip-path: url(#clippath-4);
      }

      .cls-12 {
        letter-spacing: 0em;
      }

      .cls-13 {
        clip-path: url(#clippath-22);
      }

      .cls-14 {
        clip-path: url(#clippath-23);
      }

      .cls-15 {
        stroke: #4472c4;
        stroke-linecap: round;
        stroke-width: 1.8px;
      }

      .cls-15, .cls-16, .cls-17, .cls-18 {
        fill: none;
      }

      .cls-15, .cls-17 {
        stroke-linejoin: round;
      }

      .cls-19 {
        letter-spacing: .01em;
      }

      .cls-20 {
        clip-path: url(#clippath-9);
      }

      .cls-21 {
        clip-path: url(#clippath-10);
      }

      .cls-22 {
        clip-path: url(#clippath-25);
      }

      .cls-23 {
        clip-path: url(#clippath-27);
      }

      .cls-24 {
        letter-spacing: -.01em;
      }

      .cls-25 {
        fill: #fff;
        fill-rule: evenodd;
      }

      .cls-26 {
        clip-path: url(#clippath-11);
      }

      .cls-17 {
        stroke: #d9d9d9;
        stroke-width: .6px;
      }

      .cls-27 {
        font-size: 28.09px;
      }

      .cls-27, .cls-28 {
        fill: #595959;
        font-family: Calibri, Calibri;
      }

      .cls-29 {
        clip-path: url(#clippath-28);
      }

      .cls-30 {
        clip-path: url(#clippath-1);
      }

      .cls-31 {
        letter-spacing: .01em;
      }

      .cls-32 {
        clip-path: url(#clippath-5);
      }

      .cls-33 {
        clip-path: url(#clippath-20);
      }

      .cls-34 {
        clip-path: url(#clippath-8);
      }

      .cls-35 {
        clip-path: url(#clippath-3);
      }

      .cls-36 {
        clip-path: url(#clippath-26);
      }

      .cls-37 {
        letter-spacing: 0em;
      }

      .cls-38 {
        clip-path: url(#clippath-12);
      }

      .cls-39 {
        clip-path: url(#clippath-14);
      }

      .cls-18 {
        clip-rule: evenodd;
      }

      .cls-40 {
        clip-path: url(#clippath-30);
      }

      .cls-41 {
        clip-path: url(#clippath-19);
      }

      .cls-42 {
        letter-spacing: 0em;
      }

      .cls-43 {
        clip-path: url(#clippath-32);
      }

      .cls-44 {
        letter-spacing: -.01em;
      }

      .cls-28 {
        font-size: 18.22px;
      }

      .cls-45 {
        clip-path: url(#clippath-16);
      }

      .cls-46 {
        clip-path: url(#clippath-2);
      }

      .cls-47 {
        clip-path: url(#clippath-29);
      }

      .cls-48 {
        letter-spacing: -.01em;
      }

      .cls-49 {
        clip-path: url(#clippath-13);
      }

      .cls-50 {
        clip-path: url(#clippath-24);
      }

      .cls-51 {
        clip-path: url(#clippath);
      }

      .cls-52 {
        letter-spacing: .03em;
      }

      .cls-53 {
        letter-spacing: -.01em;
      }
    </style>
    <clipPath id="clippath">
      <polygon class="cls-18" points=".83 438.02 800.02 438.02 800.02 .76 .83 .76 .83 438.02 .83 438.02"/>
    </clipPath>
    <clipPath id="clippath-1">
      <polygon class="cls-18" points=".83 438.02 800.02 438.02 800.02 .76 .83 .76 .83 438.02 .83 438.02"/>
    </clipPath>
    <clipPath id="clippath-2">
      <polygon class="cls-18" points=".83 438.02 800.02 438.02 800.02 .76 .83 .76 .83 438.02 .83 438.02"/>
    </clipPath>
    <clipPath id="clippath-3">
      <polygon class="cls-18" points="59.11 392.47 777.54 392.47 777.54 75.91 59.11 75.91 59.11 392.47 59.11 392.47"/>
    </clipPath>
    <clipPath id="clippath-4">
      <polygon class="cls-18" points=".83 438.02 800.02 438.02 800.02 .76 .83 .76 .83 438.02 .83 438.02"/>
    </clipPath>
    <clipPath id="clippath-5">
      <rect class="cls-16" x=".83" y=".76" width="799.19" height="437.26"/>
    </clipPath>
    <clipPath id="clippath-6">
      <polygon class="cls-18" points=".83 438.02 800.02 438.02 800.02 .76 .83 .76 .83 438.02 .83 438.02"/>
    </clipPath>
    <clipPath id="clippath-7">
      <rect class="cls-16" x=".83" y=".76" width="799.19" height="437.26"/>
    </clipPath>
    <clipPath id="clippath-8">
      <polygon class="cls-18" points=".83 438.02 800.02 438.02 800.02 .76 .83 .76 .83 438.02 .83 438.02"/>
    </clipPath>
    <clipPath id="clippath-9">
      <rect class="cls-16" x=".83" y=".76" width="799.19" height="437.26"/>
    </clipPath>
    <clipPath id="clippath-10">
      <polygon class="cls-18" points=".83 438.02 800.02 438.02 800.02 .76 .83 .76 .83 438.02 .83 438.02"/>
    </clipPath>
    <clipPath id="clippath-11">
      <rect class="cls-16" x=".83" y=".76" width="799.19" height="437.26"/>
    </clipPath>
    <clipPath id="clippath-12">
      <polygon class="cls-18" points=".83 438.02 800.02 438.02 800.02 .76 .83 .76 .83 438.02 .83 438.02"/>
    </clipPath>
    <clipPath id="clippath-13">
      <rect class="cls-16" x=".83" y=".76" width="799.19" height="437.26"/>
    </clipPath>
    <clipPath id="clippath-14">
      <polygon class="cls-18" points=".83 438.02 800.02 438.02 800.02 .76 .83 .76 .83 438.02 .83 438.02"/>
    </clipPath>
    <clipPath id="clippath-15">
      <rect class="cls-16" x=".83" y=".76" width="799.19" height="437.26"/>
    </clipPath>
    <clipPath id="clippath-16">
      <polygon class="cls-18" points=".83 438.02 800.02 438.02 800.02 .76 .83 .76 .83 438.02 .83 438.02"/>
    </clipPath>
    <clipPath id="clippath-17">
      <rect class="cls-16" x=".83" y=".76" width="799.19" height="437.26"/>
    </clipPath>
    <clipPath id="clippath-18">
      <polygon class="cls-18" points=".83 438.02 800.02 438.02 800.02 .76 .83 .76 .83 438.02 .83 438.02"/>
    </clipPath>
    <clipPath id="clippath-19">
      <rect class="cls-16" x=".83" y=".76" width="799.19" height="437.26"/>
    </clipPath>
    <clipPath id="clippath-20">
      <polygon class="cls-18" points=".83 438.02 800.02 438.02 800.02 .76 .83 .76 .83 438.02 .83 438.02"/>
    </clipPath>
    <clipPath id="clippath-21">
      <rect class="cls-16" x=".83" y=".76" width="799.19" height="437.26"/>
    </clipPath>
    <clipPath id="clippath-22">
      <polygon class="cls-18" points=".83 438.02 800.02 438.02 800.02 .76 .83 .76 .83 438.02 .83 438.02"/>
    </clipPath>
    <clipPath id="clippath-23">
      <rect class="cls-16" x=".83" y=".76" width="799.19" height="437.26"/>
    </clipPath>
    <clipPath id="clippath-24">
      <polygon class="cls-18" points=".83 438.02 800.02 438.02 800.02 .76 .83 .76 .83 438.02 .83 438.02"/>
    </clipPath>
    <clipPath id="clippath-25">
      <rect class="cls-16" x=".83" y=".76" width="799.19" height="437.26"/>
    </clipPath>
    <clipPath id="clippath-26">
      <polygon class="cls-18" points=".83 438.02 800.02 438.02 800.02 .76 .83 .76 .83 438.02 .83 438.02"/>
    </clipPath>
    <clipPath id="clippath-27">
      <rect class="cls-16" x=".83" y=".76" width="799.19" height="437.26"/>
    </clipPath>
    <clipPath id="clippath-28">
      <polygon class="cls-18" points=".83 438.02 800.02 438.02 800.02 .76 .83 .76 .83 438.02 .83 438.02"/>
    </clipPath>
    <clipPath id="clippath-29">
      <rect class="cls-16" x=".83" y=".76" width="799.19" height="437.26"/>
    </clipPath>
    <clipPath id="clippath-30">
      <polygon class="cls-18" points=".83 438.02 800.02 438.02 800.02 .76 .83 .76 .83 438.02 .83 438.02"/>
    </clipPath>
    <clipPath id="clippath-31">
      <rect class="cls-16" x=".83" y=".76" width="799.19" height="437.26"/>
    </clipPath>
    <clipPath id="clippath-32">
      <polygon class="cls-18" points=".83 438.02 800.02 438.02 800.02 .76 .83 .76 .83 438.02 .83 438.02"/>
    </clipPath>
    <clipPath id="clippath-33">
      <rect class="cls-16" x=".83" y=".76" width="799.19" height="437.26"/>
    </clipPath>
    <clipPath id="clippath-34">
      <polygon class="cls-18" points="0 438.78 800.85 438.78 800.85 0 0 0 0 438.78 0 438.78"/>
    </clipPath>
  </defs>
  <polygon class="cls-25" points=".83 .76 800.02 .76 800.02 438.02 .83 438.02 .83 .76 .83 .76"/>
  <g class="cls-51">
    <path class="cls-17" d="M59.11,356.1h716.77M59.11,321.17h716.77M59.11,286.25h716.77M59.11,251.32h716.77M59.11,216.4h716.77M59.11,181.48h716.77M59.11,146.55h716.77M59.11,110.87h716.77M59.11,75.91h716.77"/>
  </g>
  <g class="cls-30">
    <line class="cls-17" x1="59.11" y1="391.71" x2="775.88" y2="391.71"/>
  </g>
  <g class="cls-46">
    <path class="cls-17" d="M59.11,391.71v5.31M239.03,391.71v5.31M423.86,391.71v5.31M608.55,391.71v5.31"/>
  </g>
  <g class="cls-35">
    <polyline class="cls-15" points="62.44 251.32 104.15 391.71 145.78 391.71 188.24 391.71 229.87 391.71 271.5 111.59 313.13 391.71 354.76 391.71 397.22 391.71 438.85 391.71 480.47 391.71 522.1 391.71 563.73 321.17 606.19 391.71 647.82 391.71 689.45 391.71 731.08 391.71 773.38 391.71"/>
  </g>
  <g class="cls-11">
    <g class="cls-32">
      <text class="cls-28" transform="translate(30.83 396.78) scale(1.1 1)"><tspan x="0" y="0">0</tspan></text>
    </g>
  </g>
  <g class="cls-4">
    <g class="cls-5">
      <text class="cls-28" transform="translate(15.68 361.73) scale(1.1 1)"><tspan class="cls-12" x="0" y="0">0</tspan><tspan class="cls-37" x="9.12" y="0">.</tspan><tspan x="13.69" y="0">5</tspan></text>
    </g>
  </g>
  <g class="cls-34">
    <g class="cls-20">
      <text class="cls-28" transform="translate(30.83 326.72) scale(1.1 1)"><tspan x="0" y="0">1</tspan></text>
    </g>
  </g>
  <g class="cls-21">
    <g class="cls-26">
      <text class="cls-28" transform="translate(15.68 291.71) scale(1.1 1)"><tspan class="cls-12" x="0" y="0">1</tspan><tspan class="cls-37" x="9.12" y="0">.</tspan><tspan x="13.69" y="0">5</tspan></text>
    </g>
  </g>
  <g class="cls-38">
    <g class="cls-49">
      <text class="cls-28" transform="translate(30.83 256.67) scale(1.1 1)"><tspan x="0" y="0">2</tspan></text>
    </g>
  </g>
  <g class="cls-39">
    <g class="cls-8">
      <text class="cls-28" transform="translate(15.68 221.65) scale(1.1 1)"><tspan class="cls-12" x="0" y="0">2</tspan><tspan class="cls-37" x="9.12" y="0">.</tspan><tspan x="13.69" y="0">5</tspan></text>
    </g>
  </g>
  <g class="cls-45">
    <g class="cls-6">
      <text class="cls-28" transform="translate(30.83 186.63) scale(1.1 1)"><tspan x="0" y="0">3</tspan></text>
    </g>
  </g>
  <g class="cls-10">
    <g class="cls-41">
      <text class="cls-28" transform="translate(15.68 151.58) scale(1.1 1)"><tspan class="cls-12" x="0" y="0">3</tspan><tspan class="cls-37" x="9.12" y="0">.</tspan><tspan x="13.69" y="0">5</tspan></text>
    </g>
  </g>
  <g class="cls-33">
    <g class="cls-3">
      <text class="cls-28" transform="translate(30.83 116.57) scale(1.1 1)"><tspan x="0" y="0">4</tspan></text>
    </g>
  </g>
  <g class="cls-13">
    <g class="cls-14">
      <text class="cls-28" transform="translate(15.68 81.56) scale(1.1 1)"><tspan class="cls-12" x="0" y="0">4</tspan><tspan class="cls-37" x="9.12" y="0">.</tspan><tspan x="13.69" y="0">5</tspan></text>
    </g>
  </g>
  <g class="cls-50">
    <g class="cls-22">
      <text class="cls-28" transform="translate(19.32 420.44) scale(1.1 1)"><tspan class="cls-12" x="0" y="0">6</tspan><tspan class="cls-44" x="9.12" y="0">/</tspan><tspan class="cls-52" x="15.96" y="0">1</tspan><tspan class="cls-42" x="25.81" y="0">2</tspan><tspan class="cls-24" x="34.94" y="0">/</tspan><tspan class="cls-42" x="41.78" y="0">202</tspan><tspan x="69.15" y="0">2</tspan></text>
    </g>
  </g>
  <g class="cls-36">
    <g class="cls-23">
      <text class="cls-28" transform="translate(198.45 420.44) scale(1.1 1)"><tspan class="cls-12" x="0" y="0">7</tspan><tspan class="cls-44" x="9.12" y="0">/</tspan><tspan class="cls-52" x="15.96" y="0">1</tspan><tspan class="cls-42" x="25.81" y="0">2</tspan><tspan class="cls-24" x="34.94" y="0">/</tspan><tspan class="cls-42" x="41.78" y="0">202</tspan><tspan x="69.15" y="0">2</tspan></text>
    </g>
  </g>
  <g class="cls-29">
    <g class="cls-47">
      <text class="cls-28" transform="translate(383.57 420.44) scale(1.1 1)"><tspan class="cls-12" x="0" y="0">8</tspan><tspan class="cls-44" x="9.12" y="0">/</tspan><tspan class="cls-52" x="15.96" y="0">1</tspan><tspan class="cls-42" x="25.81" y="0">2</tspan><tspan class="cls-24" x="34.94" y="0">/</tspan><tspan class="cls-42" x="41.78" y="0">202</tspan><tspan x="69.15" y="0">2</tspan></text>
    </g>
  </g>
  <g class="cls-40">
    <g class="cls-7">
      <text class="cls-28" transform="translate(568.65 420.44) scale(1.1 1)"><tspan class="cls-12" x="0" y="0">9</tspan><tspan class="cls-44" x="9.12" y="0">/</tspan><tspan class="cls-52" x="15.96" y="0">1</tspan><tspan class="cls-42" x="25.81" y="0">2</tspan><tspan class="cls-24" x="34.94" y="0">/</tspan><tspan class="cls-42" x="41.78" y="0">202</tspan><tspan x="69.15" y="0">2</tspan></text>
    </g>
  </g>
  <g class="cls-43">
    <g class="cls-9">
      <text class="cls-27" transform="translate(345.07 43.64) scale(1.1 1)"><tspan class="cls-1" x="0" y="0">C</tspan><tspan class="cls-19" x="15.17" y="0">o</tspan><tspan class="cls-31" x="30.35" y="0">mm</tspan><tspan class="cls-53" x="75.84" y="0">i</tspan><tspan class="cls-48" x="81.92" y="0">t</tspan><tspan x="91.05" y="0">s</tspan></text>
    </g>
  </g>
  <g class="cls-2">
    <polygon class="cls-17" points=".83 .76 800.02 .76 800.02 438.02 .83 438.02 .83 .76 .83 .76"/>
  </g>
</svg>