<?xml version="1.0" encoding="UTF-8"?>
<svg id="Layer_1" data-name="Layer 1" xmlns="http://www.w3.org/2000/svg" xmlns:xlink="http://www.w3.org/1999/xlink" viewBox="0 0 288.6 173.4">
  <defs>
    <style>
      .cls-1 {
        clip-path: url(#clippath-21);
      }

      .cls-2 {
        clip-path: url(#clippath-6);
      }

      .cls-3 {
        clip-path: url(#clippath-7);
      }

      .cls-4 {
        clip-path: url(#clippath-17);
      }

      .cls-5 {
        font-size: 11.1px;
      }

      .cls-5, .cls-6 {
        font-family: Calibri, Calibri;
      }

      .cls-5, .cls-6, .cls-7 {
        fill: #595959;
      }

      .cls-8 {
        clip-path: url(#clippath-15);
      }

      .cls-9 {
        clip-path: url(#clippath-18);
      }

      .cls-10 {
        clip-path: url(#clippath-4);
      }

      .cls-11 {
        clip-path: url(#clippath-22);
      }

      .cls-12 {
        clip-path: url(#clippath-23);
      }

      .cls-13 {
        stroke: #4472c4;
        stroke-linecap: round;
        stroke-width: 1.8px;
      }

      .cls-13, .cls-14, .cls-15, .cls-16 {
        fill: none;
      }

      .cls-13, .cls-15 {
        stroke-linejoin: round;
      }

      .cls-17 {
        clip-path: url(#clippath-9);
      }

      .cls-18 {
        clip-path: url(#clippath-10);
      }

      .cls-19 {
        letter-spacing: 0em;
      }

      .cls-20 {
        clip-path: url(#clippath-25);
      }

      .cls-21 {
        clip-path: url(#clippath-27);
      }

      .cls-22 {
        fill: #fff;
        fill-rule: evenodd;
      }

      .cls-23 {
        clip-path: url(#clippath-11);
      }

      .cls-24 {
        letter-spacing: 0em;
      }

      .cls-15 {
        stroke: #d9d9d9;
        stroke-width: .6px;
      }

      .cls-25 {
        clip-path: url(#clippath-28);
      }

      .cls-26 {
        clip-path: url(#clippath-1);
      }

      .cls-27 {
        letter-spacing: -.01em;
      }

      .cls-28 {
        clip-path: url(#clippath-5);
      }

      .cls-29 {
        clip-path: url(#clippath-20);
      }

      .cls-6 {
        font-size: 7.2px;
      }

      .cls-30 {
        clip-path: url(#clippath-8);
      }

      .cls-31 {
        clip-path: url(#clippath-3);
      }

      .cls-32 {
        clip-path: url(#clippath-26);
      }

      .cls-33 {
        clip-path: url(#clippath-12);
      }

      .cls-34 {
        letter-spacing: .01em;
      }

      .cls-35 {
        clip-path: url(#clippath-14);
      }

      .cls-16 {
        clip-rule: evenodd;
      }

      .cls-36 {
        clip-path: url(#clippath-19);
      }

      .cls-37 {
        letter-spacing: 0em;
      }

      .cls-38 {
        letter-spacing: .01em;
      }

      .cls-39 {
        clip-path: url(#clippath-16);
      }

      .cls-40 {
        clip-path: url(#clippath-2);
      }

      .cls-41 {
        clip-path: url(#clippath-13);
      }

      .cls-42 {
        clip-path: url(#clippath-24);
      }

      .cls-43 {
        clip-path: url(#clippath);
      }

      .cls-44 {
        letter-spacing: 0em;
      }

      .cls-45 {
        letter-spacing: 0em;
      }
    </style>
    <clipPath id="clippath">
      <polygon class="cls-16" points=".3 173.1 288.3 173.1 288.3 .3 .3 .3 .3 173.1 .3 173.1"/>
    </clipPath>
    <clipPath id="clippath-1">
      <polygon class="cls-16" points=".3 173.1 288.3 173.1 288.3 .3 .3 .3 .3 173.1 .3 173.1"/>
    </clipPath>
    <clipPath id="clippath-2">
      <polygon class="cls-16" points=".3 173.1 288.3 173.1 288.3 .3 .3 .3 .3 173.1 .3 173.1"/>
    </clipPath>
    <clipPath id="clippath-3">
      <polygon class="cls-16" points="33.6 133.2 273.9 133.2 273.9 30 33.6 30 33.6 133.2 33.6 133.2"/>
    </clipPath>
    <clipPath id="clippath-4">
      <polygon class="cls-16" points=".3 173.1 288.3 173.1 288.3 .3 .3 .3 .3 173.1 .3 173.1"/>
    </clipPath>
    <clipPath id="clippath-5">
      <rect class="cls-14" x=".3" y=".3" width="288" height="172.8"/>
    </clipPath>
    <clipPath id="clippath-6">
      <polygon class="cls-16" points=".3 173.1 288.3 173.1 288.3 .3 .3 .3 .3 173.1 .3 173.1"/>
    </clipPath>
    <clipPath id="clippath-7">
      <rect class="cls-14" x=".3" y=".3" width="288" height="172.8"/>
    </clipPath>
    <clipPath id="clippath-8">
      <polygon class="cls-16" points=".3 173.1 288.3 173.1 288.3 .3 .3 .3 .3 173.1 .3 173.1"/>
    </clipPath>
    <clipPath id="clippath-9">
      <rect class="cls-14" x=".3" y=".3" width="288" height="172.8"/>
    </clipPath>
    <clipPath id="clippath-10">
      <polygon class="cls-16" points=".3 173.1 288.3 173.1 288.3 .3 .3 .3 .3 173.1 .3 173.1"/>
    </clipPath>
    <clipPath id="clippath-11">
      <rect class="cls-14" x=".3" y=".3" width="288" height="172.8"/>
    </clipPath>
    <clipPath id="clippath-12">
      <polygon class="cls-16" points=".3 173.1 288.3 173.1 288.3 .3 .3 .3 .3 173.1 .3 173.1"/>
    </clipPath>
    <clipPath id="clippath-13">
      <rect class="cls-14" x=".3" y=".3" width="288" height="172.8"/>
    </clipPath>
    <clipPath id="clippath-14">
      <polygon class="cls-16" points=".3 173.1 288.3 173.1 288.3 .3 .3 .3 .3 173.1 .3 173.1"/>
    </clipPath>
    <clipPath id="clippath-15">
      <rect class="cls-14" x=".3" y=".3" width="288" height="172.8"/>
    </clipPath>
    <clipPath id="clippath-16">
      <polygon class="cls-16" points=".3 173.1 288.3 173.1 288.3 .3 .3 .3 .3 173.1 .3 173.1"/>
    </clipPath>
    <clipPath id="clippath-17">
      <rect class="cls-14" x=".3" y=".3" width="288" height="172.8"/>
    </clipPath>
    <clipPath id="clippath-18">
      <polygon class="cls-16" points=".3 173.1 288.3 173.1 288.3 .3 .3 .3 .3 173.1 .3 173.1"/>
    </clipPath>
    <clipPath id="clippath-19">
      <polygon class="cls-16" points=".3 173.1 288.3 173.1 288.3 .3 .3 .3 .3 173.1 .3 173.1"/>
    </clipPath>
    <clipPath id="clippath-20">
      <polygon class="cls-16" points=".3 173.1 288.3 173.1 288.3 .3 .3 .3 .3 173.1 .3 173.1"/>
    </clipPath>
    <clipPath id="clippath-21">
      <polygon class="cls-16" points=".3 173.1 288.3 173.1 288.3 .3 .3 .3 .3 173.1 .3 173.1"/>
    </clipPath>
    <clipPath id="clippath-22">
      <polygon class="cls-16" points=".3 173.1 288.3 173.1 288.3 .3 .3 .3 .3 173.1 .3 173.1"/>
    </clipPath>
    <clipPath id="clippath-23">
      <polygon class="cls-16" points=".3 173.1 288.3 173.1 288.3 .3 .3 .3 .3 173.1 .3 173.1"/>
    </clipPath>
    <clipPath id="clippath-24">
      <polygon class="cls-16" points=".3 173.1 288.3 173.1 288.3 .3 .3 .3 .3 173.1 .3 173.1"/>
    </clipPath>
    <clipPath id="clippath-25">
      <polygon class="cls-16" points=".3 173.1 288.3 173.1 288.3 .3 .3 .3 .3 173.1 .3 173.1"/>
    </clipPath>
    <clipPath id="clippath-26">
      <polygon class="cls-16" points=".3 173.1 288.3 173.1 288.3 .3 .3 .3 .3 173.1 .3 173.1"/>
    </clipPath>
    <clipPath id="clippath-27">
      <rect class="cls-14" x=".3" y=".3" width="288" height="172.8"/>
    </clipPath>
    <clipPath id="clippath-28">
      <polygon class="cls-16" points="0 173.4 288.6 173.4 288.6 0 0 0 0 173.4 0 173.4"/>
    </clipPath>
  </defs>
  <polygon class="cls-22" points=".3 .3 288.3 .3 288.3 173.1 .3 173.1 .3 .3 .3 .3"/>
  <g class="cls-43">
    <path class="cls-15" d="M33.9,115.52h239.7M33.9,98.42h239.7M33.9,81.32h239.7M33.9,64.22h239.7M33.9,47.11h239.7M33.9,30h239.7"/>
  </g>
  <g class="cls-26">
    <line class="cls-15" x1="33.9" y1="132.6" x2="273.6" y2="132.6"/>
  </g>
  <g class="cls-40">
    <path class="cls-15" d="M33.9,132.6v2.4M66.04,132.6v2.4M98.44,132.6v2.4M130.54,132.6v2.4M162.95,132.6v2.4M195.35,132.6v2.4M227.45,132.6v2.4M259.8,132.6v2.4"/>
  </g>
  <g class="cls-31">
    <polyline class="cls-13" points="33.9 132.6 34.53 132.6 35.13 132.6 35.73 132.6 36.33 132.6 36.93 132.6 37.53 132.6 38.13 132.6 38.73 132.6 39.33 132.6 39.93 132.6 40.53 132.6 41.13 132.6 41.73 132.6 42.33 132.6 43.23 132.6 43.83 132.6 44.43 132.6 45.03 132.6 45.63 132.6 46.23 132.6 46.83 132.6 47.43 132.6 48.03 132.6 48.63 132.6 49.23 132.6 49.83 132.6 50.43 47.1 51.03 132.6 51.63 132.6 52.53 132.6 53.13 132.6 53.73 132.6 54.33 132.6 54.93 132.6 55.53 132.6 56.13 132.6 56.73 132.6 57.33 132.6 57.93 132.6 58.53 132.6 59.13 132.6 59.73 132.6 60.34 132.6 60.94 132.6 61.54 132.6 62.44 132.6 63.04 132.6 63.64 132.6 64.24 132.6 64.84 132.6 65.44 132.6 66.04 132.6 66.64 132.6 67.24 132.6 67.84 132.6 68.44 132.6 69.04 132.6 69.64 132.6 70.24 132.6 70.84 132.6 71.44 132.6 72.34 132.6 72.94 132.6 73.54 132.6 74.14 132.6 74.74 132.6 75.34 132.6 75.94 132.6 76.54 132.6 77.14 132.6 77.74 132.6 78.34 132.6 78.94 132.6 79.54 132.6 80.14 132.6 80.74 132.6 81.64 132.6 82.24 132.6 82.84 132.6 83.44 132.6 84.04 132.6 84.64 132.6 85.24 132.6 85.84 132.6 86.44 132.6 87.04 132.6 87.64 132.6 88.24 132.6 88.84 132.6 89.44 132.6 90.04 132.6 90.64 132.6 91.54 132.6 92.14 132.6 92.74 132.6 93.34 132.6 93.94 132.6 94.54 132.6 95.14 132.6 95.74 132.6 96.34 132.6 96.94 132.6 97.54 132.6 98.14 132.6 98.74 132.6 99.34 132.6 99.94 132.6 100.54 132.6 101.44 132.6 102.04 132.6 102.64 132.6 103.24 132.6 103.84 132.6 104.44 132.6 105.04 132.6 105.64 132.6 106.24 132.6 106.84 132.6 107.44 132.6 108.04 132.6 108.64 132.6 109.24 132.6 109.84 132.6 110.74 132.6 111.34 132.6 111.94 132.6 112.54 132.6 113.14 132.6 113.74 132.6 114.34 132.6 114.94 132.6 115.54 132.6 116.14 132.6 116.74 132.6 117.34 132.6 117.94 132.6 118.54 132.6 119.14 132.6 119.74 132.6 120.64 132.6 121.24 132.6 121.84 132.6 122.44 132.6 123.04 132.6 123.64 132.6 124.24 132.6 124.84 132.6 125.44 132.6 126.04 132.6 126.64 132.6 127.24 132.6 127.84 132.6 128.44 132.6 129.04 132.6 129.64 132.6 130.54 132.6 131.14 132.6 131.74 132.6 132.34 132.6 132.94 132.6 133.54 132.6 134.14 132.6 134.74 132.6 135.34 132.6 135.94 132.6 136.54 132.6 137.14 132.6 137.74 132.6 138.34 132.6 138.94 132.6 139.84 132.6 140.44 132.6 141.04 132.6 141.64 132.6 142.24 132.6 142.84 132.6 143.44 132.6 144.04 132.6 144.64 132.6 145.24 132.6 145.84 132.6 146.44 132.6 147.04 132.6 147.64 132.6 148.24 132.6 148.84 132.6 149.74 132.6 150.34 132.6 150.94 132.6 151.54 132.6 152.14 132.6 152.74 132.6 153.34 132.6 153.94 132.6 154.54 132.6 155.15 132.6 155.75 132.6 156.35 132.6 156.95 132.6 157.55 132.6 158.15 132.6 158.75 132.6 159.65 132.6 160.25 132.6 160.85 132.6 161.45 132.6 162.05 132.6 162.65 132.6 163.25 132.6 163.85 132.6 164.45 132.6 165.05 132.6 165.65 132.6 166.25 132.6 166.85 132.6 167.45 132.6 168.05 132.6 168.95 132.6 169.55 132.6 170.15 132.6 170.75 132.6 171.35 132.6 171.95 132.6 172.55 132.6 173.15 132.6 173.75 132.6 174.35 132.6 174.95 132.6 175.55 132.6 176.15 132.6 176.75 132.6 177.35 132.6 177.95 132.6 178.85 132.6 179.45 132.6 180.05 132.6 180.65 132.6 181.25 132.6 181.85 132.6 182.45 132.6 183.05 132.6 183.65 132.6 184.25 132.6 184.85 132.6 185.45 132.6 186.05 132.6 186.65 132.6 187.25 132.6 187.85 132.6 188.75 132.6 189.35 132.6 189.95 132.6 190.55 132.6 191.15 132.6 191.75 132.6 192.35 132.6 192.95 132.6 193.55 132.6 194.15 132.6 194.75 132.6 195.35 132.6 195.95 132.6 196.55 132.6 197.15 132.6 198.05 132.6 198.65 132.6 199.25 132.6 199.85 132.6 200.45 132.6 201.05 132.6 201.65 132.6 202.25 132.6 202.85 132.6 203.45 132.6 204.05 132.6 204.65 132.6 205.25 132.6 205.85 132.6 206.45 132.6 207.05 132.6 207.95 132.6 208.55 132.6 209.15 132.6 209.75 132.6 210.35 132.6 210.95 132.6 211.55 132.6 212.15 132.6 212.75 132.6 213.35 132.6 213.95 132.6 214.55 132.6 215.15 132.6 215.75 132.6 216.35 132.6 216.95 132.6 217.85 132.6 218.45 132.6 219.05 132.6 219.65 132.6 220.25 132.6 220.85 132.6 221.45 132.6 222.05 132.6 222.65 132.6 223.25 132.6 223.85 132.6 224.45 132.6 225.05 132.6 225.65 132.6 226.25 132.6 227.15 132.6 227.75 132.6 228.35 132.6 228.95 132.6 229.55 132.6 230.15 132.6 230.75 132.6 231.35 132.6 231.95 132.6 232.55 132.6 233.15 132.6 233.75 132.6 234.35 132.6 234.95 132.6 235.55 132.6 236.15 132.6 237.05 132.6 237.65 132.6 238.25 132.6 238.85 132.6 239.45 132.6 240.05 132.6 240.65 132.6 241.25 132.6 241.85 132.6 242.45 132.6 243.05 132.6 243.65 132.6 244.25 132.6 244.85 132.6 245.45 132.6 246.05 132.6 246.95 132.6 247.55 132.6 248.15 132.6 248.75 132.6 249.35 132.6 249.95 132.6 250.56 132.6 251.16 132.6 251.76 132.6 252.36 132.6 252.96 132.6 253.56 132.6 254.16 132.6 254.76 132.6 255.36 132.6 255.96 132.6 256.86 132.6 257.46 132.6 258.06 132.6 258.66 132.6 259.26 132.6 259.86 132.6 260.46 132.6 261.06 132.6 261.66 132.6 262.26 132.6 262.86 132.6 263.46 132.6 264.06 132.6 264.66 132.6 265.26 132.6 266.16 132.6 266.76 132.6 267.36 132.6 267.96 132.6 268.56 132.6 269.16 132.6 269.76 132.6 270.36 132.6 270.96 132.6 271.56 132.6 272.16 132.6 272.76 132.6 273.3 132.6"/>
  </g>
  <g class="cls-10">
    <g class="cls-28">
      <text class="cls-6" transform="translate(23.44 134.81)"><tspan x="0" y="0">0</tspan></text>
    </g>
  </g>
  <g class="cls-2">
    <g class="cls-3">
      <text class="cls-6" transform="translate(17.97 117.71)"><tspan class="cls-44" x="0" y="0">0</tspan><tspan class="cls-45" x="3.61" y="0">.</tspan><tspan x="5.41" y="0">2</tspan></text>
    </g>
  </g>
  <g class="cls-30">
    <g class="cls-17">
      <text class="cls-6" transform="translate(17.97 100.61)"><tspan class="cls-44" x="0" y="0">0</tspan><tspan class="cls-45" x="3.61" y="0">.</tspan><tspan x="5.41" y="0">4</tspan></text>
    </g>
  </g>
  <g class="cls-18">
    <g class="cls-23">
      <text class="cls-6" transform="translate(17.97 83.52)"><tspan class="cls-44" x="0" y="0">0</tspan><tspan class="cls-45" x="3.61" y="0">.</tspan><tspan x="5.41" y="0">6</tspan></text>
    </g>
  </g>
  <g class="cls-33">
    <g class="cls-41">
      <text class="cls-6" transform="translate(17.97 66.42)"><tspan class="cls-44" x="0" y="0">0</tspan><tspan class="cls-45" x="3.61" y="0">.</tspan><tspan x="5.41" y="0">8</tspan></text>
    </g>
  </g>
  <g class="cls-35">
    <g class="cls-8">
      <text class="cls-6" transform="translate(23.44 49.33)"><tspan x="0" y="0">1</tspan></text>
    </g>
  </g>
  <g class="cls-39">
    <g class="cls-4">
      <text class="cls-6" transform="translate(17.97 32.23)"><tspan class="cls-44" x="0" y="0">1</tspan><tspan class="cls-45" x="3.61" y="0">.</tspan><tspan x="5.41" y="0">2</tspan></text>
    </g>
  </g>
  <g class="cls-9">
    <path class="cls-7" d="M13.15,164.24s.06.06.07.09c.02.03.03.05.03.07,0,.02,0,.04,0,.06,0,.02-.01.03-.02.04l-1.68,1.68s-.03.02-.04.02-.03,0-.06,0-.05-.01-.07-.03c-.03-.02-.06-.04-.09-.07-.03-.03-.05-.06-.07-.08s-.03-.05-.03-.07,0-.04,0-.06c0-.02.01-.03.02-.05l.67-.67-2.45-2.45-.25.99s-.03.08-.05.11-.03.03-.06.03-.05,0-.08-.03c-.03-.02-.06-.05-.1-.09-.03-.03-.05-.05-.07-.08-.02-.02-.03-.04-.04-.06,0-.02-.01-.04-.01-.06,0-.02,0-.04,0-.07l.27-1.22s0-.02.01-.04c0-.01.02-.03.03-.05.01-.02.03-.04.05-.06.02-.02.04-.05.07-.08.04-.04.07-.07.1-.09s.06-.04.08-.05c.02,0,.04-.01.05,0,.01,0,.03.01.04.02l2.83,2.83.58-.58s.03-.02.05-.03c.02,0,.04,0,.06,0,.02,0,.05.02.07.04s.05.04.08.07h0ZM15.67,161.69s.05.06.07.09.03.05.04.08c0,.02,0,.04,0,.06,0,.02-.01.04-.03.05l-1.78,1.78s-.05.04-.07.05c-.02.01-.05.02-.07.02-.03,0-.05-.01-.08-.03-.03-.02-.06-.05-.1-.08-.03-.03-.06-.06-.08-.09-.02-.03-.04-.05-.05-.08-.01-.03-.02-.06-.03-.09,0-.03,0-.07-.01-.11l-.02-1.3c0-.3-.02-.56-.05-.77-.03-.21-.07-.39-.12-.54s-.11-.27-.17-.37c-.07-.1-.13-.18-.21-.25s-.15-.13-.24-.17c-.09-.04-.18-.06-.27-.06-.09,0-.19.02-.28.06s-.19.1-.28.19c-.1.1-.18.21-.24.32s-.1.21-.13.31c-.03.1-.05.18-.06.25-.01.07-.03.12-.05.14-.01.01-.03.02-.04.02-.02,0-.03,0-.06,0-.02,0-.05-.02-.07-.05-.03-.02-.06-.05-.09-.08-.02-.02-.05-.05-.06-.07-.02-.02-.03-.04-.04-.06,0-.02-.02-.04-.02-.05,0-.02,0-.05,0-.08,0-.04.01-.1.03-.17.02-.08.05-.17.1-.27.04-.1.1-.21.17-.32s.15-.21.25-.31c.16-.16.31-.27.47-.34.16-.07.32-.11.47-.11.15,0,.3.03.44.09.14.06.27.15.38.27.1.1.2.21.28.33.08.12.16.27.22.45.06.18.11.39.14.65s.05.57.06.94l.02,1.04,1.4-1.4s.03-.02.05-.03c.02,0,.04,0,.07,0s.05.02.08.04c.03.02.05.04.08.07h0ZM17.12,161.81s.02.05.02.08c0,.02,0,.05-.01.07,0,.02-.03.05-.05.08s-.05.06-.08.09c-.04.04-.08.07-.11.09s-.06.03-.09.04c-.03,0-.05,0-.07-.01s-.03-.03-.05-.07l-2.62-5.63s-.02-.05-.02-.08c0-.02,0-.05,0-.07s.02-.05.05-.08.05-.06.09-.09c.04-.04.08-.07.11-.09.03-.02.06-.03.09-.04s.05,0,.07.01c.02.01.04.03.05.06l2.62,5.63ZM20.34,157.02s.05.06.07.09.03.05.04.08,0,.04,0,.06c0,.02-.01.04-.03.05l-1.78,1.78s-.05.04-.07.05c-.02.01-.05.02-.07.02s-.05-.01-.08-.03c-.03-.02-.06-.05-.1-.08-.03-.03-.06-.06-.08-.09-.02-.03-.04-.05-.05-.08-.01-.03-.02-.06-.03-.09,0-.03,0-.07-.01-.11l-.02-1.3c0-.3-.02-.56-.05-.77-.03-.21-.07-.39-.12-.54-.05-.15-.11-.27-.17-.37-.07-.1-.13-.18-.21-.25s-.15-.13-.24-.17c-.09-.04-.18-.06-.27-.06s-.19.02-.28.06c-.1.04-.19.1-.28.19-.1.1-.18.21-.24.32-.05.11-.1.21-.13.31-.03.1-.05.18-.06.25-.01.07-.03.12-.05.14-.01.01-.03.02-.04.02-.02,0-.03,0-.06,0-.02,0-.05-.02-.07-.05s-.06-.05-.09-.08c-.02-.02-.05-.05-.06-.07s-.03-.04-.04-.06c0-.02-.02-.04-.02-.05s0-.05,0-.08c0-.04.01-.1.03-.17.02-.08.05-.17.1-.27s.1-.21.17-.32c.07-.11.15-.21.25-.31.16-.16.31-.27.47-.34.16-.07.32-.11.47-.11.15,0,.3.03.44.09.14.06.27.15.38.27.1.1.2.21.28.33.08.12.16.27.22.45.06.18.11.39.14.65.03.26.05.57.06.94l.02,1.04,1.4-1.4s.03-.02.05-.03c.02,0,.04,0,.07,0s.05.02.08.04.05.04.08.07h0ZM22.02,153.64c.17.17.3.35.37.55.08.19.11.39.09.59s-.07.39-.17.59c-.1.19-.24.38-.42.56-.1.1-.2.19-.3.26-.1.08-.2.14-.29.19s-.17.09-.23.11c-.06.02-.11.04-.13.04-.02,0-.04,0-.06,0s-.03-.01-.05-.02c-.02,0-.04-.02-.06-.04-.02-.02-.05-.04-.08-.07-.03-.03-.05-.05-.07-.08s-.03-.05-.04-.07,0-.04,0-.05c0-.02,0-.03.02-.04.02-.02.05-.03.11-.05.06-.01.12-.04.21-.07.08-.03.18-.08.29-.15.11-.07.22-.16.34-.28.11-.11.2-.23.27-.35.07-.12.1-.24.12-.36.01-.12,0-.25-.05-.37s-.13-.25-.25-.37c-.1-.1-.21-.18-.32-.22s-.23-.06-.35-.05c-.12.01-.24.06-.37.14-.13.08-.26.19-.41.33-.1.1-.18.19-.25.28-.06.08-.13.16-.19.22-.05.05-.09.07-.13.07-.04,0-.09-.03-.15-.09l-1.31-1.31c-.05-.05-.08-.11-.08-.16,0-.05.02-.1.07-.15l1.42-1.42s.03-.02.05-.03c.02,0,.04,0,.06,0,.02,0,.05.02.08.04.03.02.06.04.09.08.06.06.1.11.12.16.02.05.01.09-.02.12l-1.15,1.15.9.9c.05-.06.1-.13.16-.19.06-.06.12-.13.2-.2.18-.18.35-.31.53-.4.18-.09.35-.14.52-.15s.33.02.49.09c.16.07.31.17.45.31h0ZM24.33,154.59s.02.05.02.08c0,.02,0,.05-.01.07,0,.02-.03.05-.05.08-.02.03-.05.06-.08.09-.04.04-.08.07-.11.09s-.06.03-.09.04c-.03,0-.05,0-.07-.01-.02-.01-.03-.03-.05-.07l-2.62-5.63s-.02-.05-.02-.08,0-.05,0-.07c0-.02.02-.05.05-.08.02-.03.05-.06.09-.09.04-.04.08-.07.11-.09.03-.02.06-.03.09-.04.02,0,.05,0,.07.01.02.01.04.03.05.06l2.62,5.63ZM27.34,150.02s.05.06.07.09c.02.03.03.05.04.08,0,.02,0,.04,0,.06,0,.02-.01.04-.03.05l-1.78,1.78s-.05.04-.07.05c-.02.01-.05.02-.07.02-.03,0-.05-.01-.08-.03-.03-.02-.06-.05-.1-.08-.03-.03-.06-.06-.08-.09-.02-.03-.04-.05-.05-.08-.01-.03-.02-.06-.03-.09,0-.03,0-.07-.01-.11l-.02-1.3c0-.3-.02-.56-.05-.77-.03-.21-.07-.39-.12-.54-.05-.15-.11-.27-.17-.37-.07-.1-.13-.18-.21-.25s-.15-.13-.24-.17c-.09-.04-.18-.06-.27-.06-.09,0-.19.02-.28.06s-.19.1-.28.19c-.1.1-.18.21-.24.32s-.1.21-.13.31c-.03.1-.05.18-.06.25-.01.07-.03.12-.05.14-.01.01-.03.02-.04.02-.02,0-.03,0-.06,0-.02,0-.05-.02-.07-.05-.03-.02-.06-.05-.09-.08-.02-.02-.05-.05-.06-.07-.02-.02-.03-.04-.04-.06,0-.02-.02-.04-.02-.05,0-.02,0-.05,0-.08,0-.04.01-.1.03-.17.02-.08.05-.17.1-.27.04-.1.1-.21.17-.32.07-.11.15-.21.25-.31.16-.16.31-.27.47-.34.16-.07.32-.11.47-.11s.3.03.44.09c.14.06.27.15.38.27.1.1.2.21.28.33s.16.27.22.45c.06.18.11.39.14.65s.05.57.06.94l.02,1.04,1.4-1.4s.03-.02.05-.03c.02,0,.04,0,.07,0,.02,0,.05.02.08.04.03.02.05.04.08.07h0ZM28.56,145.94c.25.25.45.49.62.73.16.24.28.48.33.72.06.24.05.47-.01.69-.07.23-.21.45-.42.66-.2.2-.41.34-.62.4-.21.07-.43.07-.65.02-.22-.06-.46-.17-.7-.34-.24-.17-.49-.39-.76-.65-.25-.25-.45-.49-.62-.73-.16-.24-.28-.48-.33-.72-.06-.24-.05-.47.01-.69.07-.23.2-.45.42-.66.2-.2.41-.34.62-.41.21-.07.43-.07.65-.02.22.06.46.17.7.34s.49.39.76.65h0ZM28.15,146.4c-.16-.16-.31-.3-.45-.42-.14-.12-.27-.21-.39-.29s-.23-.13-.34-.17c-.11-.03-.21-.05-.3-.05s-.19.03-.27.07-.17.1-.25.18c-.14.14-.22.29-.24.44-.02.15,0,.31.07.48.07.17.17.34.3.51s.3.35.47.53c.24.24.46.43.65.58.19.14.37.24.53.29s.31.06.44.02c.13-.04.26-.11.38-.23.09-.09.16-.19.2-.29.04-.1.06-.2.05-.31,0-.11-.03-.21-.07-.33-.04-.11-.1-.22-.18-.34-.07-.11-.16-.23-.27-.35-.1-.12-.21-.24-.33-.36h0ZM32.45,144.94s.06.06.07.09.03.05.03.07,0,.04,0,.06c0,.02-.01.03-.02.04l-1.68,1.68s-.03.02-.04.02-.03,0-.06,0-.05-.01-.07-.03-.06-.04-.09-.07c-.03-.03-.05-.06-.07-.08-.02-.03-.03-.05-.03-.07,0-.02,0-.04,0-.06,0-.02.01-.03.02-.05l.67-.67-2.45-2.45-.25.99s-.03.08-.05.11c-.02.02-.03.03-.06.03-.02,0-.05,0-.08-.03-.03-.02-.06-.05-.1-.09-.03-.03-.05-.05-.07-.08-.02-.02-.03-.04-.04-.06s-.01-.04-.01-.06,0-.04,0-.07l.27-1.22s0-.02.01-.04c0-.01.02-.03.03-.05.01-.02.03-.04.05-.06s.04-.05.07-.08c.04-.04.07-.07.1-.09s.06-.04.08-.05c.02,0,.04-.01.05,0,.01,0,.03.01.04.02l2.83,2.83.58-.58s.03-.02.05-.03c.02,0,.04,0,.06,0s.05.02.07.04.05.04.08.07h0ZM34.41,141.23c.14.14.26.3.34.47s.14.36.15.55-.02.38-.1.58c-.08.2-.21.39-.4.58-.13.13-.27.24-.41.31s-.27.11-.41.13-.28,0-.42-.04c-.14-.04-.28-.1-.43-.18-.15-.08-.29-.19-.44-.31-.15-.12-.3-.26-.46-.42-.14-.14-.27-.28-.4-.44s-.24-.32-.33-.49-.16-.34-.21-.52c-.05-.18-.07-.36-.05-.55.01-.18.06-.37.15-.56.09-.19.22-.37.41-.55.06-.06.13-.12.2-.18.07-.06.14-.1.2-.14.07-.04.12-.07.18-.09s.09-.03.11-.04c.02,0,.04,0,.06,0,.02,0,.03.01.05.02.02,0,.03.02.05.03.02.01.04.03.06.06.03.03.06.06.08.08.02.02.03.04.04.06,0,.02,0,.04,0,.05,0,.02-.01.03-.03.05-.02.02-.05.04-.09.06-.04.02-.09.05-.15.08-.06.03-.13.07-.2.12-.08.05-.16.12-.24.21-.15.15-.26.32-.3.49s-.05.35-.02.53c.04.18.11.35.21.53.11.17.23.34.38.5.02-.07.04-.14.07-.22.03-.08.07-.16.11-.24.04-.08.1-.17.15-.25.06-.08.13-.17.21-.25.17-.17.34-.3.51-.37.17-.07.33-.1.49-.09.16,0,.31.06.45.14s.28.19.42.32h0ZM34.02,141.7c-.1-.1-.19-.17-.29-.23-.1-.06-.2-.09-.3-.1s-.2,0-.31.05c-.1.04-.21.12-.32.23-.06.06-.12.13-.17.2-.05.07-.09.15-.13.22s-.07.15-.1.23c-.03.08-.05.15-.06.23.21.21.41.38.58.5.17.12.33.19.47.23.14.03.27.03.38,0,.12-.04.22-.11.33-.22.11-.11.18-.22.22-.34.04-.12.05-.24.03-.35-.02-.12-.05-.23-.11-.34-.06-.11-.13-.21-.22-.29h0Z"/>
  </g>
  <g class="cls-36">
    <path class="cls-7" d="M45.44,164.24s.06.06.07.09c.02.03.03.05.03.07,0,.02,0,.04,0,.06,0,.02-.01.03-.02.04l-1.68,1.68s-.03.02-.04.02c-.02,0-.03,0-.06,0s-.05-.01-.07-.03-.06-.04-.09-.07c-.03-.03-.05-.06-.07-.08-.02-.03-.03-.05-.03-.07s0-.04,0-.06c0-.02.01-.03.02-.05l.67-.67-2.45-2.45-.25.99s-.03.08-.05.11-.03.03-.06.03c-.02,0-.05,0-.08-.03s-.06-.05-.1-.09c-.03-.03-.05-.05-.07-.08-.02-.02-.03-.04-.04-.06,0-.02-.01-.04-.01-.06,0-.02,0-.04,0-.07l.27-1.22s0-.02.01-.04c0-.01.02-.03.03-.05.01-.02.03-.04.05-.06s.04-.05.07-.08c.04-.04.07-.07.1-.09s.06-.04.08-.05c.02,0,.04-.01.05,0,.01,0,.03.01.04.02l2.83,2.83.58-.58s.03-.02.05-.03c.02,0,.04,0,.06,0,.02,0,.05.02.07.04s.05.04.08.07h0ZM47.96,161.69s.05.06.07.09.03.05.04.08c0,.02,0,.04,0,.06,0,.02-.01.04-.03.05l-1.78,1.78s-.05.04-.07.05c-.02.01-.05.02-.07.02s-.05-.01-.08-.03c-.03-.02-.06-.05-.1-.08-.03-.03-.06-.06-.08-.09-.02-.03-.04-.05-.05-.08-.01-.03-.02-.06-.03-.09,0-.03,0-.07-.01-.11l-.02-1.3c0-.3-.02-.56-.05-.77-.03-.21-.07-.39-.12-.54s-.11-.27-.17-.37c-.07-.1-.13-.18-.21-.25-.07-.07-.15-.13-.24-.17-.09-.04-.18-.06-.27-.06-.09,0-.19.02-.28.06s-.19.1-.28.19c-.1.1-.18.21-.24.32s-.1.21-.13.31c-.03.1-.05.18-.06.25-.01.07-.03.12-.05.14-.01.01-.03.02-.04.02-.02,0-.03,0-.06,0s-.05-.02-.07-.05c-.03-.02-.06-.05-.09-.08-.02-.02-.05-.05-.06-.07-.02-.02-.03-.04-.04-.06,0-.02-.02-.04-.02-.05,0-.02,0-.05,0-.08s.01-.1.03-.17c.02-.08.05-.17.1-.27s.1-.21.17-.32c.07-.11.15-.21.25-.31.16-.16.31-.27.47-.34.16-.07.32-.11.47-.11.15,0,.3.03.44.09.14.06.27.15.38.27.1.1.2.21.28.33.08.12.16.27.22.45.06.18.11.39.14.65s.05.57.06.94l.02,1.04,1.4-1.4s.03-.02.05-.03.04,0,.07,0c.02,0,.05.02.08.04.03.02.05.04.08.07h0ZM49.41,161.81s.02.05.02.08c0,.02,0,.05-.01.07,0,.02-.03.05-.05.08-.02.03-.05.06-.08.09-.04.04-.08.07-.11.09s-.06.03-.09.04c-.03,0-.05,0-.07-.01s-.03-.03-.05-.07l-2.62-5.63s-.02-.05-.02-.08c0-.02,0-.05,0-.07,0-.02.02-.05.05-.08.02-.03.05-.06.09-.09.04-.04.08-.07.11-.09.03-.02.06-.03.09-.04s.05,0,.07.01c.02.01.04.03.05.06l2.62,5.63ZM52.63,157.02s.05.06.07.09.03.05.04.08c0,.02,0,.04,0,.06,0,.02-.01.04-.03.05l-1.78,1.78s-.05.04-.07.05c-.02.01-.05.02-.07.02s-.05-.01-.08-.03c-.03-.02-.06-.05-.1-.08-.03-.03-.06-.06-.08-.09-.02-.03-.04-.05-.05-.08-.01-.03-.02-.06-.03-.09,0-.03,0-.07-.01-.11l-.02-1.3c0-.3-.02-.56-.05-.77-.03-.21-.07-.39-.12-.54s-.11-.27-.17-.37c-.07-.1-.13-.18-.21-.25s-.15-.13-.24-.17c-.09-.04-.18-.06-.27-.06-.09,0-.19.02-.28.06-.1.04-.19.1-.28.19-.1.1-.18.21-.24.32s-.1.21-.13.31c-.03.1-.05.18-.06.25-.01.07-.03.12-.05.14-.01.01-.03.02-.04.02s-.03,0-.06,0-.05-.02-.07-.05c-.03-.02-.06-.05-.09-.08-.02-.02-.05-.05-.06-.07-.02-.02-.03-.04-.04-.06,0-.02-.02-.04-.02-.05,0-.02,0-.05,0-.08,0-.04.01-.1.03-.17.02-.08.05-.17.1-.27s.1-.21.17-.32c.07-.11.15-.21.25-.31.16-.16.31-.27.47-.34.16-.07.32-.11.47-.11.15,0,.3.03.44.09.14.06.27.15.38.27.1.1.2.21.28.33.08.12.16.27.22.45.06.18.11.39.14.65.03.26.05.57.06.94l.02,1.04,1.4-1.4s.03-.02.05-.03.04,0,.07,0c.02,0,.05.02.08.04s.05.04.08.07h0ZM54.31,153.64c.17.17.3.35.37.55.08.19.11.39.09.59s-.07.39-.17.59-.24.38-.42.56c-.1.1-.2.19-.3.26-.1.08-.2.14-.29.19-.09.05-.17.09-.23.11-.06.02-.11.04-.13.04-.02,0-.04,0-.06,0s-.03-.01-.05-.02c-.02,0-.04-.02-.06-.04-.02-.02-.05-.04-.08-.07-.03-.03-.05-.05-.07-.08s-.03-.05-.04-.07c0-.02,0-.04,0-.05,0-.02,0-.03.02-.04.02-.02.05-.03.11-.05.06-.01.12-.04.21-.07.08-.03.18-.08.29-.15.11-.07.22-.16.34-.28.11-.11.2-.23.27-.35s.1-.24.12-.36c.01-.12,0-.25-.05-.37s-.13-.25-.25-.37c-.1-.1-.21-.18-.32-.22s-.23-.06-.35-.05c-.12.01-.24.06-.37.14-.13.08-.26.19-.41.33-.1.1-.18.19-.25.28-.06.08-.13.16-.19.22-.05.05-.09.07-.13.07-.04,0-.09-.03-.15-.09l-1.31-1.31c-.05-.05-.08-.11-.08-.16,0-.05.02-.1.07-.15l1.42-1.42s.03-.02.05-.03.04,0,.06,0c.02,0,.05.02.08.04.03.02.06.04.09.08.06.06.1.11.12.16.02.05.01.09-.02.12l-1.15,1.15.9.9c.05-.06.1-.13.16-.19.06-.06.12-.13.2-.2.18-.18.35-.31.53-.4.18-.09.35-.14.52-.15.17,0,.33.02.49.09.16.07.31.17.45.31h0ZM56.62,154.59s.02.05.02.08c0,.02,0,.05-.01.07,0,.02-.03.05-.05.08-.02.03-.05.06-.08.09-.04.04-.08.07-.11.09s-.06.03-.09.04c-.03,0-.05,0-.07-.01-.02-.01-.03-.03-.05-.07l-2.62-5.63s-.02-.05-.02-.08,0-.05,0-.07c0-.02.02-.05.05-.08.02-.03.05-.06.09-.09.04-.04.08-.07.11-.09s.06-.03.09-.04c.02,0,.05,0,.07.01.02.01.04.03.05.06l2.62,5.63ZM59.63,150.02s.05.06.07.09.03.05.04.08c0,.02,0,.04,0,.06,0,.02-.01.04-.03.05l-1.78,1.78s-.05.04-.07.05c-.02.01-.05.02-.07.02s-.05-.01-.08-.03c-.03-.02-.06-.05-.1-.08-.03-.03-.06-.06-.08-.09-.02-.03-.04-.05-.05-.08s-.02-.06-.03-.09c0-.03,0-.07-.01-.11l-.02-1.3c0-.3-.02-.56-.05-.77-.03-.21-.07-.39-.12-.54-.05-.15-.11-.27-.17-.37-.07-.1-.13-.18-.21-.25-.07-.07-.15-.13-.24-.17s-.18-.06-.27-.06c-.09,0-.19.02-.28.06s-.19.1-.28.19c-.1.1-.18.21-.24.32-.05.11-.1.21-.13.31-.03.1-.05.18-.06.25s-.03.12-.05.14c-.01.01-.03.02-.04.02-.02,0-.03,0-.06,0-.02,0-.05-.02-.07-.05-.03-.02-.06-.05-.09-.08-.02-.02-.05-.05-.06-.07-.02-.02-.03-.04-.04-.06,0-.02-.02-.04-.02-.05,0-.02,0-.05,0-.08,0-.04.01-.1.03-.17.02-.08.05-.17.1-.27.04-.1.1-.21.17-.32.07-.11.15-.21.25-.31.16-.16.31-.27.47-.34.16-.07.32-.11.47-.11s.3.03.44.09c.14.06.27.15.38.27.1.1.2.21.28.33s.16.27.22.45c.06.18.11.39.14.65s.05.57.06.94l.02,1.04,1.4-1.4s.03-.02.05-.03c.02,0,.04,0,.07,0s.05.02.08.04c.03.02.05.04.08.07h0ZM60.85,145.94c.25.25.45.49.62.73.16.24.28.48.33.72.06.24.05.47-.01.69-.07.23-.21.45-.42.66-.2.2-.41.34-.62.4-.21.07-.43.07-.65.02-.22-.06-.46-.17-.7-.34-.24-.17-.49-.39-.76-.65-.25-.25-.45-.49-.62-.73-.16-.24-.28-.48-.33-.72-.06-.24-.05-.47.01-.69.07-.23.2-.45.42-.66.2-.2.41-.34.62-.41.21-.07.43-.07.65-.02.22.06.46.17.7.34s.49.39.76.65h0ZM60.44,146.4c-.16-.16-.31-.3-.45-.42-.14-.12-.27-.21-.39-.29s-.23-.13-.34-.17c-.11-.03-.21-.05-.3-.05-.1,0-.19.03-.27.07-.08.04-.17.1-.25.18-.14.14-.22.29-.24.44-.02.15,0,.31.07.48.07.17.17.34.3.51s.3.35.47.53c.24.24.46.43.65.58.19.14.37.24.53.29s.31.06.44.02c.13-.04.26-.11.38-.23.09-.09.16-.19.2-.29.04-.1.06-.2.05-.31,0-.11-.03-.21-.07-.33-.04-.11-.1-.22-.18-.34s-.16-.23-.27-.35c-.1-.12-.21-.24-.33-.36h0ZM64.74,144.94s.06.06.07.09.03.05.03.07,0,.04,0,.06c0,.02-.01.03-.02.04l-1.68,1.68s-.03.02-.04.02-.03,0-.06,0-.05-.01-.07-.03c-.03-.02-.06-.04-.09-.07-.03-.03-.05-.06-.07-.08-.02-.03-.03-.05-.03-.07,0-.02,0-.04,0-.06,0-.02.01-.03.02-.05l.67-.67-2.45-2.45-.25.99s-.03.08-.05.11c-.02.02-.03.03-.06.03-.02,0-.05,0-.08-.03-.03-.02-.06-.05-.1-.09-.03-.03-.05-.05-.07-.08-.02-.02-.03-.04-.04-.06,0-.02-.01-.04-.01-.06s0-.04,0-.07l.27-1.22s0-.02.01-.04c0-.01.02-.03.03-.05.01-.02.03-.04.05-.06.02-.02.04-.05.07-.08.04-.04.07-.07.1-.09s.06-.04.08-.05c.02,0,.04-.01.05,0,.01,0,.03.01.04.02l2.83,2.83.58-.58s.03-.02.05-.03c.02,0,.04,0,.06,0s.05.02.07.04c.03.02.05.04.08.07h0ZM64.67,139.28s.06.06.08.08c.02.03.04.05.06.08s.03.05.05.08c.01.03.03.06.04.09l1.51,3.83s.02.05.02.08,0,.05-.02.08c-.01.03-.03.06-.06.09-.03.03-.06.07-.11.11-.06.06-.1.1-.14.12s-.07.04-.09.04c-.02,0-.04,0-.06-.02-.01-.02-.03-.04-.04-.07l-1.51-3.95-1.54,1.54s-.07.04-.12.02c-.05-.02-.1-.06-.16-.12-.03-.03-.06-.06-.08-.09-.02-.03-.03-.05-.04-.08,0-.02,0-.05,0-.06,0-.02.01-.04.03-.05l1.87-1.87s.05-.04.07-.05c.02-.01.05-.02.07,0,.02,0,.05.02.08.04.03.02.06.05.1.08h0Z"/>
  </g>
  <g class="cls-29">
    <path class="cls-7" d="M77.72,164.24s.06.06.07.09c.02.03.03.05.03.07,0,.02,0,.04,0,.06,0,.02-.01.03-.02.04l-1.68,1.68s-.03.02-.04.02c-.02,0-.03,0-.06,0s-.05-.01-.07-.03c-.03-.02-.06-.04-.09-.07-.03-.03-.05-.06-.07-.08-.02-.03-.03-.05-.03-.07,0-.02,0-.04,0-.06,0-.02.01-.03.02-.05l.67-.67-2.45-2.45-.25.99s-.03.08-.05.11-.03.03-.06.03c-.02,0-.05,0-.08-.03-.03-.02-.06-.05-.1-.09-.03-.03-.05-.05-.07-.08-.02-.02-.03-.04-.04-.06,0-.02-.01-.04-.01-.06,0-.02,0-.04,0-.07l.27-1.22s0-.02.01-.04c0-.01.02-.03.03-.05.01-.02.03-.04.05-.06s.04-.05.07-.08c.04-.04.07-.07.1-.09s.06-.04.08-.05c.02,0,.04-.01.05,0,.01,0,.03.01.04.02l2.83,2.83.58-.58s.03-.02.05-.03c.02,0,.04,0,.06,0s.05.02.07.04.05.04.08.07h0ZM80.25,161.69s.05.06.07.09c.02.03.03.05.04.08,0,.02,0,.04,0,.06,0,.02-.01.04-.03.05l-1.78,1.78s-.05.04-.07.05c-.02.01-.05.02-.07.02s-.05-.01-.08-.03c-.03-.02-.06-.05-.1-.08-.03-.03-.06-.06-.08-.09-.02-.03-.04-.05-.05-.08-.01-.03-.02-.06-.03-.09,0-.03,0-.07-.01-.11l-.02-1.3c0-.3-.02-.56-.05-.77-.03-.21-.07-.39-.12-.54-.05-.15-.11-.27-.17-.37-.07-.1-.13-.18-.21-.25-.07-.07-.15-.13-.24-.17-.09-.04-.18-.06-.27-.06s-.19.02-.28.06-.19.1-.28.19c-.1.1-.18.21-.24.32-.05.11-.1.21-.13.31-.03.1-.05.18-.06.25-.01.07-.03.12-.05.14-.01.01-.03.02-.04.02-.02,0-.03,0-.06,0s-.05-.02-.07-.05c-.03-.02-.06-.05-.09-.08-.02-.02-.05-.05-.06-.07-.02-.02-.03-.04-.04-.06,0-.02-.02-.04-.02-.05,0-.02,0-.05,0-.08s.01-.1.03-.17c.02-.08.05-.17.1-.27s.1-.21.17-.32.15-.21.25-.31c.16-.16.31-.27.47-.34.16-.07.32-.11.47-.11.15,0,.3.03.44.09.14.06.27.15.38.27.1.1.2.21.28.33.08.12.16.27.22.45.06.18.11.39.14.65s.05.57.06.94l.02,1.04,1.4-1.4s.03-.02.05-.03c.02,0,.04,0,.07,0s.05.02.08.04c.03.02.05.04.08.07h0ZM81.7,161.81s.02.05.02.08c0,.02,0,.05-.01.07,0,.02-.03.05-.05.08-.02.03-.05.06-.08.09-.04.04-.08.07-.11.09-.03.02-.06.03-.09.04-.03,0-.05,0-.07-.01s-.03-.03-.05-.07l-2.62-5.63s-.02-.05-.02-.08c0-.02,0-.05,0-.07s.02-.05.05-.08c.02-.03.05-.06.09-.09.04-.04.08-.07.11-.09s.06-.03.09-.04.05,0,.07.01c.02.01.04.03.05.06l2.62,5.63ZM84.91,157.02s.05.06.07.09.03.05.04.08c0,.02,0,.04,0,.06s-.01.04-.03.05l-1.78,1.78s-.05.04-.07.05-.05.02-.07.02-.05-.01-.08-.03c-.03-.02-.06-.05-.1-.08-.03-.03-.06-.06-.08-.09-.02-.03-.04-.05-.05-.08-.01-.03-.02-.06-.03-.09,0-.03,0-.07-.01-.11l-.02-1.3c0-.3-.02-.56-.05-.77-.03-.21-.07-.39-.12-.54s-.11-.27-.17-.37c-.07-.1-.13-.18-.21-.25-.07-.07-.15-.13-.24-.17-.09-.04-.18-.06-.27-.06s-.19.02-.28.06c-.1.04-.19.1-.28.19-.1.1-.18.21-.24.32-.05.11-.1.21-.13.31-.03.1-.05.18-.06.25-.01.07-.03.12-.05.14-.01.01-.03.02-.04.02s-.03,0-.06,0c-.02,0-.05-.02-.07-.05-.03-.02-.06-.05-.09-.08-.02-.02-.05-.05-.06-.07-.02-.02-.03-.04-.04-.06,0-.02-.02-.04-.02-.05,0-.02,0-.05,0-.08,0-.04.01-.1.03-.17.02-.08.05-.17.1-.27s.1-.21.17-.32.15-.21.25-.31c.16-.16.31-.27.47-.34.16-.07.32-.11.47-.11.15,0,.3.03.44.09.14.06.27.15.38.27.1.1.2.21.28.33.08.12.16.27.22.45.06.18.11.39.14.65.03.26.05.57.06.94l.02,1.04,1.4-1.4s.03-.02.05-.03.04,0,.07,0c.02,0,.05.02.08.04.03.02.05.04.08.07h0ZM86.6,153.64c.17.17.3.35.37.55.08.19.11.39.09.59-.01.2-.07.39-.17.59-.1.19-.24.38-.42.56-.1.1-.2.19-.3.26-.1.08-.2.14-.29.19-.09.05-.17.09-.23.11-.06.02-.11.04-.13.04-.02,0-.04,0-.06,0s-.03-.01-.05-.02c-.02,0-.04-.02-.06-.04-.02-.02-.05-.04-.08-.07-.03-.03-.05-.05-.07-.08-.02-.02-.03-.05-.04-.07,0-.02,0-.04,0-.05,0-.02,0-.03.02-.04.02-.02.05-.03.11-.05.06-.01.12-.04.21-.07.08-.03.18-.08.29-.15s.22-.16.34-.28c.11-.11.2-.23.27-.35s.1-.24.12-.36c.01-.12,0-.25-.05-.37s-.13-.25-.25-.37c-.1-.1-.21-.18-.32-.22s-.23-.06-.35-.05c-.12.01-.24.06-.37.14-.13.08-.26.19-.41.33-.1.1-.18.19-.25.28-.06.08-.13.16-.19.22-.05.05-.09.07-.13.07-.04,0-.09-.03-.15-.09l-1.31-1.31c-.05-.05-.08-.11-.08-.16,0-.05.02-.1.07-.15l1.42-1.42s.03-.02.05-.03c.02,0,.04,0,.06,0,.02,0,.05.02.08.04.03.02.06.04.09.08.06.06.1.11.12.16.02.05.01.09-.02.12l-1.15,1.15.9.9c.05-.06.1-.13.16-.19s.12-.13.2-.2c.18-.18.35-.31.53-.4.18-.09.35-.14.52-.15s.33.02.49.09c.16.07.31.17.45.31h0ZM88.91,154.59s.02.05.02.08c0,.02,0,.05-.01.07,0,.02-.03.05-.05.08s-.05.06-.08.09c-.04.04-.08.07-.11.09-.03.02-.06.03-.09.04-.03,0-.05,0-.07-.01-.02-.01-.03-.03-.05-.07l-2.62-5.63s-.02-.05-.02-.08,0-.05,0-.07.02-.05.05-.08c.02-.03.05-.06.09-.09.04-.04.08-.07.11-.09s.06-.03.09-.04c.02,0,.05,0,.07.01.02.01.04.03.05.06l2.62,5.63ZM91.91,150.02s.05.06.07.09.03.05.04.08c0,.02,0,.04,0,.06,0,.02-.01.04-.03.05l-1.78,1.78s-.05.04-.07.05c-.02.01-.05.02-.07.02-.03,0-.05-.01-.08-.03-.03-.02-.06-.05-.1-.08-.03-.03-.06-.06-.08-.09-.02-.03-.04-.05-.05-.08-.01-.03-.02-.06-.03-.09,0-.03,0-.07-.01-.11l-.02-1.3c0-.3-.02-.56-.05-.77-.03-.21-.07-.39-.12-.54s-.11-.27-.17-.37c-.07-.1-.13-.18-.21-.25s-.15-.13-.24-.17-.18-.06-.27-.06c-.09,0-.19.02-.28.06-.1.04-.19.1-.28.19-.1.1-.18.21-.24.32-.05.11-.1.21-.13.31-.03.1-.05.18-.06.25s-.03.12-.05.14c-.01.01-.03.02-.04.02-.02,0-.03,0-.06,0-.02,0-.05-.02-.07-.05-.03-.02-.06-.05-.09-.08-.02-.02-.05-.05-.06-.07-.02-.02-.03-.04-.04-.06,0-.02-.02-.04-.02-.05,0-.02,0-.05,0-.08,0-.04.01-.1.03-.17.02-.08.05-.17.1-.27.04-.1.1-.21.17-.32.07-.11.15-.21.25-.31.16-.16.31-.27.47-.34.16-.07.32-.11.47-.11s.3.03.44.09c.14.06.27.15.38.27.1.1.2.21.28.33s.16.27.22.45c.06.18.11.39.14.65.03.26.05.57.06.94l.02,1.04,1.4-1.4s.03-.02.05-.03c.02,0,.04,0,.07,0,.02,0,.05.02.08.04.03.02.05.04.08.07h0ZM93.14,145.94c.25.25.45.49.62.73.16.24.28.48.33.72.06.24.05.47-.01.69-.07.23-.21.45-.42.66-.2.2-.41.34-.62.4-.21.07-.43.07-.65.02s-.46-.17-.7-.34c-.24-.17-.49-.39-.76-.65-.25-.25-.45-.49-.62-.73-.16-.24-.28-.48-.33-.72-.06-.24-.05-.47.01-.69.07-.23.2-.45.42-.66.2-.2.41-.34.62-.41.21-.07.43-.07.65-.02.22.06.46.17.7.34s.49.39.76.65h0ZM92.73,146.4c-.16-.16-.31-.3-.45-.42-.14-.12-.27-.21-.39-.29-.12-.08-.23-.13-.34-.17-.11-.03-.21-.05-.3-.05-.1,0-.19.03-.27.07-.08.04-.17.1-.25.18-.14.14-.22.29-.24.44-.02.15,0,.31.07.48.07.17.17.34.3.51s.3.35.47.53c.24.24.46.43.65.58.19.14.37.24.53.29s.31.06.44.02c.13-.04.26-.11.38-.23.09-.09.16-.19.2-.29.04-.1.06-.2.05-.31,0-.11-.03-.21-.07-.33-.04-.11-.1-.22-.18-.34s-.16-.23-.27-.35-.21-.24-.33-.36h0ZM97.03,144.94s.06.06.07.09.03.05.03.07c0,.02,0,.04,0,.06,0,.02-.01.03-.02.04l-1.68,1.68s-.03.02-.04.02-.03,0-.06,0-.05-.01-.07-.03c-.03-.02-.06-.04-.09-.07-.03-.03-.05-.06-.07-.08s-.03-.05-.03-.07c0-.02,0-.04,0-.06,0-.02.01-.03.02-.05l.67-.67-2.45-2.45-.25.99s-.03.08-.05.11-.03.03-.06.03c-.02,0-.05,0-.08-.03s-.06-.05-.1-.09c-.03-.03-.05-.05-.07-.08-.02-.02-.03-.04-.04-.06s-.01-.04-.01-.06c0-.02,0-.04,0-.07l.27-1.22s0-.02.01-.04c0-.01.02-.03.03-.05.01-.02.03-.04.05-.06s.04-.05.07-.08c.04-.04.07-.07.1-.09s.06-.04.08-.05c.02,0,.04-.01.05,0,.01,0,.03.01.04.02l2.83,2.83.58-.58s.03-.02.05-.03c.02,0,.04,0,.06,0s.05.02.07.04c.03.02.05.04.08.07h0ZM99.2,141.46c.14.14.24.29.3.45.06.16.08.32.06.49-.02.17-.08.34-.18.52-.1.18-.24.35-.42.53-.17.17-.33.3-.5.39-.17.1-.33.16-.49.18-.16.02-.31,0-.46-.04-.15-.05-.29-.14-.41-.27-.1-.1-.18-.21-.23-.33-.05-.12-.08-.24-.09-.38,0-.13,0-.28.03-.43.03-.15.07-.32.13-.49-.15.05-.29.08-.43.1-.13.02-.26.02-.38,0-.12-.01-.23-.05-.34-.09-.1-.05-.2-.12-.29-.21-.11-.11-.2-.24-.26-.38-.06-.14-.08-.29-.07-.44,0-.15.06-.32.14-.49.08-.17.21-.34.38-.51.16-.16.32-.28.48-.36.16-.08.31-.12.45-.13.14,0,.28.01.41.07.13.05.24.13.35.24.08.08.15.18.2.28.05.11.08.22.1.34.02.12.02.25,0,.39-.02.14-.05.28-.09.44.18-.06.34-.1.49-.14s.3-.04.43-.03c.13,0,.25.04.37.08.11.05.21.12.31.21h0ZM97.01,140.34c-.07-.07-.14-.12-.22-.15-.08-.03-.16-.05-.25-.04-.09,0-.17.03-.26.08-.09.05-.18.12-.27.2-.18.18-.27.36-.28.53-.01.17.05.33.2.47.06.06.14.11.21.15.08.03.17.05.26.05s.21,0,.32-.03c.12-.02.25-.06.41-.11.08-.25.11-.48.1-.67-.01-.19-.09-.35-.21-.48h0ZM98.81,141.93c-.08-.08-.16-.13-.25-.17-.09-.03-.19-.05-.3-.05-.11,0-.23.02-.37.06-.14.03-.29.08-.45.14-.05.16-.09.3-.12.43s-.04.25-.03.35c0,.11.02.2.06.29.03.09.09.17.16.24.16.16.34.23.54.21.2-.02.41-.14.63-.36.21-.21.33-.42.35-.61.02-.2-.05-.37-.2-.52h0Z"/>
  </g>
  <g class="cls-1">
    <path class="cls-7" d="M110.01,164.24s.06.06.07.09c.02.03.03.05.03.07,0,.02,0,.04,0,.06,0,.02-.01.03-.02.04l-1.68,1.68s-.03.02-.04.02c-.02,0-.03,0-.06,0s-.05-.01-.07-.03c-.03-.02-.06-.04-.09-.07-.03-.03-.05-.06-.07-.08-.02-.03-.03-.05-.03-.07,0-.02,0-.04,0-.06,0-.02.01-.03.02-.05l.67-.67-2.45-2.45-.25.99s-.03.08-.05.11-.03.03-.06.03c-.02,0-.05,0-.08-.03-.03-.02-.06-.05-.1-.09-.03-.03-.05-.05-.07-.08-.02-.02-.03-.04-.04-.06,0-.02-.01-.04-.01-.06,0-.02,0-.04,0-.07l.27-1.22s0-.02.01-.04c0-.01.02-.03.03-.05.01-.02.03-.04.05-.06s.04-.05.07-.08c.04-.04.07-.07.1-.09s.06-.04.08-.05c.02,0,.04-.01.05,0,.01,0,.03.01.04.02l2.83,2.83.58-.58s.03-.02.05-.03c.02,0,.04,0,.06,0s.05.02.07.04.05.04.08.07h0ZM112.53,161.69s.05.06.07.09c.02.03.03.05.04.08,0,.02,0,.04,0,.06,0,.02-.01.04-.03.05l-1.78,1.78s-.05.04-.07.05c-.02.01-.05.02-.07.02s-.05-.01-.08-.03c-.03-.02-.06-.05-.1-.08-.03-.03-.06-.06-.08-.09-.02-.03-.04-.05-.05-.08-.01-.03-.02-.06-.03-.09,0-.03,0-.07-.01-.11l-.02-1.3c0-.3-.02-.56-.05-.77-.03-.21-.07-.39-.12-.54-.05-.15-.11-.27-.17-.37-.07-.1-.13-.18-.21-.25-.07-.07-.15-.13-.24-.17-.09-.04-.18-.06-.27-.06s-.19.02-.28.06-.19.1-.28.19c-.1.1-.18.21-.24.32-.05.11-.1.21-.13.31-.03.1-.05.18-.06.25-.01.07-.03.12-.05.14-.01.01-.03.02-.04.02-.02,0-.03,0-.06,0s-.05-.02-.07-.05c-.03-.02-.06-.05-.09-.08-.02-.02-.05-.05-.06-.07-.02-.02-.03-.04-.04-.06,0-.02-.02-.04-.02-.05,0-.02,0-.05,0-.08s.01-.1.03-.17c.02-.08.05-.17.1-.27s.1-.21.17-.32.15-.21.25-.31c.16-.16.31-.27.47-.34.16-.07.32-.11.47-.11.15,0,.3.03.44.09.14.06.27.15.38.27.1.1.2.21.28.33.08.12.16.27.22.45.06.18.11.39.14.65s.05.57.06.94l.02,1.04,1.4-1.4s.03-.02.05-.03c.02,0,.04,0,.07,0s.05.02.08.04c.03.02.05.04.08.07h0ZM113.98,161.81s.02.05.02.08c0,.02,0,.05-.01.07,0,.02-.03.05-.05.08-.02.03-.05.06-.08.09-.04.04-.08.07-.11.09-.03.02-.06.03-.09.04-.03,0-.05,0-.07-.01s-.03-.03-.05-.07l-2.62-5.63s-.02-.05-.02-.08c0-.02,0-.05,0-.07s.02-.05.05-.08c.02-.03.05-.06.09-.09.04-.04.08-.07.11-.09s.06-.03.09-.04.05,0,.07.01c.02.01.04.03.05.06l2.62,5.63ZM117.2,157.02s.05.06.07.09.03.05.04.08c0,.02,0,.04,0,.06s-.01.04-.03.05l-1.78,1.78s-.05.04-.07.05-.05.02-.07.02-.05-.01-.08-.03c-.03-.02-.06-.05-.1-.08-.03-.03-.06-.06-.08-.09-.02-.03-.04-.05-.05-.08-.01-.03-.02-.06-.03-.09,0-.03,0-.07-.01-.11l-.02-1.3c0-.3-.02-.56-.05-.77-.03-.21-.07-.39-.12-.54s-.11-.27-.17-.37c-.07-.1-.13-.18-.21-.25-.07-.07-.15-.13-.24-.17-.09-.04-.18-.06-.27-.06s-.19.02-.28.06c-.1.04-.19.1-.28.19-.1.1-.18.21-.24.32-.05.11-.1.21-.13.31-.03.1-.05.18-.06.25-.01.07-.03.12-.05.14-.01.01-.03.02-.04.02s-.03,0-.06,0c-.02,0-.05-.02-.07-.05-.03-.02-.06-.05-.09-.08-.02-.02-.05-.05-.06-.07-.02-.02-.03-.04-.04-.06,0-.02-.02-.04-.02-.05,0-.02,0-.05,0-.08,0-.04.01-.1.03-.17.02-.08.05-.17.1-.27s.1-.21.17-.32.15-.21.25-.31c.16-.16.31-.27.47-.34.16-.07.32-.11.47-.11.15,0,.3.03.44.09.14.06.27.15.38.27.1.1.2.21.28.33.08.12.16.27.22.45.06.18.11.39.14.65.03.26.05.57.06.94l.02,1.04,1.4-1.4s.03-.02.05-.03.04,0,.07,0c.02,0,.05.02.08.04.03.02.05.04.08.07h0ZM118.88,153.64c.17.17.3.35.37.55.08.19.11.39.09.59-.01.2-.07.39-.17.59-.1.19-.24.38-.42.56-.1.1-.2.19-.3.26-.1.08-.2.14-.29.19-.09.05-.17.09-.23.11-.06.02-.11.04-.13.04-.02,0-.04,0-.06,0s-.03-.01-.05-.02c-.02,0-.04-.02-.06-.04-.02-.02-.05-.04-.08-.07-.03-.03-.05-.05-.07-.08-.02-.02-.03-.05-.04-.07,0-.02,0-.04,0-.05,0-.02,0-.03.02-.04.02-.02.05-.03.11-.05.06-.01.12-.04.21-.07.08-.03.18-.08.29-.15s.22-.16.34-.28c.11-.11.2-.23.27-.35s.1-.24.12-.36c.01-.12,0-.25-.05-.37s-.13-.25-.25-.37c-.1-.1-.21-.18-.32-.22s-.23-.06-.35-.05c-.12.01-.24.06-.37.14-.13.08-.26.19-.41.33-.1.1-.18.19-.25.28-.06.08-.13.16-.19.22-.05.05-.09.07-.13.07-.04,0-.09-.03-.15-.09l-1.31-1.31c-.05-.05-.08-.11-.08-.16,0-.05.02-.1.07-.15l1.42-1.42s.03-.02.05-.03c.02,0,.04,0,.06,0,.02,0,.05.02.08.04.03.02.06.04.09.08.06.06.1.11.12.16.02.05.01.09-.02.12l-1.15,1.15.9.9c.05-.06.1-.13.16-.19s.12-.13.2-.2c.18-.18.35-.31.53-.4.18-.09.35-.14.52-.15s.33.02.49.09c.16.07.31.17.45.31h0ZM121.2,154.59s.02.05.02.08c0,.02,0,.05-.01.07,0,.02-.03.05-.05.08s-.05.06-.08.09c-.04.04-.08.07-.11.09-.03.02-.06.03-.09.04-.03,0-.05,0-.07-.01-.02-.01-.03-.03-.05-.07l-2.62-5.63s-.02-.05-.02-.08,0-.05,0-.07.02-.05.05-.08c.02-.03.05-.06.09-.09.04-.04.08-.07.11-.09s.06-.03.09-.04c.02,0,.05,0,.07.01.02.01.04.03.05.06l2.62,5.63ZM124.2,150.02s.05.06.07.09.03.05.04.08c0,.02,0,.04,0,.06,0,.02-.01.04-.03.05l-1.78,1.78s-.05.04-.07.05c-.02.01-.05.02-.07.02-.03,0-.05-.01-.08-.03-.03-.02-.06-.05-.1-.08-.03-.03-.06-.06-.08-.09-.02-.03-.04-.05-.05-.08-.01-.03-.02-.06-.03-.09,0-.03,0-.07-.01-.11l-.02-1.3c0-.3-.02-.56-.05-.77-.03-.21-.07-.39-.12-.54s-.11-.27-.17-.37c-.07-.1-.13-.18-.21-.25s-.15-.13-.24-.17-.18-.06-.27-.06c-.09,0-.19.02-.28.06-.1.04-.19.1-.28.19-.1.1-.18.21-.24.32-.05.11-.1.21-.13.31-.03.1-.05.18-.06.25s-.03.12-.05.14c-.01.01-.03.02-.04.02-.02,0-.03,0-.06,0-.02,0-.05-.02-.07-.05-.03-.02-.06-.05-.09-.08-.02-.02-.05-.05-.06-.07-.02-.02-.03-.04-.04-.06,0-.02-.02-.04-.02-.05,0-.02,0-.05,0-.08,0-.04.01-.1.03-.17.02-.08.05-.17.1-.27.04-.1.1-.21.17-.32.07-.11.15-.21.25-.31.16-.16.31-.27.47-.34.16-.07.32-.11.47-.11s.3.03.44.09c.14.06.27.15.38.27.1.1.2.21.28.33s.16.27.22.45c.06.18.11.39.14.65.03.26.05.57.06.94l.02,1.04,1.4-1.4s.03-.02.05-.03c.02,0,.04,0,.07,0,.02,0,.05.02.08.04.03.02.05.04.08.07h0ZM125.42,145.94c.25.25.45.49.62.73.16.24.28.48.33.72.06.24.05.47-.01.69-.07.23-.21.45-.42.66-.2.2-.41.34-.62.4-.21.07-.43.07-.65.02s-.46-.17-.7-.34c-.24-.17-.49-.39-.76-.65-.25-.25-.45-.49-.62-.73-.16-.24-.28-.48-.33-.72-.06-.24-.05-.47.01-.69.07-.23.2-.45.42-.66.2-.2.41-.34.62-.41.21-.07.43-.07.65-.02.22.06.46.17.7.34s.49.39.76.65h0ZM125.02,146.4c-.16-.16-.31-.3-.45-.42-.14-.12-.27-.21-.39-.29-.12-.08-.23-.13-.34-.17-.11-.03-.21-.05-.3-.05-.1,0-.19.03-.27.07-.08.04-.17.1-.25.18-.14.14-.22.29-.24.44-.02.15,0,.31.07.48.07.17.17.34.3.51s.3.35.47.53c.24.24.46.43.65.58.19.14.37.24.53.29s.31.06.44.02c.13-.04.26-.11.38-.23.09-.09.16-.19.2-.29.04-.1.06-.2.05-.31,0-.11-.03-.21-.07-.33-.04-.11-.1-.22-.18-.34s-.16-.23-.27-.35-.21-.24-.33-.36h0ZM129.32,144.94s.06.06.07.09c.02.03.03.05.03.07,0,.02,0,.04,0,.06,0,.02-.01.03-.02.04l-1.68,1.68s-.03.02-.04.02-.03,0-.06,0-.05-.01-.07-.03-.06-.04-.09-.07c-.03-.03-.05-.06-.07-.08s-.03-.05-.03-.07c0-.02,0-.04,0-.06,0-.02.01-.03.02-.05l.67-.67-2.45-2.45-.25.99s-.03.08-.05.11-.03.03-.06.03c-.02,0-.05,0-.08-.03s-.06-.05-.1-.09c-.03-.03-.05-.05-.07-.08-.02-.02-.03-.04-.04-.06s-.01-.04-.01-.06c0-.02,0-.04,0-.07l.27-1.22s0-.02.01-.04c0-.01.02-.03.03-.05.01-.02.03-.04.05-.06s.04-.05.07-.08c.04-.04.07-.07.1-.09s.06-.04.08-.05c.02,0,.04-.01.05,0,.01,0,.03.01.04.02l2.83,2.83.58-.58s.03-.02.05-.03c.02,0,.04,0,.06,0s.05.02.07.04c.03.02.05.04.08.07h0ZM130.52,140.6c.14.14.27.29.4.45s.23.32.33.5c.09.17.16.35.21.53.05.18.06.37.05.56-.02.19-.07.38-.16.57-.09.19-.23.38-.42.56-.07.07-.15.14-.22.19s-.15.11-.22.15c-.07.04-.13.07-.18.09s-.09.03-.12.03c-.03,0-.06,0-.1-.02-.03-.02-.07-.05-.11-.09-.04-.04-.06-.07-.08-.09s-.03-.04-.04-.06c0-.02,0-.03,0-.04,0-.01.01-.03.03-.04.02-.02.05-.04.1-.06.05-.02.1-.05.17-.08.07-.04.14-.08.22-.14.08-.06.16-.13.25-.21.16-.16.27-.33.32-.51.05-.18.06-.35.03-.53-.03-.18-.1-.35-.2-.53s-.23-.34-.38-.49c-.04.14-.1.29-.18.45-.08.16-.2.32-.36.48-.18.18-.35.3-.52.38-.17.07-.34.1-.49.09-.16-.01-.31-.06-.46-.14-.15-.08-.29-.19-.43-.33-.14-.14-.26-.3-.34-.47s-.14-.35-.15-.53c0-.19.02-.38.1-.57s.21-.39.4-.57c.13-.13.27-.24.41-.31s.28-.11.42-.12c.14-.01.28,0,.43.04.14.04.29.1.44.18.15.08.29.18.44.3.15.12.29.25.44.4h0ZM130.04,140.98c-.21-.21-.4-.38-.58-.49-.17-.12-.33-.19-.48-.23-.14-.03-.28-.03-.4,0-.12.04-.23.11-.34.22s-.18.22-.22.33c-.04.12-.05.23-.03.34s.05.22.11.33c.06.11.13.2.22.29.1.1.2.18.3.24.1.06.2.1.31.11.1,0,.21,0,.31-.05.11-.04.21-.12.32-.23.12-.12.23-.26.3-.42.08-.15.13-.3.15-.45h0Z"/>
  </g>
  <g class="cls-11">
    <path class="cls-7" d="M142.39,164.24s.06.06.07.09.03.05.03.07c0,.02,0,.04,0,.06,0,.02-.01.03-.02.04l-1.68,1.68s-.03.02-.04.02-.03,0-.06,0-.05-.01-.07-.03-.06-.04-.09-.07c-.03-.03-.05-.06-.07-.08s-.03-.05-.03-.07c0-.02,0-.04,0-.06,0-.02.01-.03.02-.05l.67-.67-2.45-2.45-.25.99s-.03.08-.05.11-.03.03-.06.03-.05,0-.08-.03c-.03-.02-.06-.05-.1-.09-.03-.03-.05-.05-.07-.08-.02-.02-.03-.04-.04-.06,0-.02-.01-.04-.01-.06,0-.02,0-.04,0-.07l.27-1.22s0-.02.01-.04.02-.03.03-.05c.01-.02.03-.04.05-.06s.04-.05.07-.08c.04-.04.07-.07.1-.09.03-.02.06-.04.08-.05.02,0,.04-.01.05,0,.01,0,.03.01.04.02l2.83,2.83.58-.58s.03-.02.05-.03c.02,0,.04,0,.06,0s.05.02.07.04c.03.02.05.04.08.07h0ZM144.91,161.69s.05.06.07.09.03.05.04.08c0,.02,0,.04,0,.06,0,.02-.01.04-.03.05l-1.78,1.78s-.05.04-.07.05c-.02.01-.05.02-.07.02-.03,0-.05-.01-.08-.03-.03-.02-.06-.05-.1-.08-.03-.03-.06-.06-.08-.09-.02-.03-.04-.05-.05-.08-.01-.03-.02-.06-.03-.09,0-.03,0-.07-.01-.11l-.02-1.3c0-.3-.02-.56-.05-.77-.03-.21-.07-.39-.12-.54s-.11-.27-.17-.37c-.07-.1-.13-.18-.21-.25s-.15-.13-.24-.17c-.09-.04-.18-.06-.27-.06-.09,0-.19.02-.28.06-.1.04-.19.1-.28.19-.1.1-.18.21-.24.32-.05.11-.1.21-.13.31-.03.1-.05.18-.06.25-.01.07-.03.12-.05.14-.01.01-.03.02-.04.02-.02,0-.03,0-.06,0-.02,0-.05-.02-.07-.05-.03-.02-.06-.05-.09-.08-.02-.02-.05-.05-.06-.07-.02-.02-.03-.04-.04-.06,0-.02-.02-.04-.02-.05,0-.02,0-.05,0-.08s.01-.1.03-.17c.02-.08.05-.17.1-.27.04-.1.1-.21.17-.32s.15-.21.25-.31c.16-.16.31-.27.47-.34.16-.07.32-.11.47-.11.15,0,.3.03.44.09.14.06.27.15.38.27.1.1.2.21.28.33.08.12.16.27.22.45.06.18.11.39.14.65.03.26.05.57.06.94l.02,1.04,1.4-1.4s.03-.02.05-.03c.02,0,.04,0,.07,0s.05.02.08.04c.03.02.05.04.08.07h0ZM146.36,161.81s.02.05.02.08c0,.02,0,.05-.01.07,0,.02-.03.05-.05.08-.02.03-.05.06-.08.09-.04.04-.08.07-.11.09-.03.02-.06.03-.09.04-.03,0-.05,0-.07-.01s-.03-.03-.05-.07l-2.62-5.63s-.02-.05-.02-.08c0-.02,0-.05,0-.07s.02-.05.05-.08.05-.06.09-.09c.04-.04.08-.07.11-.09s.06-.03.09-.04.05,0,.07.01c.02.01.04.03.05.06l2.62,5.63ZM149.58,157.02s.05.06.07.09.03.05.04.08,0,.04,0,.06c0,.02-.01.04-.03.05l-1.78,1.78s-.05.04-.07.05c-.02.01-.05.02-.07.02-.03,0-.05-.01-.08-.03-.03-.02-.06-.05-.1-.08-.03-.03-.06-.06-.08-.09-.02-.03-.04-.05-.05-.08s-.02-.06-.03-.09c0-.03,0-.07-.01-.11l-.02-1.3c0-.3-.02-.56-.05-.77-.03-.21-.07-.39-.12-.54-.05-.15-.11-.27-.17-.37-.07-.1-.13-.18-.21-.25s-.15-.13-.24-.17c-.09-.04-.18-.06-.27-.06s-.19.02-.28.06c-.1.04-.19.1-.28.19-.1.1-.18.21-.24.32s-.1.21-.13.31c-.03.1-.05.18-.06.25-.01.07-.03.12-.05.14-.01.01-.03.02-.04.02s-.03,0-.06,0c-.02,0-.05-.02-.07-.05-.03-.02-.06-.05-.09-.08-.02-.02-.05-.05-.06-.07s-.03-.04-.04-.06c0-.02-.02-.04-.02-.05s0-.05,0-.08.01-.1.03-.17c.02-.08.05-.17.1-.27.04-.1.1-.21.17-.32.07-.11.15-.21.25-.31.16-.16.31-.27.47-.34.16-.07.32-.11.47-.11.15,0,.3.03.44.09.14.06.27.15.38.27.1.1.2.21.28.33.08.12.16.27.22.45.06.18.11.39.14.65.03.26.05.57.06.94l.02,1.04,1.4-1.4s.03-.02.05-.03.04,0,.07,0,.05.02.08.04c.03.02.05.04.08.07h0ZM151.26,153.64c.17.17.3.35.37.55.08.19.11.39.09.59-.01.2-.07.39-.17.59-.1.19-.24.38-.42.56-.1.1-.2.19-.3.26-.1.08-.2.14-.29.19s-.17.09-.23.11c-.06.02-.11.04-.13.04-.02,0-.04,0-.06,0-.01,0-.03-.01-.05-.02-.02,0-.04-.02-.06-.04-.02-.02-.05-.04-.08-.07-.03-.03-.05-.05-.07-.08-.02-.02-.03-.05-.04-.07s0-.04,0-.05,0-.03.02-.04c.02-.02.05-.03.11-.05.06-.01.12-.04.21-.07.08-.03.18-.08.29-.15.11-.07.22-.16.34-.28.11-.11.2-.23.27-.35.07-.12.1-.24.12-.36.01-.12,0-.25-.05-.37-.05-.12-.13-.25-.25-.37-.1-.1-.21-.18-.32-.22s-.23-.06-.35-.05c-.12.01-.24.06-.37.14-.13.08-.26.19-.41.33-.1.1-.18.19-.25.28-.06.08-.13.16-.19.22-.05.05-.09.07-.13.07-.04,0-.09-.03-.15-.09l-1.31-1.31c-.05-.05-.08-.11-.08-.16s.02-.1.07-.15l1.42-1.42s.03-.02.05-.03c.02,0,.04,0,.06,0,.02,0,.05.02.08.04.03.02.06.04.09.08.06.06.1.11.12.16.02.05.01.09-.02.12l-1.15,1.15.9.9c.05-.06.1-.13.16-.19.06-.06.12-.13.2-.2.18-.18.35-.31.53-.4.18-.09.35-.14.52-.15s.33.02.49.09c.16.07.31.17.45.31h0ZM153.57,154.59s.02.05.02.08c0,.02,0,.05-.01.07,0,.02-.03.05-.05.08-.02.03-.05.06-.08.09-.04.04-.08.07-.11.09-.03.02-.06.03-.09.04-.03,0-.05,0-.07-.01-.02-.01-.03-.03-.05-.07l-2.62-5.63s-.02-.05-.02-.08c0-.02,0-.05,0-.07s.02-.05.05-.08c.02-.03.05-.06.09-.09.04-.04.08-.07.11-.09s.06-.03.09-.04c.02,0,.05,0,.07.01.02.01.04.03.05.06l2.62,5.63ZM156.58,150.02s.05.06.07.09.03.05.04.08c0,.02,0,.04,0,.06,0,.02-.01.04-.03.05l-1.78,1.78s-.05.04-.07.05c-.02.01-.05.02-.07.02-.03,0-.05-.01-.08-.03-.03-.02-.06-.05-.1-.08-.03-.03-.06-.06-.08-.09-.02-.03-.04-.05-.05-.08s-.02-.06-.03-.09c0-.03,0-.07-.01-.11l-.02-1.3c0-.3-.02-.56-.05-.77-.03-.21-.07-.39-.12-.54s-.11-.27-.17-.37c-.07-.1-.13-.18-.21-.25-.07-.07-.15-.13-.24-.17-.09-.04-.18-.06-.27-.06-.09,0-.19.02-.28.06s-.19.1-.28.19c-.1.1-.18.21-.24.32-.05.11-.1.21-.13.31-.03.1-.05.18-.06.25s-.03.12-.05.14c-.01.01-.03.02-.04.02-.02,0-.03,0-.06,0-.02,0-.05-.02-.07-.05-.03-.02-.06-.05-.09-.08-.02-.02-.05-.05-.06-.07-.02-.02-.03-.04-.04-.06,0-.02-.02-.04-.02-.05,0-.02,0-.05,0-.08,0-.04.01-.1.03-.17.02-.08.05-.17.1-.27.04-.1.1-.21.17-.32.07-.11.15-.21.25-.31.16-.16.31-.27.47-.34.16-.07.32-.11.47-.11.15,0,.3.03.44.09.14.06.27.15.38.27.1.1.2.21.28.33.08.12.16.27.22.45.06.18.11.39.14.65.03.26.05.57.06.94l.02,1.04,1.4-1.4s.03-.02.05-.03c.02,0,.04,0,.07,0s.05.02.08.04c.03.02.05.04.08.07h0ZM157.8,145.94c.25.25.45.49.62.73s.28.48.33.72c.06.24.05.47-.01.69s-.21.45-.42.66c-.2.2-.41.34-.62.4-.21.07-.43.07-.65.02s-.46-.17-.7-.34c-.24-.17-.49-.39-.76-.65-.25-.25-.45-.49-.62-.73s-.28-.48-.33-.72c-.06-.24-.05-.47.01-.69.07-.23.2-.45.42-.66.2-.2.41-.34.62-.41.21-.07.43-.07.65-.02s.46.17.7.34c.24.17.49.39.76.65h0ZM157.39,146.4c-.16-.16-.31-.3-.45-.42-.14-.12-.27-.21-.39-.29-.12-.08-.23-.13-.34-.17-.11-.03-.21-.05-.3-.05-.1,0-.19.03-.27.07s-.17.1-.25.18c-.14.14-.22.29-.24.44-.02.15,0,.31.07.48.07.17.17.34.3.51s.3.35.47.53c.24.24.46.43.65.58.19.14.37.24.53.29.16.05.31.06.44.02.13-.04.26-.11.38-.23.09-.09.16-.19.2-.29.04-.1.06-.2.05-.31,0-.11-.03-.21-.07-.33-.04-.11-.1-.22-.18-.34s-.16-.23-.27-.35-.21-.24-.33-.36h0ZM161.67,144.93s.05.06.07.09c.02.03.03.05.04.08s0,.04,0,.06-.01.04-.03.05l-1.78,1.78s-.05.04-.07.05c-.02.01-.05.02-.07.02-.03,0-.05-.01-.08-.03-.03-.02-.06-.05-.1-.08-.03-.03-.06-.06-.08-.09-.02-.03-.04-.05-.05-.08s-.02-.06-.03-.09c0-.03,0-.07-.01-.11l-.02-1.3c0-.3-.02-.56-.05-.77-.03-.21-.07-.39-.12-.54s-.11-.27-.17-.37c-.07-.1-.13-.18-.21-.25-.07-.07-.15-.13-.24-.17-.09-.04-.18-.06-.27-.06-.09,0-.19.02-.28.06-.1.04-.19.1-.28.19-.1.1-.18.21-.24.32-.05.11-.1.21-.13.31-.03.1-.05.18-.06.25-.01.07-.03.12-.05.14-.01.01-.03.02-.04.02-.02,0-.03,0-.06,0s-.05-.02-.07-.05c-.03-.02-.06-.05-.09-.08-.02-.02-.05-.05-.06-.07s-.03-.04-.04-.06c0-.02-.02-.04-.02-.05,0-.02,0-.05,0-.08,0-.04.01-.1.03-.17.02-.08.05-.17.1-.27.04-.1.1-.21.17-.32.07-.11.15-.21.25-.31.16-.16.31-.27.47-.34.16-.07.32-.11.47-.11s.3.03.44.09c.14.06.27.15.38.27.1.1.2.21.28.33.08.12.16.27.22.45s.11.39.14.65c.03.26.05.57.06.94l.02,1.04,1.4-1.4s.03-.02.05-.03c.02,0,.04,0,.07,0s.05.02.08.04c.03.02.05.04.08.07h0ZM163.1,140.63c.25.25.45.49.62.73.16.24.28.48.33.72s.05.47-.01.69c-.07.23-.21.45-.42.66-.2.2-.41.34-.62.4s-.43.07-.65.02c-.22-.06-.46-.17-.7-.34-.24-.17-.49-.39-.76-.65-.25-.25-.45-.49-.62-.73s-.28-.48-.33-.72c-.06-.24-.05-.47.01-.69.07-.23.2-.45.42-.66s.41-.34.62-.41c.21-.07.43-.07.65-.02.22.06.46.17.7.34.24.17.49.39.76.65h0ZM162.69,141.1c-.16-.16-.31-.3-.45-.42s-.27-.21-.39-.29c-.12-.08-.23-.13-.34-.17-.11-.03-.21-.05-.3-.05-.1,0-.19.03-.27.07s-.17.1-.25.18c-.14.14-.22.29-.24.44-.02.15,0,.31.07.48s.17.34.3.51.3.35.47.53c.24.24.46.43.65.58.19.14.37.24.53.29.16.05.31.06.44.02.13-.04.26-.11.38-.23.09-.09.16-.19.2-.29.04-.1.06-.2.05-.31,0-.11-.03-.21-.07-.33-.04-.11-.1-.22-.18-.34-.07-.11-.16-.23-.27-.35-.1-.12-.21-.24-.33-.36h0Z"/>
  </g>
  <g class="cls-12">
    <path class="cls-7" d="M174.67,164.24s.06.06.07.09.03.05.03.07c0,.02,0,.04,0,.06,0,.02-.01.03-.02.04l-1.68,1.68s-.03.02-.04.02-.03,0-.06,0-.05-.01-.07-.03-.06-.04-.09-.07c-.03-.03-.05-.06-.07-.08s-.03-.05-.03-.07c0-.02,0-.04,0-.06,0-.02.01-.03.02-.05l.67-.67-2.45-2.45-.25.99s-.03.08-.05.11-.03.03-.06.03-.05,0-.08-.03c-.03-.02-.06-.05-.1-.09-.03-.03-.05-.05-.07-.08-.02-.02-.03-.04-.04-.06,0-.02-.01-.04-.01-.06,0-.02,0-.04,0-.07l.27-1.22s0-.02.01-.04.02-.03.03-.05c.01-.02.03-.04.05-.06s.04-.05.07-.08c.04-.04.07-.07.1-.09.03-.02.06-.04.08-.05.02,0,.04-.01.05,0,.01,0,.03.01.04.02l2.83,2.83.58-.58s.03-.02.05-.03c.02,0,.04,0,.06,0s.05.02.07.04c.03.02.05.04.08.07h0ZM177.2,161.69s.05.06.07.09.03.05.04.08c0,.02,0,.04,0,.06,0,.02-.01.04-.03.05l-1.78,1.78s-.05.04-.07.05c-.02.01-.05.02-.07.02-.03,0-.05-.01-.08-.03-.03-.02-.06-.05-.1-.08-.03-.03-.06-.06-.08-.09-.02-.03-.04-.05-.05-.08-.01-.03-.02-.06-.03-.09,0-.03,0-.07-.01-.11l-.02-1.3c0-.3-.02-.56-.05-.77-.03-.21-.07-.39-.12-.54s-.11-.27-.17-.37c-.07-.1-.13-.18-.21-.25s-.15-.13-.24-.17c-.09-.04-.18-.06-.27-.06-.09,0-.19.02-.28.06-.1.04-.19.1-.28.19-.1.1-.18.21-.24.32-.05.11-.1.21-.13.31-.03.1-.05.18-.06.25-.01.07-.03.12-.05.14-.01.01-.03.02-.04.02-.02,0-.03,0-.06,0-.02,0-.05-.02-.07-.05-.03-.02-.06-.05-.09-.08-.02-.02-.05-.05-.06-.07-.02-.02-.03-.04-.04-.06,0-.02-.02-.04-.02-.05,0-.02,0-.05,0-.08s.01-.1.03-.17c.02-.08.05-.17.1-.27.04-.1.1-.21.17-.32.07-.11.15-.21.25-.31.16-.16.31-.27.47-.34.16-.07.32-.11.47-.11.15,0,.3.03.44.09.14.06.27.15.38.27.1.1.2.21.28.33.08.12.16.27.22.45.06.18.11.39.14.65.03.26.05.57.06.94l.02,1.04,1.4-1.4s.03-.02.05-.03c.02,0,.04,0,.07,0s.05.02.08.04c.03.02.05.04.08.07h0ZM178.65,161.81s.02.05.02.08c0,.02,0,.05-.01.07,0,.02-.03.05-.05.08-.02.03-.05.06-.08.09-.04.04-.08.07-.11.09-.03.02-.06.03-.09.04-.03,0-.05,0-.07-.01s-.03-.03-.05-.07l-2.62-5.63s-.02-.05-.02-.08c0-.02,0-.05,0-.07s.02-.05.05-.08.05-.06.09-.09c.04-.04.08-.07.11-.09s.06-.03.09-.04.05,0,.07.01c.02.01.04.03.05.06l2.62,5.63ZM181.86,157.02s.05.06.07.09c.02.03.03.05.04.08s0,.04,0,.06c0,.02-.01.04-.03.05l-1.78,1.78s-.05.04-.07.05c-.02.01-.05.02-.07.02-.03,0-.05-.01-.08-.03-.03-.02-.06-.05-.1-.08-.03-.03-.06-.06-.08-.09-.02-.03-.04-.05-.05-.08s-.02-.06-.03-.09c0-.03,0-.07-.01-.11l-.02-1.3c0-.3-.02-.56-.05-.77-.03-.21-.07-.39-.12-.54-.05-.15-.11-.27-.17-.37-.07-.1-.13-.18-.21-.25-.07-.07-.15-.13-.24-.17-.09-.04-.18-.06-.27-.06-.09,0-.19.02-.28.06-.1.04-.19.1-.28.19-.1.1-.18.21-.24.32s-.1.21-.13.31c-.03.1-.05.18-.06.25-.01.07-.03.12-.05.14-.01.01-.03.02-.04.02s-.03,0-.06,0c-.02,0-.05-.02-.07-.05s-.06-.05-.09-.08c-.02-.02-.05-.05-.06-.07s-.03-.04-.04-.06c0-.02-.02-.04-.02-.05,0-.02,0-.05,0-.08s.01-.1.03-.17c.02-.08.05-.17.1-.27.04-.1.1-.21.17-.32.07-.11.15-.21.25-.31.16-.16.31-.27.47-.34.16-.07.32-.11.47-.11.15,0,.3.03.44.09.14.06.27.15.38.27.1.1.2.21.28.33.08.12.16.27.22.45.06.18.11.39.14.65.03.26.05.57.06.94l.02,1.04,1.4-1.4s.03-.02.05-.03.04,0,.07,0,.05.02.08.04.05.04.08.07h0ZM183.55,153.64c.17.17.3.35.37.55.08.19.11.39.09.59s-.07.39-.17.59c-.1.19-.24.38-.42.56-.1.1-.2.19-.3.26-.1.08-.2.14-.29.19s-.17.09-.23.11c-.06.02-.11.04-.13.04-.02,0-.04,0-.06,0-.01,0-.03-.01-.05-.02-.02,0-.04-.02-.06-.04-.02-.02-.05-.04-.08-.07-.03-.03-.05-.05-.07-.08-.02-.02-.03-.05-.04-.07s0-.04,0-.05,0-.03.02-.04c.02-.02.05-.03.11-.05.06-.01.12-.04.21-.07.08-.03.18-.08.29-.15s.22-.16.34-.28c.11-.11.2-.23.27-.35.07-.12.1-.24.12-.36.01-.12,0-.25-.05-.37-.05-.12-.13-.25-.25-.37-.1-.1-.21-.18-.32-.22s-.23-.06-.35-.05c-.12.01-.24.06-.37.14-.13.08-.26.19-.41.33-.1.1-.18.19-.25.28-.06.08-.13.16-.19.22-.05.05-.09.07-.13.07-.04,0-.09-.03-.15-.09l-1.31-1.31c-.05-.05-.08-.11-.08-.16s.02-.1.07-.15l1.42-1.42s.03-.02.05-.03c.02,0,.04,0,.06,0,.02,0,.05.02.08.04.03.02.06.04.09.08.06.06.1.11.12.16.02.05.01.09-.02.12l-1.15,1.15.9.9c.05-.06.1-.13.16-.19.06-.06.12-.13.2-.2.18-.18.35-.31.53-.4.18-.09.35-.14.52-.15s.33.02.49.09c.16.07.31.17.45.31h0ZM185.86,154.59s.02.05.02.08c0,.02,0,.05-.01.07,0,.02-.03.05-.05.08-.02.03-.05.06-.08.09-.04.04-.08.07-.11.09-.03.02-.06.03-.09.04-.03,0-.05,0-.07-.01-.02-.01-.03-.03-.05-.07l-2.62-5.63s-.02-.05-.02-.08,0-.05,0-.07.02-.05.05-.08c.02-.03.05-.06.09-.09.04-.04.08-.07.11-.09s.06-.03.09-.04c.02,0,.05,0,.07.01.02.01.04.03.05.06l2.62,5.63ZM188.87,150.02s.05.06.07.09.03.05.04.08c0,.02,0,.04,0,.06,0,.02-.01.04-.03.05l-1.78,1.78s-.05.04-.07.05c-.02.01-.05.02-.07.02-.03,0-.05-.01-.08-.03-.03-.02-.06-.05-.1-.08-.03-.03-.06-.06-.08-.09-.02-.03-.04-.05-.05-.08s-.02-.06-.03-.09c0-.03,0-.07-.01-.11l-.02-1.3c0-.3-.02-.56-.05-.77-.03-.21-.07-.39-.12-.54s-.11-.27-.17-.37c-.07-.1-.13-.18-.21-.25-.07-.07-.15-.13-.24-.17-.09-.04-.18-.06-.27-.06-.09,0-.19.02-.28.06s-.19.1-.28.19c-.1.1-.18.21-.24.32-.05.11-.1.21-.13.31-.03.1-.05.18-.06.25s-.03.12-.05.14c-.01.01-.03.02-.04.02-.02,0-.03,0-.06,0-.02,0-.05-.02-.07-.05-.03-.02-.06-.05-.09-.08-.02-.02-.05-.05-.06-.07-.02-.02-.03-.04-.04-.06,0-.02-.02-.04-.02-.05,0-.02,0-.05,0-.08,0-.04.01-.1.03-.17.02-.08.05-.17.1-.27.04-.1.1-.21.17-.32.07-.11.15-.21.25-.31.16-.16.31-.27.47-.34.16-.07.32-.11.47-.11s.3.03.44.09c.14.06.27.15.38.27.1.1.2.21.28.33s.16.27.22.45c.06.18.11.39.14.65.03.26.05.57.06.94l.02,1.04,1.4-1.4s.03-.02.05-.03c.02,0,.04,0,.07,0s.05.02.08.04c.03.02.05.04.08.07h0ZM190.09,145.94c.25.25.45.49.62.73.16.24.28.48.33.72.06.24.05.47-.01.69s-.21.45-.42.66c-.2.2-.41.34-.62.4-.21.07-.43.07-.65.02s-.46-.17-.7-.34c-.24-.17-.49-.39-.76-.65-.25-.25-.45-.49-.62-.73-.16-.24-.28-.48-.33-.72-.06-.24-.05-.47.01-.69.07-.23.2-.45.42-.66.2-.2.41-.34.62-.41.21-.07.43-.07.65-.02s.46.17.7.34c.24.17.49.39.76.65h0ZM189.68,146.4c-.16-.16-.31-.3-.45-.42-.14-.12-.27-.21-.39-.29-.12-.08-.23-.13-.34-.17-.11-.03-.21-.05-.3-.05-.1,0-.19.03-.27.07s-.17.1-.25.18c-.14.14-.22.29-.24.44-.02.15,0,.31.07.48.07.17.17.34.3.51s.3.35.47.53c.24.24.46.43.65.58.19.14.37.24.53.29.16.05.31.06.44.02.13-.04.26-.11.38-.23.09-.09.16-.19.2-.29.04-.1.06-.2.05-.31,0-.11-.03-.21-.07-.33-.04-.11-.1-.22-.18-.34s-.16-.23-.27-.35-.21-.24-.33-.36h0ZM193.96,144.93s.05.06.07.09c.02.03.03.05.04.08s0,.04,0,.06-.01.04-.03.05l-1.78,1.78s-.05.04-.07.05-.05.02-.07.02-.05-.01-.08-.03c-.03-.02-.06-.05-.1-.08-.03-.03-.06-.06-.08-.09-.02-.03-.04-.05-.05-.08s-.02-.06-.03-.09c0-.03,0-.07-.01-.11l-.02-1.3c0-.3-.02-.56-.05-.77-.03-.21-.07-.39-.12-.54s-.11-.27-.17-.37c-.07-.1-.13-.18-.21-.25-.07-.07-.15-.13-.24-.17-.09-.04-.18-.06-.27-.06-.09,0-.19.02-.28.06-.1.04-.19.1-.28.19-.1.1-.18.21-.24.32s-.1.21-.13.31c-.03.1-.05.18-.06.25-.01.07-.03.12-.05.14-.01.01-.03.02-.04.02-.02,0-.03,0-.06,0s-.05-.02-.07-.05c-.03-.02-.06-.05-.09-.08-.02-.02-.05-.05-.06-.07s-.03-.04-.04-.06c0-.02-.02-.04-.02-.05,0-.02,0-.05,0-.08s.01-.1.03-.17c.02-.08.05-.17.1-.27.04-.1.1-.21.17-.32.07-.11.15-.21.25-.31.16-.16.31-.27.47-.34.16-.07.32-.11.47-.11.15,0,.3.03.44.09s.27.15.38.27c.1.1.2.21.28.33s.16.27.22.45.11.39.14.65c.03.26.05.57.06.94l.02,1.04,1.4-1.4s.03-.02.05-.03c.02,0,.04,0,.07,0,.02,0,.05.02.08.04.03.02.05.04.08.07h0ZM196.74,142.18s.06.06.07.09.03.05.03.07,0,.04,0,.06-.01.03-.02.04l-1.68,1.68s-.03.02-.04.02c-.02,0-.03,0-.06,0-.02,0-.05-.01-.07-.03-.03-.02-.06-.04-.09-.07-.03-.03-.05-.06-.07-.08s-.03-.05-.03-.07c0-.02,0-.04,0-.06s.01-.03.02-.05l.67-.67-2.45-2.45-.25.99s-.03.08-.05.11c-.02.02-.03.03-.06.03-.02,0-.05,0-.08-.03s-.06-.05-.1-.09c-.03-.03-.05-.05-.07-.08-.02-.02-.03-.04-.04-.06,0-.02-.01-.04-.01-.06,0-.02,0-.04,0-.07l.27-1.22s0-.02.01-.04.02-.03.03-.05c.01-.02.03-.04.05-.06.02-.02.04-.05.07-.08.04-.04.07-.07.1-.09.03-.02.06-.04.08-.05.02,0,.04-.01.05,0,.01,0,.03.01.04.02l2.83,2.83.58-.58s.03-.02.05-.03.04,0,.06,0,.05.02.07.04.05.04.08.07h0Z"/>
  </g>
  <g class="cls-42">
    <path class="cls-7" d="M206.96,164.24s.06.06.07.09.03.05.03.07c0,.02,0,.04,0,.06,0,.02-.01.03-.02.04l-1.68,1.68s-.03.02-.04.02-.03,0-.06,0-.05-.01-.07-.03-.06-.04-.09-.07c-.03-.03-.05-.06-.07-.08s-.03-.05-.03-.07c0-.02,0-.04,0-.06,0-.02.01-.03.02-.05l.67-.67-2.45-2.45-.25.99s-.03.08-.05.11-.03.03-.06.03-.05,0-.08-.03c-.03-.02-.06-.05-.1-.09-.03-.03-.05-.05-.07-.08-.02-.02-.03-.04-.04-.06,0-.02-.01-.04-.01-.06,0-.02,0-.04,0-.07l.27-1.22s0-.02.01-.04.02-.03.03-.05c.01-.02.03-.04.05-.06s.04-.05.07-.08c.04-.04.07-.07.1-.09.03-.02.06-.04.08-.05.02,0,.04-.01.05,0,.01,0,.03.01.04.02l2.83,2.83.58-.58s.03-.02.05-.03c.02,0,.04,0,.06,0s.05.02.07.04c.03.02.05.04.08.07h0ZM209.49,161.69s.05.06.07.09.03.05.04.08c0,.02,0,.04,0,.06,0,.02-.01.04-.03.05l-1.78,1.78s-.05.04-.07.05c-.02.01-.05.02-.07.02-.03,0-.05-.01-.08-.03-.03-.02-.06-.05-.1-.08-.03-.03-.06-.06-.08-.09-.02-.03-.04-.05-.05-.08-.01-.03-.02-.06-.03-.09,0-.03,0-.07-.01-.11l-.02-1.3c0-.3-.02-.56-.05-.77-.03-.21-.07-.39-.12-.54s-.11-.27-.17-.37c-.07-.1-.13-.18-.21-.25s-.15-.13-.24-.17c-.09-.04-.18-.06-.27-.06-.09,0-.19.02-.28.06-.1.04-.19.1-.28.19-.1.1-.18.21-.24.32-.05.11-.1.21-.13.31-.03.1-.05.18-.06.25-.01.07-.03.12-.05.14-.01.01-.03.02-.04.02-.02,0-.03,0-.06,0-.02,0-.05-.02-.07-.05-.03-.02-.06-.05-.09-.08-.02-.02-.05-.05-.06-.07-.02-.02-.03-.04-.04-.06,0-.02-.02-.04-.02-.05,0-.02,0-.05,0-.08s.01-.1.03-.17c.02-.08.05-.17.1-.27.04-.1.1-.21.17-.32s.15-.21.25-.31c.16-.16.31-.27.47-.34.16-.07.32-.11.47-.11.15,0,.3.03.44.09.14.06.27.15.38.27.1.1.2.21.28.33.08.12.16.27.22.45.06.18.11.39.14.65.03.26.05.57.06.94l.02,1.04,1.4-1.4s.03-.02.05-.03c.02,0,.04,0,.07,0s.05.02.08.04c.03.02.05.04.08.07h0ZM210.93,161.81s.02.05.02.08c0,.02,0,.05-.01.07,0,.02-.03.05-.05.08-.02.03-.05.06-.08.09-.04.04-.08.07-.11.09-.03.02-.06.03-.09.04-.03,0-.05,0-.07-.01s-.03-.03-.05-.07l-2.62-5.63s-.02-.05-.02-.08c0-.02,0-.05,0-.07s.02-.05.05-.08.05-.06.09-.09c.04-.04.08-.07.11-.09s.06-.03.09-.04.05,0,.07.01c.02.01.04.03.05.06l2.62,5.63ZM214.15,157.02s.05.06.07.09.03.05.04.08,0,.04,0,.06c0,.02-.01.04-.03.05l-1.78,1.78s-.05.04-.07.05c-.02.01-.05.02-.07.02-.03,0-.05-.01-.08-.03-.03-.02-.06-.05-.1-.08-.03-.03-.06-.06-.08-.09-.02-.03-.04-.05-.05-.08s-.02-.06-.03-.09c0-.03,0-.07-.01-.11l-.02-1.3c0-.3-.02-.56-.05-.77-.03-.21-.07-.39-.12-.54-.05-.15-.11-.27-.17-.37-.07-.1-.13-.18-.21-.25s-.15-.13-.24-.17c-.09-.04-.18-.06-.27-.06s-.19.02-.28.06c-.1.04-.19.1-.28.19-.1.1-.18.21-.24.32s-.1.21-.13.31c-.03.1-.05.18-.06.25-.01.07-.03.12-.05.14-.01.01-.03.02-.04.02s-.03,0-.06,0c-.02,0-.05-.02-.07-.05-.03-.02-.06-.05-.09-.08-.02-.02-.05-.05-.06-.07s-.03-.04-.04-.06c0-.02-.02-.04-.02-.05s0-.05,0-.08.01-.1.03-.17c.02-.08.05-.17.1-.27.04-.1.1-.21.17-.32.07-.11.15-.21.25-.31.16-.16.31-.27.47-.34.16-.07.32-.11.47-.11.15,0,.3.03.44.09.14.06.27.15.38.27.1.1.2.21.28.33.08.12.16.27.22.45.06.18.11.39.14.65.03.26.05.57.06.94l.02,1.04,1.4-1.4s.03-.02.05-.03.04,0,.07,0,.05.02.08.04c.03.02.05.04.08.07h0ZM215.83,153.64c.17.17.3.35.37.55.08.19.11.39.09.59-.01.2-.07.39-.17.59-.1.19-.24.38-.42.56-.1.1-.2.19-.3.26-.1.08-.2.14-.29.19s-.17.09-.23.11c-.06.02-.11.04-.13.04-.02,0-.04,0-.06,0-.01,0-.03-.01-.05-.02-.02,0-.04-.02-.06-.04-.02-.02-.05-.04-.08-.07-.03-.03-.05-.05-.07-.08-.02-.02-.03-.05-.04-.07s0-.04,0-.05,0-.03.02-.04c.02-.02.05-.03.11-.05.06-.01.12-.04.21-.07.08-.03.18-.08.29-.15.11-.07.22-.16.34-.28.11-.11.2-.23.27-.35.07-.12.1-.24.12-.36.01-.12,0-.25-.05-.37-.05-.12-.13-.25-.25-.37-.1-.1-.21-.18-.32-.22s-.23-.06-.35-.05c-.12.01-.24.06-.37.14-.13.08-.26.19-.41.33-.1.1-.18.19-.25.28-.06.08-.13.16-.19.22-.05.05-.09.07-.13.07-.04,0-.09-.03-.15-.09l-1.31-1.31c-.05-.05-.08-.11-.08-.16s.02-.1.07-.15l1.42-1.42s.03-.02.05-.03c.02,0,.04,0,.06,0,.02,0,.05.02.08.04.03.02.06.04.09.08.06.06.1.11.12.16.02.05.01.09-.02.12l-1.15,1.15.9.9c.05-.06.1-.13.16-.19.06-.06.12-.13.2-.2.18-.18.35-.31.53-.4.18-.09.35-.14.52-.15s.33.02.49.09c.16.07.31.17.45.31h0ZM218.15,154.59s.02.05.02.08c0,.02,0,.05-.01.07,0,.02-.03.05-.05.08-.02.03-.05.06-.08.09-.04.04-.08.07-.11.09-.03.02-.06.03-.09.04-.03,0-.05,0-.07-.01-.02-.01-.03-.03-.05-.07l-2.62-5.63s-.02-.05-.02-.08c0-.02,0-.05,0-.07s.02-.05.05-.08c.02-.03.05-.06.09-.09.04-.04.08-.07.11-.09s.06-.03.09-.04c.02,0,.05,0,.07.01.02.01.04.03.05.06l2.62,5.63ZM221.15,150.02s.05.06.07.09.03.05.04.08c0,.02,0,.04,0,.06,0,.02-.01.04-.03.05l-1.78,1.78s-.05.04-.07.05c-.02.01-.05.02-.07.02-.03,0-.05-.01-.08-.03-.03-.02-.06-.05-.1-.08-.03-.03-.06-.06-.08-.09-.02-.03-.04-.05-.05-.08s-.02-.06-.03-.09c0-.03,0-.07-.01-.11l-.02-1.3c0-.3-.02-.56-.05-.77-.03-.21-.07-.39-.12-.54s-.11-.27-.17-.37c-.07-.1-.13-.18-.21-.25-.07-.07-.15-.13-.24-.17-.09-.04-.18-.06-.27-.06-.09,0-.19.02-.28.06s-.19.1-.28.19c-.1.1-.18.21-.24.32-.05.11-.1.21-.13.31-.03.1-.05.18-.06.25s-.03.12-.05.14c-.01.01-.03.02-.04.02-.02,0-.03,0-.06,0-.02,0-.05-.02-.07-.05-.03-.02-.06-.05-.09-.08-.02-.02-.05-.05-.06-.07-.02-.02-.03-.04-.04-.06,0-.02-.02-.04-.02-.05,0-.02,0-.05,0-.08,0-.04.01-.1.03-.17.02-.08.05-.17.1-.27.04-.1.1-.21.17-.32.07-.11.15-.21.25-.31.16-.16.31-.27.47-.34.16-.07.32-.11.47-.11.15,0,.3.03.44.09.14.06.27.15.38.27.1.1.2.21.28.33.08.12.16.27.22.45.06.18.11.39.14.65.03.26.05.57.06.94l.02,1.04,1.4-1.4s.03-.02.05-.03c.02,0,.04,0,.07,0s.05.02.08.04c.03.02.05.04.08.07h0ZM222.37,145.94c.25.25.45.49.62.73s.28.48.33.72c.06.24.05.47-.01.69s-.21.45-.42.66c-.2.2-.41.34-.62.4-.21.07-.43.07-.65.02s-.46-.17-.7-.34c-.24-.17-.49-.39-.76-.65-.25-.25-.45-.49-.62-.73s-.28-.48-.33-.72c-.06-.24-.05-.47.01-.69.07-.23.2-.45.42-.66.2-.2.41-.34.62-.41.21-.07.43-.07.65-.02s.46.17.7.34c.24.17.49.39.76.65h0ZM221.97,146.4c-.16-.16-.31-.3-.45-.42-.14-.12-.27-.21-.39-.29-.12-.08-.23-.13-.34-.17-.11-.03-.21-.05-.3-.05-.1,0-.19.03-.27.07s-.17.1-.25.18c-.14.14-.22.29-.24.44-.02.15,0,.31.07.48.07.17.17.34.3.51s.3.35.47.53c.24.24.46.43.65.58.19.14.37.24.53.29.16.05.31.06.44.02.13-.04.26-.11.38-.23.09-.09.16-.19.2-.29.04-.1.06-.2.05-.31,0-.11-.03-.21-.07-.33-.04-.11-.1-.22-.18-.34s-.16-.23-.27-.35-.21-.24-.33-.36h0ZM226.24,144.93s.05.06.07.09c.02.03.03.05.04.08s0,.04,0,.06-.01.04-.03.05l-1.78,1.78s-.05.04-.07.05c-.02.01-.05.02-.07.02-.03,0-.05-.01-.08-.03-.03-.02-.06-.05-.1-.08-.03-.03-.06-.06-.08-.09-.02-.03-.04-.05-.05-.08s-.02-.06-.03-.09c0-.03,0-.07-.01-.11l-.02-1.3c0-.3-.02-.56-.05-.77-.03-.21-.07-.39-.12-.54s-.11-.27-.17-.37c-.07-.1-.13-.18-.21-.25-.07-.07-.15-.13-.24-.17-.09-.04-.18-.06-.27-.06-.09,0-.19.02-.28.06-.1.04-.19.1-.28.19-.1.1-.18.21-.24.32-.05.11-.1.21-.13.31-.03.1-.05.18-.06.25-.01.07-.03.12-.05.14-.01.01-.03.02-.04.02-.02,0-.03,0-.06,0s-.05-.02-.07-.05c-.03-.02-.06-.05-.09-.08-.02-.02-.05-.05-.06-.07s-.03-.04-.04-.06c0-.02-.02-.04-.02-.05,0-.02,0-.05,0-.08,0-.04.01-.1.03-.17.02-.08.05-.17.1-.27.04-.1.1-.21.17-.32.07-.11.15-.21.25-.31.16-.16.31-.27.47-.34.16-.07.32-.11.47-.11s.3.03.44.09c.14.06.27.15.38.27.1.1.2.21.28.33.08.12.16.27.22.45s.11.39.14.65c.03.26.05.57.06.94l.02,1.04,1.4-1.4s.03-.02.05-.03c.02,0,.04,0,.07,0s.05.02.08.04c.03.02.05.04.08.07h0ZM229,142.17s.05.06.07.09c.02.03.03.05.04.08s0,.04,0,.06c0,.02-.01.04-.03.05l-1.78,1.78s-.05.04-.07.05c-.02.01-.05.02-.07.02-.03,0-.05-.01-.08-.03-.03-.02-.06-.05-.1-.08-.03-.03-.06-.06-.08-.09-.02-.03-.04-.05-.05-.08s-.02-.06-.03-.09c0-.03,0-.07-.01-.11l-.02-1.3c0-.3-.02-.56-.05-.77-.03-.21-.07-.39-.12-.54-.05-.15-.11-.27-.17-.37-.07-.1-.13-.18-.21-.25s-.15-.13-.24-.17c-.09-.04-.18-.06-.27-.06-.09,0-.19.02-.28.06-.1.04-.19.1-.28.19-.1.1-.18.21-.24.32s-.1.21-.13.31c-.03.1-.05.18-.06.25-.01.07-.03.12-.05.14-.01.01-.03.02-.04.02-.02,0-.03,0-.06,0-.02,0-.05-.02-.07-.05-.03-.02-.06-.05-.09-.08-.02-.02-.05-.05-.06-.07s-.03-.04-.04-.06c0-.02-.02-.04-.02-.05s0-.05,0-.08.01-.1.03-.17c.02-.08.05-.17.1-.27.04-.1.1-.21.17-.32.07-.11.15-.21.25-.31.16-.16.31-.27.47-.34.16-.07.32-.11.47-.11.15,0,.3.03.44.09.14.06.27.15.38.27.1.1.2.21.28.33.08.12.16.27.22.45.06.18.11.39.14.65.03.26.05.57.06.94l.02,1.04,1.4-1.4s.03-.02.05-.03.04,0,.07,0c.02,0,.05.02.08.04.03.02.05.04.08.07h0Z"/>
  </g>
  <g class="cls-20">
    <path class="cls-7" d="M239.25,164.24s.06.06.07.09.03.05.03.07c0,.02,0,.04,0,.06,0,.02-.01.03-.02.04l-1.68,1.68s-.03.02-.04.02-.03,0-.06,0-.05-.01-.07-.03-.06-.04-.09-.07c-.03-.03-.05-.06-.07-.08s-.03-.05-.03-.07c0-.02,0-.04,0-.06,0-.02.01-.03.02-.05l.67-.67-2.45-2.45-.25.99s-.03.08-.05.11-.03.03-.06.03-.05,0-.08-.03c-.03-.02-.06-.05-.1-.09-.03-.03-.05-.05-.07-.08-.02-.02-.03-.04-.04-.06,0-.02-.01-.04-.01-.06,0-.02,0-.04,0-.07l.27-1.22s0-.02.01-.04.02-.03.03-.05c.01-.02.03-.04.05-.06s.04-.05.07-.08c.04-.04.07-.07.1-.09.03-.02.06-.04.08-.05.02,0,.04-.01.05,0,.01,0,.03.01.04.02l2.83,2.83.58-.58s.03-.02.05-.03c.02,0,.04,0,.06,0s.05.02.07.04c.03.02.05.04.08.07h0ZM241.77,161.69s.05.06.07.09.03.05.04.08c0,.02,0,.04,0,.06,0,.02-.01.04-.03.05l-1.78,1.78s-.05.04-.07.05c-.02.01-.05.02-.07.02-.03,0-.05-.01-.08-.03-.03-.02-.06-.05-.1-.08-.03-.03-.06-.06-.08-.09-.02-.03-.04-.05-.05-.08-.01-.03-.02-.06-.03-.09,0-.03,0-.07-.01-.11l-.02-1.3c0-.3-.02-.56-.05-.77-.03-.21-.07-.39-.12-.54s-.11-.27-.17-.37c-.07-.1-.13-.18-.21-.25s-.15-.13-.24-.17c-.09-.04-.18-.06-.27-.06-.09,0-.19.02-.28.06-.1.04-.19.1-.28.19-.1.1-.18.21-.24.32-.05.11-.1.21-.13.31-.03.1-.05.18-.06.25-.01.07-.03.12-.05.14-.01.01-.03.02-.04.02-.02,0-.03,0-.06,0-.02,0-.05-.02-.07-.05-.03-.02-.06-.05-.09-.08-.02-.02-.05-.05-.06-.07-.02-.02-.03-.04-.04-.06,0-.02-.02-.04-.02-.05,0-.02,0-.05,0-.08s.01-.1.03-.17c.02-.08.05-.17.1-.27.04-.1.1-.21.17-.32.07-.11.15-.21.25-.31.16-.16.31-.27.47-.34.16-.07.32-.11.47-.11.15,0,.3.03.44.09.14.06.27.15.38.27.1.1.2.21.28.33.08.12.16.27.22.45.06.18.11.39.14.65.03.26.05.57.06.94l.02,1.04,1.4-1.4s.03-.02.05-.03c.02,0,.04,0,.07,0s.05.02.08.04c.03.02.05.04.08.07h0ZM243.22,161.81s.02.05.02.08c0,.02,0,.05-.01.07,0,.02-.03.05-.05.08-.02.03-.05.06-.08.09-.04.04-.08.07-.11.09-.03.02-.06.03-.09.04-.03,0-.05,0-.07-.01s-.03-.03-.05-.07l-2.62-5.63s-.02-.05-.02-.08c0-.02,0-.05,0-.07s.02-.05.05-.08.05-.06.09-.09c.04-.04.08-.07.11-.09s.06-.03.09-.04.05,0,.07.01c.02.01.04.03.05.06l2.62,5.63ZM246.44,157.02s.05.06.07.09c.02.03.03.05.04.08s0,.04,0,.06c0,.02-.01.04-.03.05l-1.78,1.78s-.05.04-.07.05c-.02.01-.05.02-.07.02-.03,0-.05-.01-.08-.03-.03-.02-.06-.05-.1-.08-.03-.03-.06-.06-.08-.09-.02-.03-.04-.05-.05-.08s-.02-.06-.03-.09c0-.03,0-.07-.01-.11l-.02-1.3c0-.3-.02-.56-.05-.77-.03-.21-.07-.39-.12-.54-.05-.15-.11-.27-.17-.37-.07-.1-.13-.18-.21-.25-.07-.07-.15-.13-.24-.17-.09-.04-.18-.06-.27-.06-.09,0-.19.02-.28.06-.1.04-.19.1-.28.19-.1.1-.18.21-.24.32s-.1.21-.13.31c-.03.1-.05.18-.06.25-.01.07-.03.12-.05.14-.01.01-.03.02-.04.02s-.03,0-.06,0c-.02,0-.05-.02-.07-.05s-.06-.05-.09-.08c-.02-.02-.05-.05-.06-.07s-.03-.04-.04-.06c0-.02-.02-.04-.02-.05,0-.02,0-.05,0-.08s.01-.1.03-.17c.02-.08.05-.17.1-.27.04-.1.1-.21.17-.32.07-.11.15-.21.25-.31.16-.16.31-.27.47-.34.16-.07.32-.11.47-.11.15,0,.3.03.44.09.14.06.27.15.38.27.1.1.2.21.28.33.08.12.16.27.22.45.06.18.11.39.14.65.03.26.05.57.06.94l.02,1.04,1.4-1.4s.03-.02.05-.03.04,0,.07,0,.05.02.08.04.05.04.08.07h0ZM248.12,153.64c.17.17.3.35.37.55.08.19.11.39.09.59s-.07.39-.17.59c-.1.19-.24.38-.42.56-.1.1-.2.19-.3.26-.1.08-.2.14-.29.19s-.17.09-.23.11c-.06.02-.11.04-.13.04-.02,0-.04,0-.06,0-.01,0-.03-.01-.05-.02-.02,0-.04-.02-.06-.04-.02-.02-.05-.04-.08-.07-.03-.03-.05-.05-.07-.08-.02-.02-.03-.05-.04-.07s0-.04,0-.05,0-.03.02-.04c.02-.02.05-.03.11-.05.06-.01.12-.04.21-.07.08-.03.18-.08.29-.15s.22-.16.34-.28c.11-.11.2-.23.27-.35.07-.12.1-.24.12-.36.01-.12,0-.25-.05-.37-.05-.12-.13-.25-.25-.37-.1-.1-.21-.18-.32-.22s-.23-.06-.35-.05c-.12.01-.24.06-.37.14-.13.08-.26.19-.41.33-.1.1-.18.19-.25.28-.06.08-.13.16-.19.22-.05.05-.09.07-.13.07-.04,0-.09-.03-.15-.09l-1.31-1.31c-.05-.05-.08-.11-.08-.16s.02-.1.07-.15l1.42-1.42s.03-.02.05-.03c.02,0,.04,0,.06,0,.02,0,.05.02.08.04.03.02.06.04.09.08.06.06.1.11.12.16.02.05.01.09-.02.12l-1.15,1.15.9.9c.05-.06.1-.13.16-.19.06-.06.12-.13.2-.2.18-.18.35-.31.53-.4.18-.09.35-.14.52-.15s.33.02.49.09c.16.07.31.17.45.31h0ZM250.43,154.59s.02.05.02.08c0,.02,0,.05-.01.07,0,.02-.03.05-.05.08-.02.03-.05.06-.08.09-.04.04-.08.07-.11.09-.03.02-.06.03-.09.04-.03,0-.05,0-.07-.01-.02-.01-.03-.03-.05-.07l-2.62-5.63s-.02-.05-.02-.08,0-.05,0-.07.02-.05.05-.08c.02-.03.05-.06.09-.09.04-.04.08-.07.11-.09s.06-.03.09-.04c.02,0,.05,0,.07.01.02.01.04.03.05.06l2.62,5.63ZM253.44,150.02s.05.06.07.09.03.05.04.08c0,.02,0,.04,0,.06,0,.02-.01.04-.03.05l-1.78,1.78s-.05.04-.07.05c-.02.01-.05.02-.07.02-.03,0-.05-.01-.08-.03-.03-.02-.06-.05-.1-.08-.03-.03-.06-.06-.08-.09-.02-.03-.04-.05-.05-.08s-.02-.06-.03-.09c0-.03,0-.07-.01-.11l-.02-1.3c0-.3-.02-.56-.05-.77-.03-.21-.07-.39-.12-.54s-.11-.27-.17-.37c-.07-.1-.13-.18-.21-.25-.07-.07-.15-.13-.24-.17-.09-.04-.18-.06-.27-.06-.09,0-.19.02-.28.06s-.19.1-.28.19c-.1.1-.18.21-.24.32-.05.11-.1.21-.13.31-.03.1-.05.18-.06.25s-.03.12-.05.14c-.01.01-.03.02-.04.02-.02,0-.03,0-.06,0-.02,0-.05-.02-.07-.05-.03-.02-.06-.05-.09-.08-.02-.02-.05-.05-.06-.07-.02-.02-.03-.04-.04-.06,0-.02-.02-.04-.02-.05,0-.02,0-.05,0-.08,0-.04.01-.1.03-.17.02-.08.05-.17.1-.27.04-.1.1-.21.17-.32.07-.11.15-.21.25-.31.16-.16.31-.27.47-.34.16-.07.32-.11.47-.11s.3.03.44.09c.14.06.27.15.38.27.1.1.2.21.28.33s.16.27.22.45c.06.18.11.39.14.65.03.26.05.57.06.94l.02,1.04,1.4-1.4s.03-.02.05-.03c.02,0,.04,0,.07,0s.05.02.08.04c.03.02.05.04.08.07h0ZM254.66,145.94c.25.25.45.49.62.73.16.24.28.48.33.72.06.24.05.47-.01.69s-.21.45-.42.66c-.2.2-.41.34-.62.4-.21.07-.43.07-.65.02s-.46-.17-.7-.34c-.24-.17-.49-.39-.76-.65-.25-.25-.45-.49-.62-.73-.16-.24-.28-.48-.33-.72-.06-.24-.05-.47.01-.69.07-.23.2-.45.42-.66.2-.2.41-.34.62-.41.21-.07.43-.07.65-.02s.46.17.7.34c.24.17.49.39.76.65h0ZM254.25,146.4c-.16-.16-.31-.3-.45-.42-.14-.12-.27-.21-.39-.29-.12-.08-.23-.13-.34-.17-.11-.03-.21-.05-.3-.05-.1,0-.19.03-.27.07s-.17.1-.25.18c-.14.14-.22.29-.24.44-.02.15,0,.31.07.48.07.17.17.34.3.51s.3.35.47.53c.24.24.46.43.65.58.19.14.37.24.53.29.16.05.31.06.44.02.13-.04.26-.11.38-.23.09-.09.16-.19.2-.29.04-.1.06-.2.05-.31,0-.11-.03-.21-.07-.33-.04-.11-.1-.22-.18-.34s-.16-.23-.27-.35-.21-.24-.33-.36h0ZM258.53,144.93s.05.06.07.09c.02.03.03.05.04.08s0,.04,0,.06-.01.04-.03.05l-1.78,1.78s-.05.04-.07.05c-.02.01-.05.02-.07.02-.03,0-.05-.01-.08-.03-.03-.02-.06-.05-.1-.08-.03-.03-.06-.06-.08-.09-.02-.03-.04-.05-.05-.08-.01-.03-.02-.06-.03-.09,0-.03,0-.07-.01-.11l-.02-1.3c0-.3-.02-.56-.05-.77-.03-.21-.07-.39-.12-.54-.05-.15-.11-.27-.17-.37-.07-.1-.13-.18-.21-.25s-.15-.13-.24-.17c-.09-.04-.18-.06-.27-.06-.09,0-.19.02-.28.06-.1.04-.19.1-.28.19-.1.1-.18.21-.24.32s-.1.21-.13.31c-.03.1-.05.18-.06.25-.01.07-.03.12-.05.14-.01.01-.03.02-.04.02-.02,0-.03,0-.06,0s-.05-.02-.07-.05c-.03-.02-.06-.05-.09-.08-.02-.02-.05-.05-.06-.07s-.03-.04-.04-.06c0-.02-.02-.04-.02-.05,0-.02,0-.05,0-.08s.01-.1.03-.17c.02-.08.05-.17.1-.27.04-.1.1-.21.17-.32.07-.11.15-.21.25-.31.16-.16.31-.27.47-.34.16-.07.32-.11.47-.11.15,0,.3.03.44.09.14.06.27.15.38.27.1.1.2.21.28.33.08.12.16.27.22.45s.11.39.14.65c.03.26.05.57.06.94l.02,1.04,1.4-1.4s.03-.02.05-.03.04,0,.07,0c.02,0,.05.02.08.04s.05.04.08.07h0ZM260.53,141.46c.15.15.25.31.32.48.07.17.09.35.08.53s-.07.36-.16.55c-.1.19-.23.37-.41.55-.11.11-.22.2-.33.28-.11.08-.22.14-.31.19-.1.05-.18.08-.26.11-.07.02-.12.03-.15.03-.02,0-.05,0-.06,0s-.04-.01-.06-.02-.05-.03-.07-.05-.06-.05-.09-.08c-.06-.06-.1-.11-.11-.14-.01-.04,0-.06.02-.09.02-.02.06-.03.13-.05.07-.02.16-.05.26-.09.1-.04.21-.09.33-.16.12-.07.24-.16.35-.28s.2-.22.25-.34c.06-.11.09-.22.09-.33s-.01-.21-.05-.31c-.04-.1-.1-.19-.19-.27-.09-.09-.19-.15-.3-.19-.11-.04-.23-.05-.35-.03-.12.02-.25.06-.38.14-.13.08-.26.18-.4.31l-.32.32s-.03.02-.05.03c-.02,0-.04,0-.06,0s-.05-.01-.08-.03c-.03-.02-.06-.04-.09-.08-.03-.03-.06-.06-.07-.09-.02-.03-.03-.05-.03-.07,0-.02,0-.04,0-.06,0-.02.02-.03.03-.05l.28-.28c.11-.11.19-.22.25-.34.06-.12.09-.23.1-.34,0-.11,0-.22-.05-.33-.04-.11-.11-.2-.2-.3-.07-.07-.14-.12-.22-.16s-.17-.06-.25-.06-.18.02-.27.06c-.09.04-.18.11-.27.19-.1.1-.17.2-.22.31-.05.11-.09.21-.12.31-.03.1-.05.18-.06.25-.01.07-.03.11-.04.13-.01.01-.02.02-.04.02-.01,0-.03,0-.05,0-.02,0-.04-.02-.06-.04-.02-.02-.06-.05-.09-.08-.02-.02-.05-.05-.06-.07s-.03-.04-.04-.06c0-.02-.02-.04-.02-.06,0-.02,0-.04,0-.07s0-.09.03-.16.05-.17.09-.27c.04-.1.1-.21.17-.32.07-.11.16-.22.27-.33.15-.15.3-.26.45-.34.15-.07.3-.11.44-.12.14,0,.28.02.42.08.13.06.26.15.38.27.1.1.18.21.24.32s.1.23.11.35c.02.12,0,.24-.02.36-.03.12-.08.24-.16.36h0c.12-.09.25-.17.39-.22s.27-.07.4-.07.26.03.39.08c.13.05.24.13.34.23h0Z"/>
  </g>
  <g class="cls-32">
    <g class="cls-21">
      <text class="cls-5" transform="translate(124.35 17.25)"><tspan class="cls-37" x="0" y="0">C</tspan><tspan class="cls-34" x="6" y="0">o</tspan><tspan class="cls-38" x="11.99" y="0">mm</tspan><tspan class="cls-27" x="29.97" y="0">i</tspan><tspan class="cls-19" x="32.38" y="0">t</tspan><tspan class="cls-24" x="35.98" y="0">s</tspan></text>
    </g>
  </g>
  <g class="cls-25">
    <polygon class="cls-15" points=".3 .3 288.3 .3 288.3 173.1 .3 173.1 .3 .3 .3 .3"/>
  </g>
</svg>